<svg width="14786" height="2343" viewBox="0 0 14786 2343" fill="none" xmlns="http://www.w3.org/2000/svg">
<path d="M5635.3 433V649.9H5762.2C5773.6 649.9 5781.4 645.4 5785.6 636.4C5789.8 626.8 5793.4 611.5 5796.4 590.5C5797 585.7 5798.8 582.7 5801.8 581.5C5804.8 579.7 5808.7 578.8 5813.5 578.8C5815.3 578.8 5818 579.1 5821.6 579.7C5825.8 579.7 5828.8 580 5830.6 580.6C5829.4 594.4 5828.2 610.6 5827 629.2C5826.4 647.2 5826.1 662.5 5826.1 675.1C5826.1 685.9 5826.4 698.8 5827 713.8C5827.6 728.2 5828.8 744.7 5830.6 763.3C5828.8 764.5 5825.8 765.4 5821.6 766C5818 766 5815.3 766 5813.5 766C5802.7 766 5797 761.8 5796.4 753.4C5792.8 730.6 5788.6 715.3 5783.8 707.5C5779.6 699.1 5772.4 694.9 5762.2 694.9H5635.3V896.5C5635.3 909.1 5643.1 917.5 5658.7 921.7C5674.3 925.9 5700.7 928 5737.9 928H5775.7C5793.7 928 5808.7 925.6 5820.7 920.8C5833.3 916 5844.4 909.4 5854 901C5863.6 892 5872 881.8 5879.2 870.4C5886.4 858.4 5893.6 845.2 5900.8 830.8C5902.6 826.6 5906.8 824.5 5913.4 824.5C5916.4 824.5 5920 825.4 5924.2 827.2C5928.4 829 5932.6 830.8 5936.8 832.6C5935.6 837.4 5934.1 841.9 5932.3 846.1C5931.1 850.3 5929.9 854.5 5928.7 858.7C5925.7 865.3 5923.3 872.5 5921.5 880.3C5919.7 888.1 5917.9 894.4 5916.1 899.2C5914.9 905.2 5913.4 912.1 5911.6 919.9C5910.4 927.1 5908.9 934.3 5907.1 941.5C5905.9 948.1 5904.4 954.1 5902.6 959.5C5901.4 964.9 5900.5 968.5 5899.9 970.3C5897.5 975.1 5892.7 977.5 5885.5 977.5C5880.7 977.5 5873.8 977.2 5864.8 976.6C5855.8 976 5845.9 975.4 5835.1 974.8C5824.9 974.8 5814.4 974.5 5803.6 973.9C5792.8 973.3 5783.5 973 5775.7 973H5571.4C5554 973 5533.9 973.3 5511.1 973.9C5488.9 975.1 5468.8 976.3 5450.8 977.5C5449.6 975.1 5449 972.1 5449 968.5C5449 964.3 5449 961.3 5449 959.5C5449 950.5 5452 945.7 5458 945.1C5480.8 940.9 5497 936.4 5506.6 931.6C5516.8 926.8 5521.9 918.4 5521.9 906.4V455.5C5521.9 449.5 5521 444.7 5519.2 441.1C5517.4 436.9 5513.8 433.6 5508.4 431.2C5503.6 428.2 5497 425.8 5488.6 424C5480.8 421.6 5470.6 419.2 5458 416.8C5452 415 5449 409.6 5449 400.6C5449 397.6 5449 394.9 5449 392.5C5449 389.5 5449.6 386.5 5450.8 383.5C5476.6 385.3 5499.4 386.5 5519.2 387.1C5539 387.7 5556.1 388 5570.5 388H5755C5782 388 5805.1 387.1 5824.3 385.3C5844.1 383.5 5857.6 382.6 5864.8 382.6C5871.4 382.6 5876.2 385.3 5879.2 390.7C5881 395.5 5882.5 404.5 5883.7 417.7C5884.9 430.3 5887 443.5 5890 457.3C5891.8 467.5 5893.9 477.4 5896.3 487C5898.7 496.6 5902.3 508.3 5907.1 522.1C5904.1 523.3 5900.8 524.5 5897.2 525.7C5893.6 526.9 5890 527.5 5886.4 527.5C5879.8 527.5 5875 524.8 5872 519.4C5864.8 503.8 5857.6 490.6 5850.4 479.8C5843.8 468.4 5836 459.4 5827 452.8C5818.6 445.6 5808.4 440.5 5796.4 437.5C5785 434.5 5771.2 433 5755 433H5635.3ZM6405.18 918.1C6405.18 926.5 6408.78 933.1 6415.98 937.9C6423.18 942.1 6436.38 945.7 6455.58 948.7C6457.98 949.3 6460.08 950.5 6461.88 952.3C6464.28 953.5 6465.48 956.2 6465.48 960.4C6465.48 964 6465.18 967.3 6464.58 970.3C6464.58 972.7 6464.28 975.1 6463.68 977.5C6448.08 976.3 6432.48 975.1 6416.88 973.9C6401.28 973.3 6381.78 973 6358.38 973C6339.18 973 6321.18 973.3 6304.38 973.9C6287.58 975.1 6271.38 976.3 6255.78 977.5C6254.58 974.5 6253.98 968.8 6253.98 960.4C6253.98 953.8 6257.28 949.9 6263.88 948.7C6279.48 945.7 6289.98 942.1 6295.38 937.9C6300.78 933.7 6303.48 927.1 6303.48 918.1V741.7C6303.48 706.3 6298.98 682 6289.98 668.8C6281.58 655 6267.78 648.1 6248.58 648.1C6221.58 648.1 6198.48 657.4 6179.28 676C6160.08 694 6150.48 721 6150.48 757V918.1C6150.48 927.1 6153.18 933.7 6158.58 937.9C6163.98 942.1 6174.48 945.7 6190.08 948.7C6196.68 949.9 6199.98 953.8 6199.98 960.4C6199.98 968.8 6199.38 974.5 6198.18 977.5C6182.58 976.3 6166.38 975.1 6149.58 973.9C6132.78 973.3 6114.78 973 6095.58 973C6072.18 973 6052.38 973.3 6036.18 973.9C6020.58 975.1 6005.28 976.3 5990.28 977.5C5989.68 975.1 5989.08 972.7 5988.48 970.3C5988.48 967.3 5988.48 964 5988.48 960.4C5988.48 956.2 5989.38 953.5 5991.18 952.3C5993.58 950.5 5995.98 949.3 5998.38 948.7C6017.58 945.1 6030.78 941.2 6037.98 937C6045.18 932.8 6048.78 926.2 6048.78 917.2V679.6C6048.78 661.6 6045.48 647.8 6038.88 638.2C6032.28 628.6 6018.48 622.9 5997.48 621.1C5989.68 619.3 5985.78 614.5 5985.78 606.7C5985.78 604.9 5985.78 602.8 5985.78 600.4C5985.78 597.4 5986.38 594.7 5987.58 592.3C5991.18 592.3 5996.28 592.3 6002.88 592.3C6010.08 591.7 6017.58 591.4 6025.38 591.4C6033.18 590.8 6040.98 590.2 6048.78 589.6C6056.58 589 6063.78 588.4 6070.38 587.8C6085.38 586 6099.78 583.6 6113.58 580.6C6127.38 577.6 6136.68 576.1 6141.48 576.1C6151.08 576.1 6155.88 580.6 6155.88 589.6C6155.88 596.2 6154.98 604.9 6153.18 615.7C6151.38 626.5 6150.48 641.5 6150.48 660.7C6169.68 635.5 6190.98 615.1 6214.38 599.5C6237.78 583.9 6262.08 576.1 6287.28 576.1C6323.88 576.1 6352.68 586.3 6373.68 606.7C6394.68 627.1 6405.18 657.7 6405.18 698.5V918.1ZM6577.99 957.7C6565.99 951.1 6556.69 942.1 6550.09 930.7C6544.09 919.3 6541.09 906.7 6541.09 892.9C6541.09 873.7 6545.59 858.4 6554.59 847C6563.59 835.6 6577.69 823.9 6596.89 811.9C6581.29 801.7 6567.49 788.8 6555.49 773.2C6543.49 757 6537.49 736.3 6537.49 711.1C6537.49 691.9 6541.69 674.2 6550.09 658C6559.09 641.2 6570.79 626.8 6585.19 614.8C6599.59 602.8 6616.39 593.5 6635.59 586.9C6654.79 579.7 6675.19 576.1 6696.79 576.1C6726.19 576.1 6751.09 580.6 6771.49 589.6C6792.49 598 6808.99 606.7 6820.99 615.7L6909.19 572.5C6916.39 577.3 6921.79 583.9 6925.39 592.3C6929.59 600.1 6931.69 607.6 6931.69 614.8C6931.69 620.8 6930.49 625.9 6928.09 630.1C6925.69 633.7 6921.19 635.5 6914.59 635.5C6912.19 635.5 6908.59 635.5 6903.79 635.5C6898.99 634.9 6895.09 634.6 6892.09 634.6C6885.49 634.6 6878.89 635.2 6872.29 636.4C6865.69 637 6857.29 638.8 6847.09 641.8C6861.49 660.4 6868.69 683.2 6868.69 710.2C6868.69 746.8 6853.99 777.1 6824.59 801.1C6795.79 825.1 6753.19 837.1 6696.79 837.1C6684.19 837.1 6672.19 836.5 6660.79 835.3C6649.39 833.5 6638.59 830.8 6628.39 827.2C6616.39 833.8 6607.99 840.4 6603.19 847C6598.39 853 6595.99 858.4 6595.99 863.2C6595.99 868 6597.19 872.2 6599.59 875.8C6601.99 879.4 6606.79 882.4 6613.99 884.8C6621.19 887.2 6631.39 889.3 6644.59 891.1C6658.39 892.3 6676.39 892.9 6698.59 892.9C6728.59 892.9 6756.19 895.6 6781.39 901C6806.59 905.8 6828.19 913.6 6846.19 924.4C6864.79 935.2 6879.19 949.3 6889.39 966.7C6899.59 983.5 6904.69 1003.9 6904.69 1027.9C6904.69 1049.5 6900.19 1069.9 6891.19 1089.1C6882.79 1108.9 6869.89 1126 6852.49 1140.4C6835.09 1155.4 6813.19 1167.1 6786.79 1175.5C6760.99 1184.5 6730.69 1189 6695.89 1189C6668.89 1189 6643.99 1186.6 6621.19 1181.8C6598.39 1177.6 6578.59 1170.4 6561.79 1160.2C6545.59 1150 6532.69 1136.8 6523.09 1120.6C6514.09 1104.4 6509.59 1084.3 6509.59 1060.3C6509.59 1036.9 6516.19 1016.5 6529.39 999.1C6543.19 982.3 6559.39 968.5 6577.99 957.7ZM6604.99 974.8C6598.39 983.2 6593.89 992.5 6591.49 1002.7C6589.69 1012.9 6588.79 1024 6588.79 1036C6588.79 1049.8 6590.89 1063 6595.09 1075.6C6599.89 1088.8 6607.39 1100.2 6617.59 1109.8C6627.79 1120 6640.99 1128.1 6657.19 1134.1C6673.39 1140.7 6692.89 1144 6715.69 1144C6752.89 1144 6779.89 1135.3 6796.69 1117.9C6814.09 1100.5 6822.79 1079.5 6822.79 1054.9C6822.79 1036.9 6813.49 1021.6 6794.89 1009C6776.29 997 6744.79 991 6700.39 991C6684.79 991 6667.99 989.5 6649.99 986.5C6631.99 983.5 6616.99 979.6 6604.99 974.8ZM6705.79 797.5C6723.19 797.5 6737.59 791.5 6748.99 779.5C6760.99 767.5 6766.99 748.3 6766.99 721.9C6766.99 708.7 6766.09 695.8 6764.29 683.2C6763.09 670.6 6759.79 659.5 6754.39 649.9C6748.99 639.7 6741.19 631.6 6730.99 625.6C6721.39 619 6708.49 615.7 6692.29 615.7C6676.09 615.7 6662.59 622.3 6651.79 635.5C6640.99 648.7 6635.59 666.7 6635.59 689.5C6635.59 703.3 6636.19 716.8 6637.39 730C6639.19 742.6 6642.49 754 6647.29 764.2C6652.69 773.8 6659.89 781.9 6668.89 788.5C6677.89 794.5 6690.19 797.5 6705.79 797.5ZM7080.04 973C7056.64 973 7036.54 973.3 7019.74 973.9C7002.94 975.1 6986.74 976.3 6971.14 977.5C6969.94 971.5 6969.34 965.8 6969.34 960.4C6969.34 956.2 6970.24 953.5 6972.04 952.3C6974.44 950.5 6976.84 949.3 6979.24 948.7C6998.44 945.1 7011.64 941.2 7018.84 937C7026.04 932.8 7029.64 926.2 7029.64 917.2V679.6C7029.64 661.6 7026.64 647.8 7020.64 638.2C7014.64 628.6 7000.54 622.9 6978.34 621.1C6970.54 619.9 6966.64 615.1 6966.64 606.7C6966.64 604.9 6966.64 602.8 6966.64 600.4C6966.64 597.4 6967.24 594.7 6968.44 592.3C6972.04 592.3 6977.14 592.3 6983.74 592.3C6990.94 591.7 6998.44 591.4 7006.24 591.4C7014.04 590.8 7021.84 590.2 7029.64 589.6C7037.44 589 7044.64 588.4 7051.24 587.8C7066.24 586 7080.64 583.6 7094.44 580.6C7108.24 577.6 7117.54 576.1 7122.34 576.1C7131.94 576.1 7136.74 580.6 7136.74 589.6C7136.74 596.2 7135.84 604.9 7134.04 615.7C7132.24 626.5 7131.34 641.5 7131.34 660.7V917.2C7131.34 926.2 7135.24 932.8 7143.04 937C7150.84 941.2 7163.74 945.1 7181.74 948.7C7188.34 949.9 7191.64 953.8 7191.64 960.4C7191.64 963.4 7191.64 966.4 7191.64 969.4C7191.64 972.4 7191.04 975.1 7189.84 977.5C7174.84 976.3 7158.64 975.1 7141.24 973.9C7123.84 973.3 7103.44 973 7080.04 973ZM7014.34 444.7C7014.34 425.5 7020.34 409.9 7032.34 397.9C7044.94 385.3 7060.54 379 7079.14 379C7098.34 379 7113.94 385.3 7125.94 397.9C7137.94 409.9 7143.94 425.5 7143.94 444.7C7143.94 463.9 7137.94 479.8 7125.94 492.4C7113.94 504.4 7098.34 510.4 7079.14 510.4C7060.54 510.4 7044.94 504.4 7032.34 492.4C7020.34 479.8 7014.34 463.9 7014.34 444.7ZM7657.62 918.1C7657.62 926.5 7661.22 933.1 7668.42 937.9C7675.62 942.1 7688.82 945.7 7708.02 948.7C7710.42 949.3 7712.52 950.5 7714.32 952.3C7716.72 953.5 7717.92 956.2 7717.92 960.4C7717.92 964 7717.62 967.3 7717.02 970.3C7717.02 972.7 7716.72 975.1 7716.12 977.5C7700.52 976.3 7684.92 975.1 7669.32 973.9C7653.72 973.3 7634.22 973 7610.82 973C7591.62 973 7573.62 973.3 7556.82 973.9C7540.02 975.1 7523.82 976.3 7508.22 977.5C7507.02 974.5 7506.42 968.8 7506.42 960.4C7506.42 953.8 7509.72 949.9 7516.32 948.7C7531.92 945.7 7542.42 942.1 7547.82 937.9C7553.22 933.7 7555.92 927.1 7555.92 918.1V741.7C7555.92 706.3 7551.42 682 7542.42 668.8C7534.02 655 7520.22 648.1 7501.02 648.1C7474.02 648.1 7450.92 657.4 7431.72 676C7412.52 694 7402.92 721 7402.92 757V918.1C7402.92 927.1 7405.62 933.7 7411.02 937.9C7416.42 942.1 7426.92 945.7 7442.52 948.7C7449.12 949.9 7452.42 953.8 7452.42 960.4C7452.42 968.8 7451.82 974.5 7450.62 977.5C7435.02 976.3 7418.82 975.1 7402.02 973.9C7385.22 973.3 7367.22 973 7348.02 973C7324.62 973 7304.82 973.3 7288.62 973.9C7273.02 975.1 7257.72 976.3 7242.72 977.5C7242.12 975.1 7241.52 972.7 7240.92 970.3C7240.92 967.3 7240.92 964 7240.92 960.4C7240.92 956.2 7241.82 953.5 7243.62 952.3C7246.02 950.5 7248.42 949.3 7250.82 948.7C7270.02 945.1 7283.22 941.2 7290.42 937C7297.62 932.8 7301.22 926.2 7301.22 917.2V679.6C7301.22 661.6 7297.92 647.8 7291.32 638.2C7284.72 628.6 7270.92 622.9 7249.92 621.1C7242.12 619.3 7238.22 614.5 7238.22 606.7C7238.22 604.9 7238.22 602.8 7238.22 600.4C7238.22 597.4 7238.82 594.7 7240.02 592.3C7243.62 592.3 7248.72 592.3 7255.32 592.3C7262.52 591.7 7270.02 591.4 7277.82 591.4C7285.62 590.8 7293.42 590.2 7301.22 589.6C7309.02 589 7316.22 588.4 7322.82 587.8C7337.82 586 7352.22 583.6 7366.02 580.6C7379.82 577.6 7389.12 576.1 7393.92 576.1C7403.52 576.1 7408.32 580.6 7408.32 589.6C7408.32 596.2 7407.42 604.9 7405.62 615.7C7403.82 626.5 7402.92 641.5 7402.92 660.7C7422.12 635.5 7443.42 615.1 7466.82 599.5C7490.22 583.9 7514.52 576.1 7539.72 576.1C7576.32 576.1 7605.12 586.3 7626.12 606.7C7647.12 627.1 7657.62 657.7 7657.62 698.5V918.1ZM8108.53 890.2C8113.93 886 8118.73 883.9 8122.93 883.9C8125.93 883.9 8129.23 885.4 8132.83 888.4C8137.03 890.8 8141.23 895.9 8145.43 903.7C8122.03 931.3 8095.03 951.7 8064.43 964.9C8034.43 977.5 7998.73 983.8 7957.33 983.8C7933.93 983.8 7910.83 980.2 7888.03 973C7865.83 965.2 7845.73 953.5 7827.73 937.9C7809.73 921.7 7795.03 901.6 7783.63 877.6C7772.83 853.6 7767.43 824.8 7767.43 791.2C7767.43 758.2 7773.73 728.5 7786.33 702.1C7799.53 675.1 7816.03 652.3 7835.83 633.7C7855.63 615.1 7877.23 601 7900.63 591.4C7924.03 581.2 7946.53 576.1 7968.13 576.1C8026.33 576.1 8070.13 592.9 8099.53 626.5C8129.53 660.1 8144.53 706 8144.53 764.2C8144.53 768.4 8142.43 770.5 8138.23 770.5L7879.93 781.3C7879.93 828.1 7890.43 864.1 7911.43 889.3C7932.43 913.9 7963.93 926.2 8005.93 926.2C8024.53 926.2 8042.83 923.2 8060.83 917.2C8078.83 911.2 8094.73 902.2 8108.53 890.2ZM7954.63 615.7C7931.23 615.7 7912.33 625.9 7897.93 646.3C7884.13 666.1 7877.23 697.6 7877.23 740.8L8017.63 734.5C8026.63 733.9 8031.13 730 8031.13 722.8C8031.13 711.4 8029.63 699.4 8026.63 686.8C8023.63 674.2 8018.83 662.8 8012.23 652.6C8006.23 641.8 7998.43 633.1 7988.83 626.5C7979.23 619.3 7967.83 615.7 7954.63 615.7ZM8543.59 890.2C8548.99 886 8553.79 883.9 8557.99 883.9C8560.99 883.9 8564.29 885.4 8567.89 888.4C8572.09 890.8 8576.29 895.9 8580.49 903.7C8557.09 931.3 8530.09 951.7 8499.49 964.9C8469.49 977.5 8433.79 983.8 8392.39 983.8C8368.99 983.8 8345.89 980.2 8323.09 973C8300.89 965.2 8280.79 953.5 8262.79 937.9C8244.79 921.7 8230.09 901.6 8218.69 877.6C8207.89 853.6 8202.49 824.8 8202.49 791.2C8202.49 758.2 8208.79 728.5 8221.39 702.1C8234.59 675.1 8251.09 652.3 8270.89 633.7C8290.69 615.1 8312.29 601 8335.69 591.4C8359.09 581.2 8381.59 576.1 8403.19 576.1C8461.39 576.1 8505.19 592.9 8534.59 626.5C8564.59 660.1 8579.59 706 8579.59 764.2C8579.59 768.4 8577.49 770.5 8573.29 770.5L8314.99 781.3C8314.99 828.1 8325.49 864.1 8346.49 889.3C8367.49 913.9 8398.99 926.2 8440.99 926.2C8459.59 926.2 8477.89 923.2 8495.89 917.2C8513.89 911.2 8529.79 902.2 8543.59 890.2ZM8389.69 615.7C8366.29 615.7 8347.39 625.9 8332.99 646.3C8319.19 666.1 8312.29 697.6 8312.29 740.8L8452.69 734.5C8461.69 733.9 8466.19 730 8466.19 722.8C8466.19 711.4 8464.69 699.4 8461.69 686.8C8458.69 674.2 8453.89 662.8 8447.29 652.6C8441.29 641.8 8433.49 633.1 8423.89 626.5C8414.29 619.3 8402.89 615.7 8389.69 615.7ZM8921.95 577C8939.35 577 8952.25 581.5 8960.65 590.5C8969.65 599.5 8974.15 610.9 8974.15 624.7C8974.15 628.9 8973.25 632.5 8971.45 635.5C8970.25 638.5 8966.95 641.8 8961.55 645.4C8956.75 649 8949.85 653.2 8940.85 658C8931.85 662.2 8920.15 667.6 8905.75 674.2C8896.15 664.6 8887.15 658.3 8878.75 655.3C8870.95 651.7 8863.15 649.9 8855.35 649.9C8848.15 649.9 8840.95 651.1 8833.75 653.5C8827.15 655.9 8821.15 660.7 8815.75 667.9C8810.35 674.5 8805.85 683.5 8802.25 694.9C8799.25 706.3 8797.75 721 8797.75 739V906.4C8797.75 918.4 8802.55 927.4 8812.15 933.4C8821.75 938.8 8840.65 943.9 8868.85 948.7C8875.45 949.9 8878.75 953.8 8878.75 960.4C8878.75 968.8 8878.15 974.5 8876.95 977.5C8869.15 976.9 8859.55 976.3 8848.15 975.7C8836.75 975.7 8824.75 975.4 8812.15 974.8C8799.55 974.2 8786.95 973.6 8774.35 973C8762.35 973 8751.55 973 8741.95 973C8719.15 973 8699.65 973.3 8683.45 973.9C8667.25 975.1 8651.95 976.3 8637.55 977.5C8636.35 974.5 8635.75 968.8 8635.75 960.4C8635.75 953.8 8639.05 949.9 8645.65 948.7C8664.85 945.1 8678.05 941.2 8685.25 937C8692.45 932.8 8696.05 926.2 8696.05 917.2V675.1C8696.05 661.3 8693.35 650.2 8687.95 641.8C8683.15 633.4 8669.05 627.7 8645.65 624.7C8637.25 623.5 8633.05 619 8633.05 611.2C8633.05 609.4 8633.05 607 8633.05 604C8633.05 601 8633.65 598.6 8634.85 596.8C8638.45 596.8 8643.55 596.8 8650.15 596.8C8656.75 596.2 8663.95 595.9 8671.75 595.9C8679.55 595.3 8687.35 594.7 8695.15 594.1C8702.95 593.5 8709.85 592.6 8715.85 591.4C8729.05 589.6 8742.55 587.5 8756.35 585.1C8770.75 582.1 8780.35 580.6 8785.15 580.6C8793.55 580.6 8797.75 585.1 8797.75 594.1V642.7C8818.75 619.9 8838.85 603.4 8858.05 593.2C8877.25 582.4 8898.55 577 8921.95 577ZM9113.83 973C9090.43 973 9070.33 973.3 9053.53 973.9C9036.73 975.1 9020.53 976.3 9004.93 977.5C9003.73 971.5 9003.13 965.8 9003.13 960.4C9003.13 956.2 9004.03 953.5 9005.83 952.3C9008.23 950.5 9010.63 949.3 9013.03 948.7C9032.23 945.1 9045.43 941.2 9052.63 937C9059.83 932.8 9063.43 926.2 9063.43 917.2V679.6C9063.43 661.6 9060.43 647.8 9054.43 638.2C9048.43 628.6 9034.33 622.9 9012.13 621.1C9004.33 619.9 9000.43 615.1 9000.43 606.7C9000.43 604.9 9000.43 602.8 9000.43 600.4C9000.43 597.4 9001.03 594.7 9002.23 592.3C9005.83 592.3 9010.93 592.3 9017.53 592.3C9024.73 591.7 9032.23 591.4 9040.03 591.4C9047.83 590.8 9055.63 590.2 9063.43 589.6C9071.23 589 9078.43 588.4 9085.03 587.8C9100.03 586 9114.43 583.6 9128.23 580.6C9142.03 577.6 9151.33 576.1 9156.13 576.1C9165.73 576.1 9170.53 580.6 9170.53 589.6C9170.53 596.2 9169.63 604.9 9167.83 615.7C9166.03 626.5 9165.13 641.5 9165.13 660.7V917.2C9165.13 926.2 9169.03 932.8 9176.83 937C9184.63 941.2 9197.53 945.1 9215.53 948.7C9222.13 949.9 9225.43 953.8 9225.43 960.4C9225.43 963.4 9225.43 966.4 9225.43 969.4C9225.43 972.4 9224.83 975.1 9223.63 977.5C9208.63 976.3 9192.43 975.1 9175.03 973.9C9157.63 973.3 9137.23 973 9113.83 973ZM9048.13 444.7C9048.13 425.5 9054.13 409.9 9066.13 397.9C9078.73 385.3 9094.33 379 9112.93 379C9132.13 379 9147.73 385.3 9159.73 397.9C9171.73 409.9 9177.73 425.5 9177.73 444.7C9177.73 463.9 9171.73 479.8 9159.73 492.4C9147.73 504.4 9132.13 510.4 9112.93 510.4C9094.33 510.4 9078.73 504.4 9066.13 492.4C9054.13 479.8 9048.13 463.9 9048.13 444.7ZM9691.41 918.1C9691.41 926.5 9695.01 933.1 9702.21 937.9C9709.41 942.1 9722.61 945.7 9741.81 948.7C9744.21 949.3 9746.31 950.5 9748.11 952.3C9750.51 953.5 9751.71 956.2 9751.71 960.4C9751.71 964 9751.41 967.3 9750.81 970.3C9750.81 972.7 9750.51 975.1 9749.91 977.5C9734.31 976.3 9718.71 975.1 9703.11 973.9C9687.51 973.3 9668.01 973 9644.61 973C9625.41 973 9607.41 973.3 9590.61 973.9C9573.81 975.1 9557.61 976.3 9542.01 977.5C9540.81 974.5 9540.21 968.8 9540.21 960.4C9540.21 953.8 9543.51 949.9 9550.11 948.7C9565.71 945.7 9576.21 942.1 9581.61 937.9C9587.01 933.7 9589.71 927.1 9589.71 918.1V741.7C9589.71 706.3 9585.21 682 9576.21 668.8C9567.81 655 9554.01 648.1 9534.81 648.1C9507.81 648.1 9484.71 657.4 9465.51 676C9446.31 694 9436.71 721 9436.71 757V918.1C9436.71 927.1 9439.41 933.7 9444.81 937.9C9450.21 942.1 9460.71 945.7 9476.31 948.7C9482.91 949.9 9486.21 953.8 9486.21 960.4C9486.21 968.8 9485.61 974.5 9484.41 977.5C9468.81 976.3 9452.61 975.1 9435.81 973.9C9419.01 973.3 9401.01 973 9381.81 973C9358.41 973 9338.61 973.3 9322.41 973.9C9306.81 975.1 9291.51 976.3 9276.51 977.5C9275.91 975.1 9275.31 972.7 9274.71 970.3C9274.71 967.3 9274.71 964 9274.71 960.4C9274.71 956.2 9275.61 953.5 9277.41 952.3C9279.81 950.5 9282.21 949.3 9284.61 948.7C9303.81 945.1 9317.01 941.2 9324.21 937C9331.41 932.8 9335.01 926.2 9335.01 917.2V679.6C9335.01 661.6 9331.71 647.8 9325.11 638.2C9318.51 628.6 9304.71 622.9 9283.71 621.1C9275.91 619.3 9272.01 614.5 9272.01 606.7C9272.01 604.9 9272.01 602.8 9272.01 600.4C9272.01 597.4 9272.61 594.7 9273.81 592.3C9277.41 592.3 9282.51 592.3 9289.11 592.3C9296.31 591.7 9303.81 591.4 9311.61 591.4C9319.41 590.8 9327.21 590.2 9335.01 589.6C9342.81 589 9350.01 588.4 9356.61 587.8C9371.61 586 9386.01 583.6 9399.81 580.6C9413.61 577.6 9422.91 576.1 9427.71 576.1C9437.31 576.1 9442.11 580.6 9442.11 589.6C9442.11 596.2 9441.21 604.9 9439.41 615.7C9437.61 626.5 9436.71 641.5 9436.71 660.7C9455.91 635.5 9477.21 615.1 9500.61 599.5C9524.01 583.9 9548.31 576.1 9573.51 576.1C9610.11 576.1 9638.91 586.3 9659.91 606.7C9680.91 627.1 9691.41 657.7 9691.41 698.5V918.1ZM9864.22 957.7C9852.22 951.1 9842.92 942.1 9836.32 930.7C9830.32 919.3 9827.32 906.7 9827.32 892.9C9827.32 873.7 9831.82 858.4 9840.82 847C9849.82 835.6 9863.92 823.9 9883.12 811.9C9867.52 801.7 9853.72 788.8 9841.72 773.2C9829.72 757 9823.72 736.3 9823.72 711.1C9823.72 691.9 9827.92 674.2 9836.32 658C9845.32 641.2 9857.02 626.8 9871.42 614.8C9885.82 602.8 9902.62 593.5 9921.82 586.9C9941.02 579.7 9961.42 576.1 9983.02 576.1C10012.4 576.1 10037.3 580.6 10057.7 589.6C10078.7 598 10095.2 606.7 10107.2 615.7L10195.4 572.5C10202.6 577.3 10208 583.9 10211.6 592.3C10215.8 600.1 10217.9 607.6 10217.9 614.8C10217.9 620.8 10216.7 625.9 10214.3 630.1C10211.9 633.7 10207.4 635.5 10200.8 635.5C10198.4 635.5 10194.8 635.5 10190 635.5C10185.2 634.9 10181.3 634.6 10178.3 634.6C10171.7 634.6 10165.1 635.2 10158.5 636.4C10151.9 637 10143.5 638.8 10133.3 641.8C10147.7 660.4 10154.9 683.2 10154.9 710.2C10154.9 746.8 10140.2 777.1 10110.8 801.1C10082 825.1 10039.4 837.1 9983.02 837.1C9970.42 837.1 9958.42 836.5 9947.02 835.3C9935.62 833.5 9924.82 830.8 9914.62 827.2C9902.62 833.8 9894.22 840.4 9889.42 847C9884.62 853 9882.22 858.4 9882.22 863.2C9882.22 868 9883.42 872.2 9885.82 875.8C9888.22 879.4 9893.02 882.4 9900.22 884.8C9907.42 887.2 9917.62 889.3 9930.82 891.1C9944.62 892.3 9962.62 892.9 9984.82 892.9C10014.8 892.9 10042.4 895.6 10067.6 901C10092.8 905.8 10114.4 913.6 10132.4 924.4C10151 935.2 10165.4 949.3 10175.6 966.7C10185.8 983.5 10190.9 1003.9 10190.9 1027.9C10190.9 1049.5 10186.4 1069.9 10177.4 1089.1C10169 1108.9 10156.1 1126 10138.7 1140.4C10121.3 1155.4 10099.4 1167.1 10073 1175.5C10047.2 1184.5 10016.9 1189 9982.12 1189C9955.12 1189 9930.22 1186.6 9907.42 1181.8C9884.62 1177.6 9864.82 1170.4 9848.02 1160.2C9831.82 1150 9818.92 1136.8 9809.32 1120.6C9800.32 1104.4 9795.82 1084.3 9795.82 1060.3C9795.82 1036.9 9802.42 1016.5 9815.62 999.1C9829.42 982.3 9845.62 968.5 9864.22 957.7ZM9891.22 974.8C9884.62 983.2 9880.12 992.5 9877.72 1002.7C9875.92 1012.9 9875.02 1024 9875.02 1036C9875.02 1049.8 9877.12 1063 9881.32 1075.6C9886.12 1088.8 9893.62 1100.2 9903.82 1109.8C9914.02 1120 9927.22 1128.1 9943.42 1134.1C9959.62 1140.7 9979.12 1144 10001.9 1144C10039.1 1144 10066.1 1135.3 10082.9 1117.9C10100.3 1100.5 10109 1079.5 10109 1054.9C10109 1036.9 10099.7 1021.6 10081.1 1009C10062.5 997 10031 991 9986.62 991C9971.02 991 9954.22 989.5 9936.22 986.5C9918.22 983.5 9903.22 979.6 9891.22 974.8ZM9992.02 797.5C10009.4 797.5 10023.8 791.5 10035.2 779.5C10047.2 767.5 10053.2 748.3 10053.2 721.9C10053.2 708.7 10052.3 695.8 10050.5 683.2C10049.3 670.6 10046 659.5 10040.6 649.9C10035.2 639.7 10027.4 631.6 10017.2 625.6C10007.6 619 9994.72 615.7 9978.52 615.7C9962.32 615.7 9948.82 622.3 9938.02 635.5C9927.22 648.7 9921.82 666.7 9921.82 689.5C9921.82 703.3 9922.42 716.8 9923.62 730C9925.42 742.6 9928.72 754 9933.52 764.2C9938.92 773.8 9946.12 781.9 9955.12 788.5C9964.12 794.5 9976.42 797.5 9992.02 797.5ZM5607.4 1918C5607.4 1930 5611.6 1938.4 5620 1943.2C5628.4 1947.4 5644 1951.9 5666.8 1956.7C5672.8 1957.9 5675.8 1962.7 5675.8 1971.1C5675.8 1974.7 5675.2 1979.5 5674 1985.5C5655.4 1984.3 5636.8 1983.1 5618.2 1981.9C5599.6 1981.3 5581.9 1981 5565.1 1981C5548.9 1981 5530.9 1981.3 5511.1 1981.9C5491.9 1983.1 5473.6 1984.3 5456.2 1985.5C5455 1979.5 5454.4 1974.7 5454.4 1971.1C5454.4 1962.7 5457.4 1957.9 5463.4 1956.7C5486.2 1952.5 5501.8 1948 5510.2 1943.2C5518.6 1938.4 5522.8 1930 5522.8 1918V1459.9C5522.8 1447.9 5518.6 1439.5 5510.2 1434.7C5501.8 1429.3 5486.2 1424.8 5463.4 1421.2C5459.8 1420.6 5457.4 1418.8 5456.2 1415.8C5455 1412.8 5454.4 1409.5 5454.4 1405.9C5454.4 1402.3 5455 1397.5 5456.2 1391.5C5474.2 1392.7 5492.8 1393.9 5512 1395.1C5531.8 1395.7 5549.5 1396 5565.1 1396C5580.1 1396 5597.2 1395.7 5616.4 1395.1C5636.2 1393.9 5655.4 1392.7 5674 1391.5C5675.2 1397.5 5675.8 1402.3 5675.8 1405.9C5675.8 1414.9 5672.8 1420 5666.8 1421.2C5644 1424.8 5628.4 1429.3 5620 1434.7C5611.6 1439.5 5607.4 1447.9 5607.4 1459.9V1918ZM6144.58 1929.7C6144.58 1938.7 6149.98 1945.6 6160.78 1950.4C6171.58 1954.6 6183.58 1957.9 6196.78 1960.3C6202.18 1961.5 6204.88 1965.1 6204.88 1971.1C6204.88 1974.7 6204.28 1979.5 6203.08 1985.5C6187.48 1984.3 6172.18 1983.1 6157.18 1981.9C6142.18 1981.3 6125.98 1981 6108.58 1981C6092.38 1981 6076.18 1981.3 6059.98 1981.9C6044.38 1983.1 6028.78 1984.3 6013.18 1985.5C6011.98 1979.5 6011.38 1974.7 6011.38 1971.1C6011.38 1965.1 6014.08 1961.5 6019.48 1960.3C6032.08 1957.9 6043.48 1954.6 6053.68 1950.4C6063.88 1945.6 6068.98 1938.7 6068.98 1929.7V1753.3C6068.98 1738.3 6068.08 1724.5 6066.28 1711.9C6064.48 1699.3 6060.88 1688.5 6055.48 1679.5C6050.68 1669.9 6043.78 1662.7 6034.78 1657.9C6026.38 1652.5 6015.28 1649.8 6001.48 1649.8C5986.48 1649.8 5971.78 1652.5 5957.38 1657.9C5942.98 1662.7 5930.08 1670.2 5918.68 1680.4C5907.88 1690 5899.18 1702 5892.58 1716.4C5885.98 1730.8 5882.68 1747.3 5882.68 1765.9V1929.7C5882.68 1938.7 5887.78 1945.6 5897.98 1950.4C5908.78 1954.6 5920.18 1957.9 5932.18 1960.3C5937.58 1961.5 5940.28 1965.1 5940.28 1971.1C5940.28 1974.7 5939.68 1979.5 5938.48 1985.5C5922.88 1984.3 5907.58 1983.1 5892.58 1981.9C5877.58 1981.3 5861.68 1981 5844.88 1981C5827.48 1981 5810.98 1981.3 5795.38 1981.9C5779.78 1983.1 5764.48 1984.3 5749.48 1985.5C5748.28 1979.5 5747.68 1974.7 5747.68 1971.1C5747.68 1965.1 5750.38 1961.5 5755.78 1960.3C5768.98 1957.9 5780.98 1954.6 5791.78 1950.4C5802.58 1945.6 5807.98 1938.4 5807.98 1928.8V1684C5807.98 1666 5804.68 1653.1 5798.08 1645.3C5792.08 1637.5 5778.58 1632.7 5757.58 1630.9C5749.78 1629.7 5745.88 1625.5 5745.88 1618.3C5745.88 1615.3 5746.48 1611.4 5747.68 1606.6C5755.48 1606.6 5766.28 1606.3 5780.08 1605.7C5794.48 1604.5 5806.18 1603.3 5815.18 1602.1C5828.98 1599.7 5841.28 1597.3 5852.08 1594.9C5862.88 1591.9 5870.68 1590.4 5875.48 1590.4C5883.88 1590.4 5888.08 1594.9 5888.08 1603.9C5888.08 1612.3 5887.18 1622.5 5885.38 1634.5C5883.58 1645.9 5882.68 1661.2 5882.68 1680.4C5908.48 1651.6 5933.08 1629.4 5956.48 1613.8C5980.48 1598.2 6006.58 1590.4 6034.78 1590.4C6071.38 1590.4 6098.68 1601.2 6116.68 1622.8C6135.28 1643.8 6144.58 1673.2 6144.58 1711V1929.7ZM6461.08 1927.9C6464.08 1924.9 6466.48 1923.1 6468.28 1922.5C6470.68 1921.9 6472.48 1921.6 6473.68 1921.6C6479.08 1921.6 6483.88 1925.5 6488.08 1933.3C6472.48 1950.7 6455.68 1964.8 6437.68 1975.6C6419.68 1986.4 6400.48 1991.8 6380.08 1991.8C6368.08 1991.8 6356.68 1990.3 6345.88 1987.3C6335.08 1984.9 6325.78 1979.8 6317.98 1972C6310.18 1964.2 6303.88 1953.7 6299.08 1940.5C6294.88 1926.7 6292.78 1909 6292.78 1887.4V1639H6238.78V1629.1C6238.78 1624.9 6239.38 1621 6240.58 1617.4C6242.38 1613.8 6245.68 1612 6250.48 1612C6266.68 1612 6279.88 1607.8 6290.08 1599.4C6300.28 1591 6308.68 1580.2 6315.28 1567C6322.48 1552.6 6328.78 1539.1 6334.18 1526.5C6339.58 1513.9 6345.58 1507.6 6352.18 1507.6H6368.38V1601.2H6473.68C6473.68 1613.8 6472.18 1623.4 6469.18 1630C6466.78 1636 6461.98 1639 6454.78 1639H6368.38V1862.2C6368.38 1881.4 6369.28 1897 6371.08 1909C6372.88 1920.4 6375.58 1929.4 6379.18 1936C6382.78 1942 6386.98 1945.9 6391.78 1947.7C6396.58 1949.5 6401.98 1950.4 6407.98 1950.4C6418.18 1950.4 6427.48 1948.3 6435.88 1944.1C6444.88 1939.3 6453.28 1933.9 6461.08 1927.9ZM6842.57 1897.3C6846.77 1893.1 6851.27 1891 6856.07 1891C6862.07 1891 6867.77 1896.1 6873.17 1906.3C6865.37 1917.1 6856.37 1927.6 6846.17 1937.8C6835.97 1948 6823.67 1957.3 6809.27 1965.7C6795.47 1973.5 6779.57 1979.8 6761.57 1984.6C6743.57 1989.4 6722.87 1991.8 6699.47 1991.8C6675.47 1991.8 6652.67 1987.9 6631.07 1980.1C6609.47 1972.3 6590.27 1960.3 6573.47 1944.1C6557.27 1927.9 6544.07 1907.8 6533.87 1883.8C6524.27 1859.8 6519.47 1831.6 6519.47 1799.2C6519.47 1768.6 6525.17 1740.4 6536.57 1714.6C6548.57 1688.8 6563.87 1666.9 6582.47 1648.9C6601.07 1630.3 6621.47 1615.9 6643.67 1605.7C6666.47 1595.5 6688.37 1590.4 6709.37 1590.4C6765.17 1590.4 6805.67 1606.6 6830.87 1639C6856.67 1671.4 6869.57 1713.7 6869.57 1765.9C6869.57 1769.5 6867.77 1771.3 6864.17 1771.3L6603.17 1783C6603.17 1806.4 6606.47 1828 6613.07 1847.8C6619.67 1867.6 6628.97 1884.7 6640.97 1899.1C6652.97 1913.5 6667.37 1924.9 6684.17 1933.3C6701.57 1941.1 6721.07 1945 6742.67 1945C6761.87 1945 6780.17 1940.5 6797.57 1931.5C6815.57 1922.5 6830.57 1911.1 6842.57 1897.3ZM6696.77 1622.8C6666.77 1622.8 6643.37 1634.5 6626.57 1657.9C6609.77 1681.3 6601.37 1711.9 6601.37 1749.7L6771.47 1741.6C6780.47 1741.6 6784.97 1737.7 6784.97 1729.9C6784.97 1718.5 6783.17 1706.5 6779.57 1693.9C6775.97 1681.3 6770.57 1669.9 6763.37 1659.7C6756.17 1648.9 6746.87 1640.2 6735.47 1633.6C6724.67 1626.4 6711.77 1622.8 6696.77 1622.8ZM7192.53 1591.3C7209.93 1591.3 7222.83 1595.5 7231.23 1603.9C7239.63 1612.3 7243.83 1621.6 7243.83 1631.8C7243.83 1635.4 7243.23 1638.7 7242.03 1641.7C7240.83 1644.7 7237.83 1648 7233.03 1651.6C7228.83 1654.6 7222.53 1658.5 7214.13 1663.3C7206.33 1667.5 7195.23 1672.9 7180.83 1679.5C7175.43 1672.9 7168.83 1667.2 7161.03 1662.4C7153.83 1657.6 7145.73 1655.2 7136.73 1655.2C7126.53 1655.2 7117.23 1658.2 7108.83 1664.2C7100.43 1669.6 7093.23 1677.4 7087.23 1687.6C7081.23 1697.2 7076.43 1708.6 7072.83 1721.8C7069.83 1734.4 7068.33 1747.6 7068.33 1761.4V1916.2C7068.33 1929.4 7075.23 1939.3 7089.03 1945.9C7102.83 1951.9 7122.63 1956.7 7148.43 1960.3C7154.43 1961.5 7157.43 1965.1 7157.43 1971.1C7157.43 1974.7 7156.83 1979.5 7155.63 1985.5C7149.03 1984.9 7140.63 1984.3 7130.43 1983.7C7120.83 1983.7 7110.63 1983.4 7099.83 1982.8C7089.03 1982.2 7077.93 1981.6 7066.53 1981C7055.13 1981 7044.63 1981 7035.03 1981C7018.83 1981 7002.03 1981.3 6984.63 1981.9C6967.23 1983.1 6950.73 1984.3 6935.13 1985.5C6933.92 1979.5 6933.32 1974.7 6933.32 1971.1C6933.32 1965.1 6936.03 1961.5 6941.43 1960.3C6955.23 1957.9 6967.23 1954.3 6977.43 1949.5C6988.23 1944.7 6993.63 1937.8 6993.63 1928.8V1700.2C6993.63 1687.6 6992.73 1677.1 6990.93 1668.7C6989.73 1660.3 6987.33 1653.7 6983.73 1648.9C6980.13 1643.5 6974.73 1639.6 6967.53 1637.2C6960.93 1634.8 6952.23 1633 6941.43 1631.8C6933.63 1630.6 6929.73 1626.7 6929.73 1620.1C6929.73 1616.5 6930.33 1612.3 6931.53 1607.5C6939.33 1607.5 6950.13 1607.2 6963.93 1606.6C6978.33 1605.4 6990.03 1604.2 6999.03 1603C7012.23 1600.6 7023.63 1598.2 7033.23 1595.8C7043.43 1592.8 7050.93 1591.3 7055.73 1591.3C7064.13 1591.3 7068.33 1595.8 7068.33 1604.8V1665.1C7087.53 1644.1 7106.73 1626.7 7125.93 1612.9C7145.73 1598.5 7167.93 1591.3 7192.53 1591.3ZM7671.24 1929.7C7671.24 1938.7 7676.64 1945.6 7687.44 1950.4C7698.24 1954.6 7710.24 1957.9 7723.44 1960.3C7728.84 1961.5 7731.54 1965.1 7731.54 1971.1C7731.54 1974.7 7730.94 1979.5 7729.74 1985.5C7714.14 1984.3 7698.84 1983.1 7683.84 1981.9C7668.84 1981.3 7652.64 1981 7635.24 1981C7619.04 1981 7602.84 1981.3 7586.64 1981.9C7571.04 1983.1 7555.44 1984.3 7539.84 1985.5C7538.64 1979.5 7538.04 1974.7 7538.04 1971.1C7538.04 1965.1 7540.74 1961.5 7546.14 1960.3C7558.74 1957.9 7570.14 1954.6 7580.34 1950.4C7590.54 1945.6 7595.64 1938.7 7595.64 1929.7V1753.3C7595.64 1738.3 7594.74 1724.5 7592.94 1711.9C7591.14 1699.3 7587.54 1688.5 7582.14 1679.5C7577.34 1669.9 7570.44 1662.7 7561.44 1657.9C7553.04 1652.5 7541.94 1649.8 7528.14 1649.8C7513.14 1649.8 7498.44 1652.5 7484.04 1657.9C7469.64 1662.7 7456.74 1670.2 7445.34 1680.4C7434.54 1690 7425.84 1702 7419.24 1716.4C7412.64 1730.8 7409.34 1747.3 7409.34 1765.9V1929.7C7409.34 1938.7 7414.44 1945.6 7424.64 1950.4C7435.44 1954.6 7446.84 1957.9 7458.84 1960.3C7464.24 1961.5 7466.94 1965.1 7466.94 1971.1C7466.94 1974.7 7466.34 1979.5 7465.14 1985.5C7449.54 1984.3 7434.24 1983.1 7419.24 1981.9C7404.24 1981.3 7388.34 1981 7371.54 1981C7354.14 1981 7337.64 1981.3 7322.04 1981.9C7306.44 1983.1 7291.14 1984.3 7276.14 1985.5C7274.94 1979.5 7274.34 1974.7 7274.34 1971.1C7274.34 1965.1 7277.04 1961.5 7282.44 1960.3C7295.64 1957.9 7307.64 1954.6 7318.44 1950.4C7329.24 1945.6 7334.64 1938.4 7334.64 1928.8V1684C7334.64 1666 7331.34 1653.1 7324.74 1645.3C7318.74 1637.5 7305.24 1632.7 7284.24 1630.9C7276.44 1629.7 7272.54 1625.5 7272.54 1618.3C7272.54 1615.3 7273.14 1611.4 7274.34 1606.6C7282.14 1606.6 7292.94 1606.3 7306.74 1605.7C7321.14 1604.5 7332.84 1603.3 7341.84 1602.1C7355.64 1599.7 7367.94 1597.3 7378.74 1594.9C7389.54 1591.9 7397.34 1590.4 7402.14 1590.4C7410.54 1590.4 7414.74 1594.9 7414.74 1603.9C7414.74 1612.3 7413.84 1622.5 7412.04 1634.5C7410.24 1645.9 7409.34 1661.2 7409.34 1680.4C7435.14 1651.6 7459.74 1629.4 7483.14 1613.8C7507.14 1598.2 7533.24 1590.4 7561.44 1590.4C7598.04 1590.4 7625.34 1601.2 7643.34 1622.8C7661.94 1643.8 7671.24 1673.2 7671.24 1711V1929.7ZM8160.33 1956.7C8166.93 1956.7 8170.53 1963 8171.13 1975.6C8155.53 1986.4 8135.73 1991.8 8111.73 1991.8C8098.53 1991.8 8087.13 1989.7 8077.53 1985.5C8067.93 1981.9 8059.83 1976.8 8053.23 1970.2C8046.63 1963.6 8041.53 1956.1 8037.93 1947.7C8034.33 1939.3 8031.93 1930.6 8030.73 1921.6C8015.73 1948.6 7997.73 1967.2 7976.73 1977.4C7956.33 1987 7932.63 1991.8 7905.63 1991.8C7893.63 1991.8 7880.73 1990.6 7866.93 1988.2C7853.73 1986.4 7841.13 1982.2 7829.13 1975.6C7817.13 1969 7807.23 1959.7 7799.43 1947.7C7791.63 1935.7 7787.73 1919.8 7787.73 1900C7787.73 1877.8 7792.83 1859.2 7803.03 1844.2C7813.83 1828.6 7827.33 1816 7843.53 1806.4C7860.33 1796.2 7878.33 1788.1 7897.53 1782.1C7917.33 1776.1 7936.23 1771 7954.23 1766.8C7964.43 1765 7973.73 1763.2 7982.13 1761.4C7991.13 1759 7998.93 1756.6 8005.53 1754.2C8013.93 1751.8 8019.03 1748.5 8020.83 1744.3C8023.23 1740.1 8024.43 1732 8024.43 1720C8024.43 1691.8 8019.03 1668.7 8008.23 1650.7C7997.43 1632.1 7978.23 1622.8 7950.63 1622.8C7940.43 1622.8 7931.73 1624 7924.53 1626.4C7917.33 1628.8 7911.33 1632.7 7906.53 1638.1C7901.73 1642.9 7897.53 1649.5 7893.93 1657.9C7890.33 1666.3 7886.73 1676.2 7883.13 1687.6C7881.33 1694.2 7877.13 1699 7870.53 1702C7864.53 1705 7854.03 1708.6 7839.03 1712.8C7835.43 1714 7830.93 1715.2 7825.53 1716.4C7820.13 1717.6 7815.63 1718.2 7812.03 1718.2C7806.03 1718.2 7803.03 1711.9 7803.03 1699.3C7803.03 1686.1 7808.13 1672.9 7818.33 1659.7C7828.53 1646.5 7841.43 1634.8 7857.03 1624.6C7873.23 1614.4 7890.63 1606.3 7909.23 1600.3C7927.83 1593.7 7945.53 1590.4 7962.33 1590.4C7983.33 1590.4 8002.23 1592.2 8019.03 1595.8C8035.83 1599.4 8050.23 1606 8062.23 1615.6C8074.23 1625.2 8083.23 1638.1 8089.23 1654.3C8095.83 1670.5 8099.13 1691.5 8099.13 1717.3V1872.1C8099.13 1893.1 8099.73 1908.4 8100.93 1918C8102.73 1927 8105.13 1934.2 8108.13 1939.6C8112.33 1948 8116.83 1953.7 8121.63 1956.7C8127.03 1959.1 8132.43 1960.3 8137.83 1960.3C8144.43 1960.3 8148.93 1959.7 8151.33 1958.5C8154.33 1957.3 8157.33 1956.7 8160.33 1956.7ZM8024.43 1781.2L7995.63 1785.7C7980.03 1788.7 7964.73 1792.3 7949.73 1796.5C7935.33 1800.7 7922.43 1806.7 7911.03 1814.5C7899.63 1821.7 7890.33 1831 7883.13 1842.4C7876.53 1853.8 7873.23 1867.9 7873.23 1884.7C7873.23 1907.5 7878.93 1924.9 7890.33 1936.9C7902.33 1948.9 7917.03 1954.9 7934.43 1954.9C7945.83 1954.9 7956.93 1952.5 7967.73 1947.7C7979.13 1942.3 7988.73 1935.1 7996.53 1926.1C8004.93 1916.5 8011.53 1905.4 8016.33 1892.8C8021.73 1880.2 8024.43 1866.4 8024.43 1851.4V1781.2ZM8417.52 1927.9C8420.52 1924.9 8422.92 1923.1 8424.72 1922.5C8427.12 1921.9 8428.92 1921.6 8430.12 1921.6C8435.52 1921.6 8440.32 1925.5 8444.52 1933.3C8428.92 1950.7 8412.12 1964.8 8394.12 1975.6C8376.12 1986.4 8356.92 1991.8 8336.52 1991.8C8324.52 1991.8 8313.12 1990.3 8302.32 1987.3C8291.52 1984.9 8282.22 1979.8 8274.42 1972C8266.62 1964.2 8260.32 1953.7 8255.52 1940.5C8251.32 1926.7 8249.22 1909 8249.22 1887.4V1639H8195.22V1629.1C8195.22 1624.9 8195.82 1621 8197.02 1617.4C8198.82 1613.8 8202.12 1612 8206.92 1612C8223.12 1612 8236.32 1607.8 8246.52 1599.4C8256.72 1591 8265.12 1580.2 8271.72 1567C8278.92 1552.6 8285.22 1539.1 8290.62 1526.5C8296.02 1513.9 8302.02 1507.6 8308.62 1507.6H8324.82V1601.2H8430.12C8430.12 1613.8 8428.62 1623.4 8425.62 1630C8423.22 1636 8418.42 1639 8411.22 1639H8324.82V1862.2C8324.82 1881.4 8325.72 1897 8327.52 1909C8329.32 1920.4 8332.02 1929.4 8335.62 1936C8339.22 1942 8343.42 1945.9 8348.22 1947.7C8353.02 1949.5 8358.42 1950.4 8364.42 1950.4C8374.62 1950.4 8383.92 1948.3 8392.32 1944.1C8401.32 1939.3 8409.72 1933.9 8417.52 1927.9ZM8578.3 1981C8568.1 1981 8557.6 1981 8546.8 1981C8536.6 1981.6 8527 1982.2 8518 1982.8C8509 1983.4 8501.2 1984 8494.6 1984.6C8488 1985.2 8483.8 1985.5 8482 1985.5C8482 1984.9 8481.7 1982.8 8481.1 1979.2C8480.5 1975.6 8480.2 1972.9 8480.2 1971.1C8480.2 1965.1 8482.9 1961.5 8488.3 1960.3C8503.9 1957.3 8516.5 1953.7 8526.1 1949.5C8535.7 1945.3 8540.5 1938.4 8540.5 1928.8V1684C8540.5 1666 8537.2 1653.1 8530.6 1645.3C8524.6 1637.5 8511.1 1632.7 8490.1 1630.9C8482.3 1629.7 8478.4 1625.5 8478.4 1618.3C8478.4 1615.3 8479 1611.4 8480.2 1606.6C8488 1606.6 8498.8 1606.3 8512.6 1605.7C8527 1604.5 8538.7 1603.3 8547.7 1602.1C8561.5 1599.7 8573.8 1597.3 8584.6 1594.9C8595.4 1591.9 8603.2 1590.4 8608 1590.4C8616.4 1590.4 8620.6 1594.9 8620.6 1603.9C8620.6 1612.3 8619.7 1622.5 8617.9 1634.5C8616.1 1645.9 8615.2 1661.2 8615.2 1680.4V1928.8C8615.2 1938.4 8619.7 1945.3 8628.7 1949.5C8638.3 1953.7 8651.5 1957.3 8668.3 1960.3C8673.1 1961.5 8675.5 1965.1 8675.5 1971.1C8675.5 1972.9 8675.2 1975.6 8674.6 1979.2C8674.6 1982.8 8674.3 1984.9 8673.7 1985.5C8671.9 1985.5 8667.7 1985.2 8661.1 1984.6C8655.1 1984 8647.6 1983.4 8638.6 1982.8C8629.6 1982.2 8619.7 1981.6 8608.9 1981C8598.7 1981 8588.5 1981 8578.3 1981ZM8526.1 1440.1C8526.1 1425.7 8530.9 1413.4 8540.5 1403.2C8550.7 1392.4 8563.3 1387 8578.3 1387C8592.7 1387 8604.7 1392.4 8614.3 1403.2C8623.9 1413.4 8628.7 1425.7 8628.7 1440.1C8628.7 1455.7 8623.9 1468.3 8614.3 1477.9C8604.7 1487.5 8592.7 1492.3 8578.3 1492.3C8563.3 1492.3 8550.7 1487.5 8540.5 1477.9C8530.9 1468.3 8526.1 1455.7 8526.1 1440.1ZM8728.99 1791.1C8728.99 1763.5 8734.09 1737.4 8744.29 1712.8C8755.09 1688.2 8769.49 1666.9 8787.49 1648.9C8805.49 1630.9 8826.49 1616.8 8850.49 1606.6C8875.09 1595.8 8901.49 1590.4 8929.69 1590.4C8959.09 1590.4 8986.09 1595.5 9010.69 1605.7C9035.29 1615.3 9056.29 1628.8 9073.69 1646.2C9091.69 1663.6 9105.49 1684.9 9115.09 1710.1C9125.29 1734.7 9130.39 1761.7 9130.39 1791.1C9130.39 1819.3 9124.99 1845.7 9114.19 1870.3C9103.99 1894.3 9089.89 1915.3 9071.89 1933.3C9053.89 1951.3 9032.59 1965.7 9007.99 1976.5C8983.99 1986.7 8957.89 1991.8 8929.69 1991.8C8900.29 1991.8 8873.29 1987 8848.69 1977.4C8824.09 1967.2 8802.79 1953.4 8784.79 1936C8767.39 1918.6 8753.59 1897.6 8743.39 1873C8733.79 1848.4 8728.99 1821.1 8728.99 1791.1ZM8813.59 1761.4C8813.59 1783.6 8815.99 1806.4 8820.79 1829.8C8825.59 1853.2 8832.79 1874.5 8842.39 1893.7C8852.59 1912.3 8865.49 1927.9 8881.09 1940.5C8896.69 1952.5 8915.59 1958.5 8937.79 1958.5C8971.99 1958.5 8998.39 1946.5 9016.99 1922.5C9036.19 1898.5 9045.79 1867.6 9045.79 1829.8C9045.79 1807.6 9043.39 1784.5 9038.59 1760.5C9034.39 1735.9 9027.19 1713.7 9016.99 1693.9C9007.39 1673.5 8994.49 1656.7 8978.29 1643.5C8962.69 1630.3 8943.19 1623.7 8919.79 1623.7C8887.99 1623.7 8862.19 1634.8 8842.39 1657C8823.19 1678.6 8813.59 1713.4 8813.59 1761.4ZM9588.14 1929.7C9588.14 1938.7 9593.54 1945.6 9604.34 1950.4C9615.14 1954.6 9627.14 1957.9 9640.34 1960.3C9645.74 1961.5 9648.44 1965.1 9648.44 1971.1C9648.44 1974.7 9647.84 1979.5 9646.64 1985.5C9631.04 1984.3 9615.74 1983.1 9600.74 1981.9C9585.74 1981.3 9569.54 1981 9552.14 1981C9535.94 1981 9519.74 1981.3 9503.54 1981.9C9487.94 1983.1 9472.34 1984.3 9456.74 1985.5C9455.54 1979.5 9454.94 1974.7 9454.94 1971.1C9454.94 1965.1 9457.64 1961.5 9463.04 1960.3C9475.64 1957.9 9487.04 1954.6 9497.24 1950.4C9507.44 1945.6 9512.54 1938.7 9512.54 1929.7V1753.3C9512.54 1738.3 9511.64 1724.5 9509.84 1711.9C9508.04 1699.3 9504.44 1688.5 9499.04 1679.5C9494.24 1669.9 9487.34 1662.7 9478.34 1657.9C9469.94 1652.5 9458.84 1649.8 9445.04 1649.8C9430.04 1649.8 9415.34 1652.5 9400.94 1657.9C9386.54 1662.7 9373.64 1670.2 9362.24 1680.4C9351.44 1690 9342.74 1702 9336.14 1716.4C9329.54 1730.8 9326.24 1747.3 9326.24 1765.9V1929.7C9326.24 1938.7 9331.34 1945.6 9341.54 1950.4C9352.34 1954.6 9363.74 1957.9 9375.74 1960.3C9381.14 1961.5 9383.84 1965.1 9383.84 1971.1C9383.84 1974.7 9383.24 1979.5 9382.04 1985.5C9366.44 1984.3 9351.14 1983.1 9336.14 1981.9C9321.14 1981.3 9305.24 1981 9288.44 1981C9271.04 1981 9254.54 1981.3 9238.94 1981.9C9223.34 1983.1 9208.04 1984.3 9193.04 1985.5C9191.84 1979.5 9191.24 1974.7 9191.24 1971.1C9191.24 1965.1 9193.94 1961.5 9199.34 1960.3C9212.54 1957.9 9224.54 1954.6 9235.34 1950.4C9246.14 1945.6 9251.54 1938.4 9251.54 1928.8V1684C9251.54 1666 9248.24 1653.1 9241.64 1645.3C9235.64 1637.5 9222.14 1632.7 9201.14 1630.9C9193.34 1629.7 9189.44 1625.5 9189.44 1618.3C9189.44 1615.3 9190.04 1611.4 9191.24 1606.6C9199.04 1606.6 9209.84 1606.3 9223.64 1605.7C9238.04 1604.5 9249.74 1603.3 9258.74 1602.1C9272.54 1599.7 9284.84 1597.3 9295.64 1594.9C9306.44 1591.9 9314.24 1590.4 9319.04 1590.4C9327.44 1590.4 9331.64 1594.9 9331.64 1603.9C9331.64 1612.3 9330.74 1622.5 9328.94 1634.5C9327.14 1645.9 9326.24 1661.2 9326.24 1680.4C9352.04 1651.6 9376.64 1629.4 9400.04 1613.8C9424.04 1598.2 9450.14 1590.4 9478.34 1590.4C9514.94 1590.4 9542.24 1601.2 9560.24 1622.8C9578.84 1643.8 9588.14 1673.2 9588.14 1711V1929.7ZM10077.2 1956.7C10083.8 1956.7 10087.4 1963 10088 1975.6C10072.4 1986.4 10052.6 1991.8 10028.6 1991.8C10015.4 1991.8 10004 1989.7 9994.42 1985.5C9984.82 1981.9 9976.72 1976.8 9970.12 1970.2C9963.52 1963.6 9958.42 1956.1 9954.82 1947.7C9951.22 1939.3 9948.82 1930.6 9947.62 1921.6C9932.62 1948.6 9914.62 1967.2 9893.62 1977.4C9873.22 1987 9849.52 1991.8 9822.52 1991.8C9810.52 1991.8 9797.62 1990.6 9783.82 1988.2C9770.62 1986.4 9758.02 1982.2 9746.02 1975.6C9734.02 1969 9724.12 1959.7 9716.32 1947.7C9708.52 1935.7 9704.62 1919.8 9704.62 1900C9704.62 1877.8 9709.72 1859.2 9719.92 1844.2C9730.72 1828.6 9744.22 1816 9760.42 1806.4C9777.22 1796.2 9795.22 1788.1 9814.42 1782.1C9834.22 1776.1 9853.12 1771 9871.12 1766.8C9881.32 1765 9890.62 1763.2 9899.02 1761.4C9908.02 1759 9915.82 1756.6 9922.42 1754.2C9930.82 1751.8 9935.92 1748.5 9937.72 1744.3C9940.12 1740.1 9941.32 1732 9941.32 1720C9941.32 1691.8 9935.92 1668.7 9925.12 1650.7C9914.32 1632.1 9895.12 1622.8 9867.52 1622.8C9857.32 1622.8 9848.62 1624 9841.42 1626.4C9834.22 1628.8 9828.22 1632.7 9823.42 1638.1C9818.62 1642.9 9814.42 1649.5 9810.82 1657.9C9807.22 1666.3 9803.62 1676.2 9800.02 1687.6C9798.22 1694.2 9794.02 1699 9787.42 1702C9781.42 1705 9770.92 1708.6 9755.92 1712.8C9752.32 1714 9747.82 1715.2 9742.42 1716.4C9737.02 1717.6 9732.52 1718.2 9728.92 1718.2C9722.92 1718.2 9719.92 1711.9 9719.92 1699.3C9719.92 1686.1 9725.02 1672.9 9735.22 1659.7C9745.42 1646.5 9758.32 1634.8 9773.92 1624.6C9790.12 1614.4 9807.52 1606.3 9826.12 1600.3C9844.72 1593.7 9862.42 1590.4 9879.22 1590.4C9900.22 1590.4 9919.12 1592.2 9935.92 1595.8C9952.72 1599.4 9967.12 1606 9979.12 1615.6C9991.12 1625.2 10000.1 1638.1 10006.1 1654.3C10012.7 1670.5 10016 1691.5 10016 1717.3V1872.1C10016 1893.1 10016.6 1908.4 10017.8 1918C10019.6 1927 10022 1934.2 10025 1939.6C10029.2 1948 10033.7 1953.7 10038.5 1956.7C10043.9 1959.1 10049.3 1960.3 10054.7 1960.3C10061.3 1960.3 10065.8 1959.7 10068.2 1958.5C10071.2 1957.3 10074.2 1956.7 10077.2 1956.7ZM9941.32 1781.2L9912.52 1785.7C9896.92 1788.7 9881.62 1792.3 9866.62 1796.5C9852.22 1800.7 9839.32 1806.7 9827.92 1814.5C9816.52 1821.7 9807.22 1831 9800.02 1842.4C9793.42 1853.8 9790.12 1867.9 9790.12 1884.7C9790.12 1907.5 9795.82 1924.9 9807.22 1936.9C9819.22 1948.9 9833.92 1954.9 9851.32 1954.9C9862.72 1954.9 9873.82 1952.5 9884.62 1947.7C9896.02 1942.3 9905.62 1935.1 9913.42 1926.1C9921.82 1916.5 9928.42 1905.4 9933.22 1892.8C9938.62 1880.2 9941.32 1866.4 9941.32 1851.4V1781.2ZM10323.5 1985.5C10307.9 1984.3 10292 1983.1 10275.8 1981.9C10259.6 1981.3 10243.4 1981 10227.2 1981C10211 1981 10194.2 1981.3 10176.8 1981.9C10160 1983.1 10144.1 1984.3 10129.1 1985.5C10127.9 1979.5 10127.3 1974.7 10127.3 1971.1C10127.3 1965.1 10130 1961.5 10135.4 1960.3C10148.6 1957.9 10160.9 1954.6 10172.3 1950.4C10183.7 1945.6 10189.4 1938.4 10189.4 1928.8V1444.6C10189.4 1425.4 10185.5 1412.5 10177.7 1405.9C10170.5 1398.7 10156.4 1394.2 10135.4 1392.4C10127.6 1391.2 10123.7 1387 10123.7 1379.8C10123.7 1376.2 10124.3 1372 10125.5 1367.2C10133.3 1367.2 10144.1 1366.9 10157.9 1366.3C10171.7 1365.1 10184.3 1363.9 10195.7 1362.7C10209.5 1360.9 10221.8 1358.5 10232.6 1355.5C10243.4 1352.5 10251.2 1351 10256 1351C10261.4 1351 10265 1352.2 10266.8 1354.6C10268.6 1357 10269.5 1360.3 10269.5 1364.5C10269.5 1374.7 10268.6 1386.7 10266.8 1400.5C10265 1413.7 10264.1 1429.3 10264.1 1447.3V1928.8C10264.1 1938.4 10269.5 1945.6 10280.3 1950.4C10291.7 1954.6 10304.3 1957.9 10318.1 1960.3C10322.9 1961.5 10325.3 1965.1 10325.3 1971.1C10325.3 1974.7 10324.7 1979.5 10323.5 1985.5ZM10736.8 1727.2V1911.7C10736.8 1925.5 10743.4 1935.4 10756.6 1941.4C10769.8 1946.8 10789.6 1951.3 10816 1954.9C10823.2 1956.1 10826.8 1961.2 10826.8 1970.2C10826.8 1974.4 10826.2 1979.5 10825 1985.5C10807.6 1984.3 10787.8 1983.1 10765.6 1981.9C10743.4 1981.3 10719.4 1981 10693.6 1981C10678 1981 10660.3 1981.3 10640.5 1981.9C10620.7 1983.1 10602.1 1984.3 10584.7 1985.5C10583.5 1979.5 10582.9 1974.7 10582.9 1971.1C10582.9 1962.7 10585.9 1957.9 10591.9 1956.7C10615.9 1951.9 10631.8 1947.4 10639.6 1943.2C10648 1938.4 10652.2 1930 10652.2 1918V1459.9C10652.2 1447.9 10647.4 1439.2 10637.8 1433.8C10628.8 1428.4 10612.3 1424.2 10588.3 1421.2C10582.3 1420 10579.3 1414.6 10579.3 1405C10579.3 1400.8 10579.9 1396.3 10581.1 1391.5C10597.9 1392.7 10615.6 1393.9 10634.2 1395.1C10653.4 1395.7 10671.4 1396 10688.2 1396H10815.1C10879.9 1396 10928.5 1411.3 10960.9 1441.9C10993.3 1472.5 11009.5 1512.1 11009.5 1560.7C11009.5 1579.9 11005 1599.4 10996 1619.2C10987.6 1639 10975 1657 10958.2 1673.2C10942 1688.8 10921.6 1701.7 10897 1711.9C10873 1722.1 10845.7 1727.2 10815.1 1727.2H10736.8ZM10784.5 1690.3C10826.5 1690.3 10858.9 1681 10881.7 1662.4C10904.5 1643.8 10915.9 1612.3 10915.9 1567.9C10915.9 1549.3 10913.8 1531.9 10909.6 1515.7C10905.4 1499.5 10898.2 1485.4 10888 1473.4C10877.8 1460.8 10864.3 1450.9 10847.5 1443.7C10830.7 1436.5 10809.7 1432.9 10784.5 1432.9H10736.8V1690.3H10784.5ZM11294.4 1591.3C11311.8 1591.3 11324.7 1595.5 11333.1 1603.9C11341.5 1612.3 11345.7 1621.6 11345.7 1631.8C11345.7 1635.4 11345.1 1638.7 11343.9 1641.7C11342.7 1644.7 11339.7 1648 11334.9 1651.6C11330.7 1654.6 11324.4 1658.5 11316 1663.3C11308.2 1667.5 11297.1 1672.9 11282.7 1679.5C11277.3 1672.9 11270.7 1667.2 11262.9 1662.4C11255.7 1657.6 11247.6 1655.2 11238.6 1655.2C11228.4 1655.2 11219.1 1658.2 11210.7 1664.2C11202.3 1669.6 11195.1 1677.4 11189.1 1687.6C11183.1 1697.2 11178.3 1708.6 11174.7 1721.8C11171.7 1734.4 11170.2 1747.6 11170.2 1761.4V1916.2C11170.2 1929.4 11177.1 1939.3 11190.9 1945.9C11204.7 1951.9 11224.5 1956.7 11250.3 1960.3C11256.3 1961.5 11259.3 1965.1 11259.3 1971.1C11259.3 1974.7 11258.7 1979.5 11257.5 1985.5C11250.9 1984.9 11242.5 1984.3 11232.3 1983.7C11222.7 1983.7 11212.5 1983.4 11201.7 1982.8C11190.9 1982.2 11179.8 1981.6 11168.4 1981C11157 1981 11146.5 1981 11136.9 1981C11120.7 1981 11103.9 1981.3 11086.5 1981.9C11069.1 1983.1 11052.6 1984.3 11037 1985.5C11035.8 1979.5 11035.2 1974.7 11035.2 1971.1C11035.2 1965.1 11037.9 1961.5 11043.3 1960.3C11057.1 1957.9 11069.1 1954.3 11079.3 1949.5C11090.1 1944.7 11095.5 1937.8 11095.5 1928.8V1700.2C11095.5 1687.6 11094.6 1677.1 11092.8 1668.7C11091.6 1660.3 11089.2 1653.7 11085.6 1648.9C11082 1643.5 11076.6 1639.6 11069.4 1637.2C11062.8 1634.8 11054.1 1633 11043.3 1631.8C11035.5 1630.6 11031.6 1626.7 11031.6 1620.1C11031.6 1616.5 11032.2 1612.3 11033.4 1607.5C11041.2 1607.5 11052 1607.2 11065.8 1606.6C11080.2 1605.4 11091.9 1604.2 11100.9 1603C11114.1 1600.6 11125.5 1598.2 11135.1 1595.8C11145.3 1592.8 11152.8 1591.3 11157.6 1591.3C11166 1591.3 11170.2 1595.8 11170.2 1604.8V1665.1C11189.4 1644.1 11208.6 1626.7 11227.8 1612.9C11247.6 1598.5 11269.8 1591.3 11294.4 1591.3ZM11356 1791.1C11356 1763.5 11361.1 1737.4 11371.3 1712.8C11382.1 1688.2 11396.5 1666.9 11414.5 1648.9C11432.5 1630.9 11453.5 1616.8 11477.5 1606.6C11502.1 1595.8 11528.5 1590.4 11556.7 1590.4C11586.1 1590.4 11613.1 1595.5 11637.7 1605.7C11662.3 1615.3 11683.3 1628.8 11700.7 1646.2C11718.7 1663.6 11732.5 1684.9 11742.1 1710.1C11752.3 1734.7 11757.4 1761.7 11757.4 1791.1C11757.4 1819.3 11752 1845.7 11741.2 1870.3C11731 1894.3 11716.9 1915.3 11698.9 1933.3C11680.9 1951.3 11659.6 1965.7 11635 1976.5C11611 1986.7 11584.9 1991.8 11556.7 1991.8C11527.3 1991.8 11500.3 1987 11475.7 1977.4C11451.1 1967.2 11429.8 1953.4 11411.8 1936C11394.4 1918.6 11380.6 1897.6 11370.4 1873C11360.8 1848.4 11356 1821.1 11356 1791.1ZM11440.6 1761.4C11440.6 1783.6 11443 1806.4 11447.8 1829.8C11452.6 1853.2 11459.8 1874.5 11469.4 1893.7C11479.6 1912.3 11492.5 1927.9 11508.1 1940.5C11523.7 1952.5 11542.6 1958.5 11564.8 1958.5C11599 1958.5 11625.4 1946.5 11644 1922.5C11663.2 1898.5 11672.8 1867.6 11672.8 1829.8C11672.8 1807.6 11670.4 1784.5 11665.6 1760.5C11661.4 1735.9 11654.2 1713.7 11644 1693.9C11634.4 1673.5 11621.5 1656.7 11605.3 1643.5C11589.7 1630.3 11570.2 1623.7 11546.8 1623.7C11515 1623.7 11489.2 1634.8 11469.4 1657C11450.2 1678.6 11440.6 1713.4 11440.6 1761.4ZM11873.2 1962.1C11847.4 1947.1 11834.5 1925.5 11834.5 1897.3C11834.5 1867.3 11854.3 1842.7 11893.9 1823.5C11877.1 1813.3 11863.6 1799.8 11853.4 1783C11843.8 1765.6 11839 1744.3 11839 1719.1C11839 1702.3 11842.9 1686.1 11850.7 1670.5C11859.1 1654.9 11870.2 1641.1 11884 1629.1C11897.8 1617.1 11913.4 1607.8 11930.8 1601.2C11948.8 1594 11967.7 1590.4 11987.5 1590.4C12017.5 1590.4 12041.5 1594 12059.5 1601.2C12077.5 1608.4 12093.1 1617.4 12106.3 1628.2L12195.4 1589.5C12202 1593.7 12206.8 1599.4 12209.8 1606.6C12212.8 1613.2 12214.3 1619.5 12214.3 1625.5C12214.3 1638.7 12209.8 1645.3 12200.8 1645.3L12168.4 1644.4C12157 1644.4 12143.2 1646.2 12127 1649.8C12141.4 1668.4 12148.6 1691.2 12148.6 1718.2C12148.6 1736.8 12144.4 1753.9 12136 1769.5C12127.6 1785.1 12116.2 1798.6 12101.8 1810C12087.4 1820.8 12070.3 1829.5 12050.5 1836.1C12030.7 1842.1 12009.7 1845.1 11987.5 1845.1C11974.9 1845.1 11962.9 1844.5 11951.5 1843.3C11940.1 1841.5 11929.3 1838.8 11919.1 1835.2C11903.5 1842.4 11892.7 1849.6 11886.7 1856.8C11880.7 1864 11877.7 1870.9 11877.7 1877.5C11877.7 1882.3 11879.2 1887.1 11882.2 1891.9C11885.2 1896.1 11890.6 1900 11898.4 1903.6C11906.8 1906.6 11918.2 1909.3 11932.6 1911.7C11947.6 1913.5 11966.5 1914.4 11989.3 1914.4C12016.3 1914.4 12041.8 1916.5 12065.8 1920.7C12089.8 1924.9 12110.8 1931.8 12128.8 1941.4C12147.4 1951 12161.8 1963.6 12172 1979.2C12182.8 1994.8 12188.2 2013.7 12188.2 2035.9C12188.2 2060.5 12183.1 2082.7 12172.9 2102.5C12163.3 2122.3 12149.5 2139.1 12131.5 2152.9C12114.1 2167.3 12092.8 2178.1 12067.6 2185.3C12043 2193.1 12016 2197 11986.6 2197C11930.2 2197 11886.1 2186.8 11854.3 2166.4C11822.5 2146 11806.6 2113.3 11806.6 2068.3C11806.6 2055.1 11808.7 2042.8 11812.9 2031.4C11817.1 2020.6 11822.2 2010.7 11828.2 2001.7C11834.8 1992.7 11842 1984.9 11849.8 1978.3C11858.2 1971.7 11866 1966.3 11873.2 1962.1ZM11894.8 1972.9C11880.4 1986.7 11872.3 2004.1 11870.5 2025.1C11869.9 2029.9 11869.6 2034.7 11869.6 2039.5C11869.6 2044.3 11869.6 2049.4 11869.6 2054.8C11870.2 2067.4 11873.5 2080 11879.5 2092.6C11885.5 2105.2 11894.2 2116.3 11905.6 2125.9C11917 2135.5 11931.1 2143.3 11947.9 2149.3C11964.7 2155.3 11984.2 2158.3 12006.4 2158.3C12047.8 2158.3 12077.8 2149 12096.4 2130.4C12115.6 2112.4 12125.2 2089.9 12125.2 2062.9C12125.2 2051.5 12122.8 2041 12118 2031.4C12113.2 2021.8 12105.1 2013.4 12093.7 2006.2C12082.3 1999.6 12067.3 1994.2 12048.7 1990C12030.1 1986.4 12007 1984.6 11979.4 1984.6C11963.8 1984.6 11948.5 1983.7 11933.5 1981.9C11919.1 1980.1 11906.2 1977.1 11894.8 1972.9ZM11996.5 1813.6C12018.7 1813.6 12036.4 1806.4 12049.6 1792C12062.8 1777.6 12069.4 1757.8 12069.4 1732.6C12069.4 1719.4 12067.9 1706.5 12064.9 1693.9C12062.5 1680.7 12058 1669 12051.4 1658.8C12044.8 1648 12035.8 1639.3 12024.4 1632.7C12013.6 1626.1 11999.8 1622.8 11983 1622.8C11962 1622.8 11945.2 1629.7 11932.6 1643.5C11920.6 1657.3 11914.6 1676.2 11914.6 1700.2C11914.6 1714 11915.8 1727.8 11918.2 1741.6C11921.2 1754.8 11925.7 1766.8 11931.7 1777.6C11938.3 1788.4 11946.7 1797.1 11956.9 1803.7C11967.7 1810.3 11980.9 1813.6 11996.5 1813.6ZM12513.4 1591.3C12530.8 1591.3 12543.7 1595.5 12552.1 1603.9C12560.5 1612.3 12564.7 1621.6 12564.7 1631.8C12564.7 1635.4 12564.1 1638.7 12562.9 1641.7C12561.7 1644.7 12558.7 1648 12553.9 1651.6C12549.7 1654.6 12543.4 1658.5 12535 1663.3C12527.2 1667.5 12516.1 1672.9 12501.7 1679.5C12496.3 1672.9 12489.7 1667.2 12481.9 1662.4C12474.7 1657.6 12466.6 1655.2 12457.6 1655.2C12447.4 1655.2 12438.1 1658.2 12429.7 1664.2C12421.3 1669.6 12414.1 1677.4 12408.1 1687.6C12402.1 1697.2 12397.3 1708.6 12393.7 1721.8C12390.7 1734.4 12389.2 1747.6 12389.2 1761.4V1916.2C12389.2 1929.4 12396.1 1939.3 12409.9 1945.9C12423.7 1951.9 12443.5 1956.7 12469.3 1960.3C12475.3 1961.5 12478.3 1965.1 12478.3 1971.1C12478.3 1974.7 12477.7 1979.5 12476.5 1985.5C12469.9 1984.9 12461.5 1984.3 12451.3 1983.7C12441.7 1983.7 12431.5 1983.4 12420.7 1982.8C12409.9 1982.2 12398.8 1981.6 12387.4 1981C12376 1981 12365.5 1981 12355.9 1981C12339.7 1981 12322.9 1981.3 12305.5 1981.9C12288.1 1983.1 12271.6 1984.3 12256 1985.5C12254.8 1979.5 12254.2 1974.7 12254.2 1971.1C12254.2 1965.1 12256.9 1961.5 12262.3 1960.3C12276.1 1957.9 12288.1 1954.3 12298.3 1949.5C12309.1 1944.7 12314.5 1937.8 12314.5 1928.8V1700.2C12314.5 1687.6 12313.6 1677.1 12311.8 1668.7C12310.6 1660.3 12308.2 1653.7 12304.6 1648.9C12301 1643.5 12295.6 1639.6 12288.4 1637.2C12281.8 1634.8 12273.1 1633 12262.3 1631.8C12254.5 1630.6 12250.6 1626.7 12250.6 1620.1C12250.6 1616.5 12251.2 1612.3 12252.4 1607.5C12260.2 1607.5 12271 1607.2 12284.8 1606.6C12299.2 1605.4 12310.9 1604.2 12319.9 1603C12333.1 1600.6 12344.5 1598.2 12354.1 1595.8C12364.3 1592.8 12371.8 1591.3 12376.6 1591.3C12385 1591.3 12389.2 1595.8 12389.2 1604.8V1665.1C12408.4 1644.1 12427.6 1626.7 12446.8 1612.9C12466.6 1598.5 12488.8 1591.3 12513.4 1591.3ZM12954.8 1956.7C12961.4 1956.7 12965 1963 12965.6 1975.6C12950 1986.4 12930.2 1991.8 12906.2 1991.8C12893 1991.8 12881.6 1989.7 12872 1985.5C12862.4 1981.9 12854.3 1976.8 12847.7 1970.2C12841.1 1963.6 12836 1956.1 12832.4 1947.7C12828.8 1939.3 12826.4 1930.6 12825.2 1921.6C12810.2 1948.6 12792.2 1967.2 12771.2 1977.4C12750.8 1987 12727.1 1991.8 12700.1 1991.8C12688.1 1991.8 12675.2 1990.6 12661.4 1988.2C12648.2 1986.4 12635.6 1982.2 12623.6 1975.6C12611.6 1969 12601.7 1959.7 12593.9 1947.7C12586.1 1935.7 12582.2 1919.8 12582.2 1900C12582.2 1877.8 12587.3 1859.2 12597.5 1844.2C12608.3 1828.6 12621.8 1816 12638 1806.4C12654.8 1796.2 12672.8 1788.1 12692 1782.1C12711.8 1776.1 12730.7 1771 12748.7 1766.8C12758.9 1765 12768.2 1763.2 12776.6 1761.4C12785.6 1759 12793.4 1756.6 12800 1754.2C12808.4 1751.8 12813.5 1748.5 12815.3 1744.3C12817.7 1740.1 12818.9 1732 12818.9 1720C12818.9 1691.8 12813.5 1668.7 12802.7 1650.7C12791.9 1632.1 12772.7 1622.8 12745.1 1622.8C12734.9 1622.8 12726.2 1624 12719 1626.4C12711.8 1628.8 12705.8 1632.7 12701 1638.1C12696.2 1642.9 12692 1649.5 12688.4 1657.9C12684.8 1666.3 12681.2 1676.2 12677.6 1687.6C12675.8 1694.2 12671.6 1699 12665 1702C12659 1705 12648.5 1708.6 12633.5 1712.8C12629.9 1714 12625.4 1715.2 12620 1716.4C12614.6 1717.6 12610.1 1718.2 12606.5 1718.2C12600.5 1718.2 12597.5 1711.9 12597.5 1699.3C12597.5 1686.1 12602.6 1672.9 12612.8 1659.7C12623 1646.5 12635.9 1634.8 12651.5 1624.6C12667.7 1614.4 12685.1 1606.3 12703.7 1600.3C12722.3 1593.7 12740 1590.4 12756.8 1590.4C12777.8 1590.4 12796.7 1592.2 12813.5 1595.8C12830.3 1599.4 12844.7 1606 12856.7 1615.6C12868.7 1625.2 12877.7 1638.1 12883.7 1654.3C12890.3 1670.5 12893.6 1691.5 12893.6 1717.3V1872.1C12893.6 1893.1 12894.2 1908.4 12895.4 1918C12897.2 1927 12899.6 1934.2 12902.6 1939.6C12906.8 1948 12911.3 1953.7 12916.1 1956.7C12921.5 1959.1 12926.9 1960.3 12932.3 1960.3C12938.9 1960.3 12943.4 1959.7 12945.8 1958.5C12948.8 1957.3 12951.8 1956.7 12954.8 1956.7ZM12818.9 1781.2L12790.1 1785.7C12774.5 1788.7 12759.2 1792.3 12744.2 1796.5C12729.8 1800.7 12716.9 1806.7 12705.5 1814.5C12694.1 1821.7 12684.8 1831 12677.6 1842.4C12671 1853.8 12667.7 1867.9 12667.7 1884.7C12667.7 1907.5 12673.4 1924.9 12684.8 1936.9C12696.8 1948.9 12711.5 1954.9 12728.9 1954.9C12740.3 1954.9 12751.4 1952.5 12762.2 1947.7C12773.6 1942.3 12783.2 1935.1 12791 1926.1C12799.4 1916.5 12806 1905.4 12810.8 1892.8C12816.2 1880.2 12818.9 1866.4 12818.9 1851.4V1781.2ZM13387.4 1681.3C13389.8 1679.5 13395.2 1673.8 13403.6 1664.2C13412 1654.6 13422.8 1644.4 13436 1633.6C13449.8 1622.8 13465.4 1612.9 13482.8 1603.9C13500.8 1594.9 13520 1590.4 13540.4 1590.4C13576.4 1590.4 13601.9 1601.2 13616.9 1622.8C13631.9 1643.8 13639.4 1673.2 13639.4 1711V1929.7C13639.4 1938.7 13644.8 1945.6 13655.6 1950.4C13666.4 1954.6 13678.4 1957.9 13691.6 1960.3C13697 1961.5 13699.7 1965.1 13699.7 1971.1C13699.7 1974.7 13699.1 1979.5 13697.9 1985.5C13682.3 1984.3 13667 1983.1 13652 1981.9C13637 1981.3 13620.8 1981 13603.4 1981C13587.8 1981 13571.9 1981.3 13555.7 1981.9C13539.5 1983.1 13523.9 1984.3 13508.9 1985.5C13507.7 1979.5 13507.1 1974.7 13507.1 1971.1C13507.1 1965.1 13509.8 1961.5 13515.2 1960.3C13520.6 1959.7 13526 1958.5 13531.4 1956.7C13537.4 1954.9 13542.8 1952.8 13547.6 1950.4C13552.4 1948 13556.3 1945.3 13559.3 1942.3C13562.9 1938.7 13564.7 1934.5 13564.7 1929.7V1744.3C13564.7 1707.1 13560.2 1682.2 13551.2 1669.6C13542.2 1656.4 13527.5 1649.8 13507.1 1649.8C13491.5 1649.8 13476.5 1652.5 13462.1 1657.9C13448.3 1662.7 13436 1670.2 13425.2 1680.4C13414.4 1690 13405.7 1702 13399.1 1716.4C13392.5 1730.8 13389.2 1747.3 13389.2 1765.9V1929.7C13389.2 1938.7 13394.3 1945.6 13404.5 1950.4C13414.7 1954.6 13426.1 1957.9 13438.7 1960.3C13444.1 1961.5 13446.8 1965.1 13446.8 1971.1C13446.8 1974.7 13446.2 1979.5 13445 1985.5C13429.4 1984.3 13414.1 1983.1 13399.1 1981.9C13384.7 1981.3 13369.4 1981 13353.2 1981C13337 1981 13320.8 1981.3 13304.6 1981.9C13289 1983.1 13273.4 1984.3 13257.8 1985.5C13256.6 1979.5 13256 1974.7 13256 1971.1C13256 1965.1 13258.7 1961.5 13264.1 1960.3C13274.9 1958.5 13285.7 1955.5 13296.5 1951.3C13307.9 1946.5 13313.6 1939.3 13313.6 1929.7V1744.3C13313.6 1707.1 13309.1 1682.2 13300.1 1669.6C13291.7 1656.4 13277.3 1649.8 13256.9 1649.8C13241.3 1649.8 13226.3 1652.5 13211.9 1657.9C13198.1 1662.7 13185.5 1670.2 13174.1 1680.4C13163.3 1690 13154.6 1702 13148 1716.4C13141.4 1730.8 13138.1 1747.3 13138.1 1765.9V1929.7C13138.1 1938.7 13143.2 1945.6 13153.4 1950.4C13164.2 1954.6 13175.6 1957.9 13187.6 1960.3C13193 1961.5 13195.7 1965.1 13195.7 1971.1C13195.7 1974.7 13195.1 1979.5 13193.9 1985.5C13178.3 1984.3 13163 1983.1 13148 1981.9C13133 1981.3 13117.1 1981 13100.3 1981C13082.9 1981 13066.4 1981.3 13050.8 1981.9C13035.2 1983.1 13019.9 1984.3 13004.9 1985.5C13003.7 1979.5 13003.1 1974.7 13003.1 1971.1C13003.1 1965.1 13005.8 1961.5 13011.2 1960.3C13024.4 1957.9 13036.4 1954.6 13047.2 1950.4C13058 1945.6 13063.4 1938.4 13063.4 1928.8V1684C13063.4 1666 13060.1 1653.1 13053.5 1645.3C13047.5 1637.5 13034 1632.7 13013 1630.9C13005.2 1629.7 13001.3 1625.5 13001.3 1618.3C13001.3 1615.3 13001.9 1611.4 13003.1 1606.6C13010.9 1606.6 13021.7 1606.3 13035.5 1605.7C13049.9 1604.5 13061.6 1603.3 13070.6 1602.1C13084.4 1599.7 13096.7 1597.3 13107.5 1594.9C13118.3 1591.9 13126.1 1590.4 13130.9 1590.4C13139.3 1590.4 13143.5 1594.9 13143.5 1603.9C13143.5 1612.3 13142.6 1622.5 13140.8 1634.5C13139 1645.9 13138.1 1661.2 13138.1 1680.4C13139.9 1678.6 13145 1672.9 13153.4 1663.3C13161.8 1653.7 13172.6 1643.5 13185.8 1632.7C13199.6 1621.9 13215.2 1612.3 13232.6 1603.9C13250 1594.9 13269.2 1590.4 13290.2 1590.4C13321.4 1590.4 13344.5 1598.5 13359.5 1614.7C13375.1 1630.3 13384.4 1652.5 13387.4 1681.3ZM13997.6 1701.1C13992.8 1701.1 13989.2 1700.2 13986.8 1698.4C13985 1696 13983.8 1693.6 13983.2 1691.2C13979 1666.6 13969.1 1649.2 13953.5 1639C13938.5 1628.2 13919.6 1622.8 13896.8 1622.8C13879.4 1622.8 13863.8 1627.9 13850 1638.1C13836.8 1647.7 13830.2 1661.2 13830.2 1678.6C13830.2 1694.2 13836.2 1707.4 13848.2 1718.2C13860.8 1728.4 13883.3 1738.6 13915.7 1748.8C13933.1 1754.2 13949 1760.2 13963.4 1766.8C13978.4 1773.4 13991 1781.5 14001.2 1791.1C14012 1800.1 14020.4 1811.5 14026.4 1825.3C14032.4 1838.5 14035.4 1854.4 14035.4 1873C14035.4 1888.6 14032.4 1903.6 14026.4 1918C14021 1932.4 14012.3 1945 14000.3 1955.8C13988.9 1966.6 13974.2 1975.3 13956.2 1981.9C13938.8 1988.5 13917.8 1991.8 13893.2 1991.8C13874 1991.8 13852.4 1989.4 13828.4 1984.6C13805 1980.4 13783.7 1972.9 13764.5 1962.1C13763.3 1946.5 13762.1 1930.3 13760.9 1913.5C13760.3 1896.1 13760 1878.7 13760 1861.3H13769C13775 1861.3 13780.1 1862.5 13784.3 1864.9C13788.5 1866.7 13790.9 1870 13791.5 1874.8C13793.9 1900 13803.5 1920.4 13820.3 1936C13837.7 1951 13861.7 1958.5 13892.3 1958.5C13916.9 1958.5 13935.8 1953.1 13949 1942.3C13962.2 1930.9 13968.8 1915.6 13968.8 1896.4C13968.8 1876.6 13961.6 1861.6 13947.2 1851.4C13932.8 1840.6 13911.5 1831 13883.3 1822.6C13847.9 1811.8 13820 1797.7 13799.6 1780.3C13779.8 1762.9 13769.9 1737.4 13769.9 1703.8C13769.9 1688.2 13772.9 1673.5 13778.9 1659.7C13784.9 1645.9 13793.3 1633.9 13804.1 1623.7C13814.9 1613.5 13828.1 1605.4 13843.7 1599.4C13859.3 1593.4 13876.7 1590.4 13895.9 1590.4C13919.9 1590.4 13942.4 1593.7 13963.4 1600.3C13985 1606.3 14001.8 1612.9 14013.8 1620.1C14014.4 1624.9 14015 1630.9 14015.6 1638.1C14016.2 1644.7 14016.5 1651.9 14016.5 1659.7C14017.1 1666.9 14017.4 1674.4 14017.4 1682.2C14018 1689.4 14018.3 1696 14018.3 1702L13997.6 1701.1Z" fill="white"/>
<path d="M1677.57 1356C1677.57 1432 1668.9 1501.33 1651.57 1564C1634.24 1625.33 1604.9 1678.67 1563.57 1724C1523.57 1769.33 1470.24 1804.67 1403.57 1830C1336.9 1854 1253.57 1866 1153.57 1866C1038.9 1866 946.237 1852 875.57 1824C804.904 1794.67 750.237 1756.67 711.57 1710C674.237 1663.33 648.904 1610 635.57 1550C623.57 1488.67 617.57 1426.67 617.57 1364V684C617.57 657.333 608.237 638 589.57 626C570.904 614 535.57 604.667 483.57 598C470.237 596.667 463.57 585.333 463.57 564C463.57 556 464.904 545.333 467.57 532C507.57 534.667 548.237 537.333 589.57 540C632.237 541.333 672.904 542 711.57 542C746.237 542 786.904 541.333 833.57 540C880.237 537.333 923.57 534.667 963.57 532C966.237 545.333 967.57 556 967.57 564C967.57 585.333 960.904 596.667 947.57 598C896.904 604.667 860.237 614 837.57 626C816.237 638 805.57 657.333 805.57 684V1320C805.57 1458.67 832.904 1565.33 887.57 1640C943.57 1713.33 1037.57 1750 1169.57 1750C1244.24 1750 1307.57 1742 1359.57 1726C1411.57 1708.67 1454.24 1682.67 1487.57 1648C1520.9 1613.33 1544.9 1568.67 1559.57 1514C1574.24 1458 1581.57 1391.33 1581.57 1314V684C1581.57 657.333 1571.57 638 1551.57 626C1531.57 614 1495.57 604.667 1443.57 598C1428.9 596.667 1421.57 585.333 1421.57 564C1421.57 556 1422.9 545.333 1425.57 532C1464.24 534.667 1501.57 537.333 1537.57 540C1574.9 541.333 1606.9 542 1633.57 542C1665.57 542 1697.57 541.333 1729.57 540C1762.9 537.333 1795.57 534.667 1827.57 532C1830.24 545.333 1831.57 556 1831.57 564C1831.57 570.667 1829.57 578 1825.57 586C1821.57 592.667 1816.24 596.667 1809.57 598C1760.24 603.333 1725.57 612.667 1705.57 626C1686.9 638 1677.57 657.333 1677.57 684V1356ZM2979.05 702C2984.39 687.333 2987.05 674 2987.05 662C2987.05 643.333 2977.72 629.333 2959.05 620C2940.39 610.667 2910.39 603.333 2869.05 598C2853.05 596.667 2845.05 585.333 2845.05 564C2845.05 557.333 2845.72 551.333 2847.05 546C2847.05 542 2847.72 537.333 2849.05 532C2851.72 532 2860.39 532.667 2875.05 534C2889.72 535.333 2907.05 536.667 2927.05 538C2948.39 539.333 2971.05 540.667 2995.05 542C3019.05 542 3041.72 542 3063.05 542C3107.05 542 3147.05 540.667 3183.05 538C3220.39 535.333 3242.39 533.333 3249.05 532C3249.05 536 3249.72 540.667 3251.05 546C3251.05 550 3251.05 554 3251.05 558C3252.39 560.667 3253.05 563.333 3253.05 566C3253.05 587.333 3245.72 599.333 3231.05 602C3188.39 604.667 3157.05 611.333 3137.05 622C3117.05 632.667 3101.72 650.667 3091.05 676L2597.05 1864C2594.39 1864 2591.05 1864 2587.05 1864C2584.39 1865.33 2581.72 1866 2579.05 1866C2564.39 1866 2552.39 1854.67 2543.05 1832L2073.05 666C2065.05 647.333 2051.72 633.333 2033.05 624C2014.39 614.667 1981.05 606.667 1933.05 600C1918.39 598.667 1911.05 586.667 1911.05 564C1911.05 553.333 1912.39 542.667 1915.05 532C1955.05 534.667 1998.39 537.333 2045.05 540C2091.72 541.333 2132.39 542 2167.05 542C2200.39 542 2241.05 541.333 2289.05 540C2337.05 537.333 2381.72 534.667 2423.05 532C2425.72 545.333 2427.05 556 2427.05 564C2427.05 584 2419.05 595.333 2403.05 598C2324.39 606 2285.05 627.333 2285.05 662C2285.05 671.333 2286.39 680 2289.05 688L2629.05 1558L2979.05 702ZM3870.38 1366H3424.38L3296.38 1688C3289.72 1704 3286.38 1717.33 3286.38 1728C3286.38 1756 3327.05 1776 3408.38 1788C3417.72 1789.33 3423.72 1793.33 3426.38 1800C3430.38 1805.33 3432.38 1812 3432.38 1820C3432.38 1828 3431.05 1838.67 3428.38 1852C3392.38 1849.33 3354.38 1846.67 3314.38 1844C3274.38 1842.67 3235.05 1842 3196.38 1842C3169.72 1842 3142.38 1842.67 3114.38 1844C3086.38 1845.33 3057.05 1848 3026.38 1852C3023.72 1841.33 3022.38 1830.67 3022.38 1820C3022.38 1810.67 3023.72 1802.67 3026.38 1796C3030.38 1789.33 3037.72 1785.33 3048.38 1784C3089.72 1777.33 3120.38 1769.33 3140.38 1760C3161.72 1749.33 3177.05 1733.33 3186.38 1712L3668.38 552C3677.72 529.333 3690.38 518 3706.38 518C3711.72 518 3719.72 519.333 3730.38 522L4214.38 1718C4222.38 1736.67 4240.38 1751.33 4268.38 1762C4296.38 1772.67 4323.72 1780 4350.38 1784C4358.38 1786.67 4364.38 1790.67 4368.38 1796C4373.72 1800 4376.38 1808 4376.38 1820C4376.38 1828 4375.05 1838.67 4372.38 1852C4329.72 1849.33 4287.72 1846.67 4246.38 1844C4205.05 1842.67 4166.38 1842 4130.38 1842C4093.05 1842 4050.38 1842.67 4002.38 1844C3954.38 1846.67 3911.05 1849.33 3872.38 1852C3869.72 1838.67 3868.38 1828 3868.38 1820C3868.38 1808 3870.38 1800 3874.38 1796C3879.72 1790.67 3884.38 1788 3888.38 1788C3923.05 1781.33 3951.05 1774 3972.38 1766C3993.72 1756.67 4004.38 1743.33 4004.38 1726C4004.38 1718 4001.72 1708 3996.38 1696L3870.38 1366ZM3838.38 1284L3652.38 794L3458.38 1284H3838.38Z" fill="white"/>
<path d="M4901 0V2342.5" stroke="white" stroke-width="30"/>
</svg>
