<svg width="17411" height="2343" viewBox="0 0 17411 2343" fill="none" xmlns="http://www.w3.org/2000/svg">
<path d="M937.136 147.5C585.499 147.5 279.099 342.901 118.829 632.073H1755.52C1595.12 342.901 1288.67 147.5 937.072 147.5H937.136ZM0.177072 686.443V973.172H385.187L851.198 686.443H0.177072ZM1045.07 686.443L1486.89 973.172H1874.17V686.443H1045.07ZM949.878 689.313L488.662 973.172H1387.29L949.878 689.313ZM0.264961 1027.53V1097.67H19.3384L28.284 1074.2L34.6134 1054.54L48.6228 1097.67H93.859L57.2257 1124.38L71.2338 1167.42L34.6082 1140.8L0.260051 1165.77L0.00683594 1333.1L0.260025 1797.07H246.274L260.284 1754.27L223.573 1727.6H268.809L282.819 1684.47L296.828 1727.6H342.146L305.435 1754.27L319.36 1797.07H368.9V1027.52L0.264961 1027.53ZM422.732 1027.53V1796.98H579.202V1027.53H422.732ZM633.047 1027.53V1796.98H799.896V1027.53H633.047ZM853.819 1027.53V1796.98H1020.58V1027.53H853.819ZM1295.03 1027.53V1796.98H1456.64V1027.53H1295.03ZM1510.49 1027.53V1797.07H1874.06V1335.06L1840.04 1359.7L1854.14 1402.83L1817.51 1376.16L1780.8 1402.83L1794.81 1359.7L1758.18 1333.12H1803.42L1817.51 1289.98L1831.44 1333.12H1874.06V1163.97L1842.24 1140.84L1805.53 1167.43L1819.54 1124.38L1782.91 1097.71H1828.15L1842.24 1054.58L1856.17 1097.71H1874.06V1027.57H1510.49L1510.49 1027.53ZM1074.33 1027.62V1797.07H1241.18V1027.62H1074.33ZM0.277887 1115.74V1160.47L3.23164 1147.56L10.9959 1123.59L0.277887 1115.74ZM1874.02 1117.59L1864.73 1124.35L1874.02 1152.88V1117.59ZM282.818 1770.71L246.613 1797.04H319.024L282.818 1770.71ZM0.264961 1851.4V2055.67H368.899V1851.4H0.264961ZM422.732 1851.4V2055.67H905.816L916.028 2024.27L879.401 1997.59H924.637L938.647 1954.46L952.656 1997.59H997.974L961.347 2024.27L971.559 2055.67H1456.76V1851.4H1394.48L1404.86 1883.39H1450.18L1413.38 1909.97L1427.48 1953.11L1390.85 1926.43L1354.22 1953.11L1368.23 1909.97L1331.61 1883.39H1376.92L1387.31 1851.4H489.626L500.006 1883.39H545.323L508.612 1909.97L522.622 1953.11L485.995 1926.43L449.368 1953.11L463.378 1909.97L426.751 1883.39H472.068L482.364 1851.4H422.783H422.732ZM1510.49 1851.4V2055.67H1874.05V1851.4H1510.49ZM938.646 2040.72L917.97 2055.66H959.491L938.646 2040.72Z" fill="#E57200"/>
<path d="M59.327 1289.94L45.3176 1333.07H0L36.7109 1359.66L22.6175 1402.79L59.3283 1376.12L95.9552 1402.79L82.0298 1359.66L118.573 1333.07H73.3364L59.327 1289.94ZM148.87 1508.04L134.777 1551.09H89.4591L126.254 1577.68L112.161 1620.72L148.871 1594.14L185.498 1620.72L171.489 1577.68L208.2 1551.09H162.882L148.87 1508.04ZM1727.92 1508.04L1713.99 1551.09H1668.67L1705.3 1577.68L1691.29 1620.72L1727.92 1594.14L1764.63 1620.72L1750.54 1577.68L1787.33 1551.09H1742.01L1727.92 1508.04ZM1593.99 1684.46L1579.98 1727.59H1534.74L1571.37 1754.26L1557.44 1797.05L1593.99 1770.72L1630.28 1797.05H1630.53L1616.52 1754.26L1653.32 1727.59H1608L1593.99 1684.46ZM702.965 1925.94L688.956 1968.99H643.638L680.349 1995.66L666.255 2038.7L702.966 2012.12L739.593 2038.7L725.669 1995.66L762.296 1968.99H716.978L702.965 1925.94ZM1167.3 1925.94L1153.37 1968.99H1108.05L1144.68 1995.66L1130.67 2038.7L1167.3 2012.12L1203.92 2038.7L1189.91 1995.66L1226.63 1968.99H1181.31L1167.3 1925.94Z" fill="white"/>
<path d="M2392 458.686C2386.93 459.886 2386 462.819 2386 479.219C2386 495.886 2386.8 498.286 2393.07 499.752C2394.67 500.152 2409.47 500.552 2426 500.686C2454.93 501.086 2456.13 501.219 2461.6 504.286C2464.8 506.152 2468.8 509.752 2470.67 512.419C2478 522.952 2477.87 522.152 2478.13 695.752C2478.4 894.952 2479.6 936.552 2486.13 988.419C2497.47 1078.15 2529.87 1129.09 2596 1161.09C2623.33 1174.29 2646.27 1180.69 2686 1186.02C2704.13 1188.42 2714.8 1188.95 2746.67 1188.95C2788 1189.09 2801.6 1188.02 2830 1182.15C2878.67 1172.29 2919.2 1150.95 2952.93 1117.35C2990.53 1079.89 3011.07 1034.82 3020.67 968.552C3023.87 946.686 3025.47 919.619 3025.87 882.286C3026 868.152 3026.4 855.352 3026.8 853.619C3027.2 851.886 3027.73 780.819 3028.13 695.752C3028.53 596.952 3029.33 538.152 3030.13 533.086C3032 522.286 3038.67 510.286 3045.2 505.486C3054.4 498.952 3061.07 497.752 3090.67 497.752C3109.73 497.752 3117.87 497.352 3119.07 496.152C3121.6 493.619 3121.2 462.552 3118.67 460.419C3117.2 459.219 3110.8 458.952 3094.4 459.219C3064.27 459.886 2934.8 459.886 2900.27 459.219C2877.33 458.819 2872.13 458.952 2871.2 460.552C2869.6 462.819 2870.27 497.086 2871.73 498.686C2872.4 499.219 2886.8 500.019 2903.73 500.419C2932.67 501.086 2935.07 501.352 2941.6 504.286C2945.47 506.019 2951.07 510.019 2954.13 513.352C2970.27 530.819 2970.67 538.286 2970.67 793.752C2970.67 967.886 2970.67 969.486 2964 1002.42C2958 1031.89 2948.27 1056.69 2934.4 1077.62C2907.87 1117.62 2858.53 1143.89 2796.13 1151.22C2775.07 1153.75 2735.73 1152.02 2715.87 1147.89C2653.2 1134.69 2611.33 1101.22 2590.93 1047.75C2580.4 1020.55 2575.73 992.152 2574.67 948.819C2574.27 933.619 2573.73 909.619 2573.33 895.752C2571.07 809.619 2570.67 777.486 2570.67 699.086C2570.67 606.286 2571.2 561.886 2572.67 542.419C2573.6 528.152 2577.6 518.152 2585.47 510.552C2597.07 499.219 2603.87 497.752 2644.27 497.752C2671.73 497.752 2676.8 497.486 2678.53 495.619C2681.33 492.819 2681.6 464.952 2678.8 461.086C2677.2 458.819 2675.07 458.686 2647.87 459.219C2608 460.019 2408.13 459.619 2400.67 458.819C2397.33 458.419 2393.47 458.419 2392 458.686Z" fill="#1E317C"/>
<path d="M5508 609.886C5477.2 614.42 5447.07 628.286 5429.33 646.286C5412.67 663.086 5400.4 683.22 5393.73 704.42C5390.93 713.486 5390.67 716.82 5390.67 739.086C5390.8 767.22 5392.67 779.62 5400 800.02C5415.07 842.153 5445.73 866.153 5524.67 897.753C5559.47 911.62 5575.87 919.486 5590.93 929.62C5621.33 949.886 5636.53 977.22 5636.8 1011.22C5636.8 1018.29 5636.13 1026.69 5635.33 1029.89C5628.4 1056.02 5600.53 1078.95 5566.67 1086.42C5543.2 1091.75 5512.8 1085.35 5491.73 1070.95C5475.87 1060.02 5465.33 1047.09 5454.4 1025.09C5443.33 1002.95 5438 983.886 5438 966.686C5438 962.153 5437.47 957.753 5436.93 956.953C5434.93 953.886 5430 952.553 5417.07 951.62C5400.8 950.553 5401.33 950.02 5400.27 969.353C5399.87 976.82 5397.33 1007.75 5394.53 1038.02C5391.87 1068.29 5390 1094.69 5390.4 1096.69C5391.6 1101.22 5396.27 1104.42 5402.93 1105.35C5409.6 1106.29 5414.67 1102.42 5416 1095.49C5416.4 1092.69 5417.73 1088.95 5418.93 1087.22C5421.73 1082.82 5426.93 1084.15 5437.73 1092.42C5449.47 1101.35 5473.07 1112.95 5488 1117.09C5535.2 1130.42 5584 1127.62 5621.33 1109.22C5656.4 1091.89 5679.47 1064.42 5691.73 1024.95C5704 986.153 5700.93 929.753 5684.8 897.086C5671.33 869.886 5650.67 851.353 5614.93 834.42C5602.4 828.553 5554.4 809.753 5543.33 806.42C5534.53 803.753 5510.67 792.686 5499.33 786.02C5475.73 772.286 5463.07 755.62 5456.67 730.553C5453.47 717.753 5453.33 707.353 5456.13 697.62C5466.93 660.686 5502.53 640.02 5545.2 645.62C5568.27 648.686 5584.27 656.153 5598.67 670.42C5612.13 683.886 5622.27 701.62 5633.33 730.686C5641.73 753.22 5642.93 756.02 5645.33 756.953C5648.13 758.02 5671.6 752.686 5673.07 750.686C5674.53 748.553 5673.47 734.02 5669.47 700.42C5666 671.353 5663.73 648.02 5662.8 630.02C5662.53 624.02 5661.6 618.153 5660.67 617.086C5659.47 615.753 5656.4 615.086 5650.8 615.086C5641.6 615.086 5641.33 615.22 5636.27 622.02C5634.13 624.953 5631.33 627.086 5629.87 627.086C5628.4 627.086 5623.2 625.086 5618.27 622.553C5598 612.286 5575.6 608.42 5540 608.553C5526.8 608.686 5512.4 609.22 5508 609.886Z" fill="#1E317C"/>
<path d="M6002.8 616.553C6002.53 617.62 5997.07 636.42 5990.8 658.553C5984.53 680.553 5976.4 707.62 5972.67 718.553C5966.27 737.753 5965.07 743.22 5966.8 747.62C5967.73 750.153 5992.67 758.553 5995.73 757.353C5996.8 756.953 6000.8 750.687 6004.53 743.487C6012.93 727.22 6024.4 709.487 6035.2 696.153C6046.27 682.287 6061.47 668.687 6067.33 667.087C6083.73 662.82 6127.6 659.087 6162.4 659.087H6186L6185.73 818.02C6185.6 990.153 6184.67 1044.95 6182.13 1052.69C6179.87 1059.49 6172.93 1065.22 6164.67 1066.95C6160.93 1067.75 6147.07 1068.42 6134 1068.42C6111.73 1068.42 6110 1068.55 6108.67 1070.95C6108 1072.42 6107.33 1079.89 6107.33 1087.62C6107.33 1108.82 6103.6 1107.35 6154.4 1106.15C6206.8 1104.82 6251.87 1104.82 6301.87 1106.02C6337.33 1106.95 6341.33 1106.82 6343.6 1104.82C6345.6 1102.95 6346 1100.42 6346 1087.09C6346 1076.15 6345.47 1070.95 6344.4 1070.02C6343.33 1069.35 6331.2 1068.42 6316 1068.15C6286.4 1067.49 6283.07 1066.69 6278.27 1058.82C6272.67 1049.62 6272.53 1047.09 6272.93 845.087L6273.33 651.753L6290.67 652.153C6327.73 652.953 6362.4 655.887 6385.2 660.02C6396.27 662.02 6397.6 662.553 6403.6 668.153C6415.87 679.62 6431.47 703.487 6447.2 734.82C6451.6 743.487 6456.13 751.353 6457.33 752.42C6459.2 754.02 6461.33 753.753 6472 751.22C6489.47 746.953 6489.87 746.553 6486.93 729.22C6485.6 721.753 6481.47 701.353 6477.6 684.02C6469.47 647.887 6468.8 650.42 6485.33 655.62C6499.2 660.02 6504.13 663.753 6516.4 679.487C6544.93 716.02 6620 824.82 6653.73 878.42L6664.67 895.887V974.82C6664.67 1058.42 6664.67 1059.22 6658.4 1064.69C6652.93 1069.62 6644.53 1071.35 6623.73 1072.02C6610.27 1072.55 6602.53 1073.35 6601.07 1074.55C6599.2 1075.89 6598.53 1078.69 6598.27 1088.02C6598 1094.55 6598.4 1102.29 6599.2 1105.22L6600.53 1110.42H6705.2C6762.8 1110.42 6810.4 1109.89 6810.93 1109.22C6812.67 1107.62 6813.07 1081.09 6811.47 1078.02C6810.27 1075.75 6808.27 1075.35 6790.8 1074.82C6774 1074.29 6770.8 1073.75 6765.07 1070.95C6751.2 1064.02 6750 1054.95 6750 958.02V890.82L6764.27 870.02C6796.8 822.02 6864.53 728.953 6891.87 694.42C6918.8 660.42 6925.73 656.42 6957.33 656.42C6975.73 656.42 6975.73 656.42 6975.07 635.887C6974.8 626.687 6974 619.887 6973.07 618.953C6972.13 618.02 6966 617.62 6953.73 617.887C6930.53 618.553 6859.6 618.553 6829.87 617.887C6816.93 617.62 6805.6 617.753 6804.8 618.287C6802.67 619.62 6802.8 650.287 6805.07 652.153C6805.87 652.82 6813.6 653.753 6822 654.02C6830.8 654.42 6838.93 655.353 6840.93 656.42C6848.67 660.153 6849.2 671.22 6842.27 684.553C6840.13 688.82 6824 713.087 6806.53 738.687C6777.6 780.953 6734 845.887 6730.53 851.753C6728.93 854.687 6722.4 844.687 6659.87 744.153C6637.6 708.42 6617.87 676.82 6616 673.887C6611.47 667.087 6611.87 661.087 6617.07 657.22C6620.27 654.953 6623.2 654.42 6635.73 654.02C6644 653.753 6651.47 652.82 6652.4 652.153C6653.47 651.22 6654 646.153 6654 635.753C6654 619.353 6653.2 617.353 6646.4 617.487C6644.27 617.62 6589.87 617.887 6525.33 618.42C6460.8 618.82 6387.07 619.487 6361.33 619.887C6274.93 621.22 6140.27 621.487 6104.67 620.287C6072.13 619.353 6042.13 617.753 6014.4 615.62C6005.6 614.82 6003.33 615.087 6002.8 616.553Z" fill="#1E317C"/>
<path d="M3461.73 617.753C3458.8 618.553 3458.67 619.087 3458.27 636.42C3458.13 646.287 3458.53 655.353 3459.33 656.42C3460.27 658.02 3464.67 658.553 3479.07 659.087C3496.8 659.753 3497.87 660.02 3506.8 664.42C3516.53 669.353 3520.8 674.153 3523.33 682.953C3529.6 704.553 3533.2 783.753 3533.87 917.353L3534.13 984.42H3531.07C3528.8 984.287 3524.8 980.287 3515.2 968.02C3480.8 924.287 3420.53 848.953 3401.33 825.753C3376.4 795.62 3300.67 700.82 3268.27 659.087C3256 643.353 3244.27 628.42 3242.27 626.02C3236.93 619.353 3230.93 618.687 3195.33 620.553C3172.93 621.62 3160.67 621.753 3146.53 620.553C3136.27 619.753 3120 619.087 3110.4 619.087C3088.13 619.087 3088.67 618.553 3088.67 639.22C3088.67 647.62 3089.2 655.22 3089.87 656.287C3090.8 657.753 3095.47 658.553 3106.53 659.22C3119.73 660.02 3123.2 660.687 3130.53 664.153C3146.93 671.887 3157.47 685.62 3160.8 703.753C3161.87 709.62 3162.13 752.42 3161.47 860.42C3160.53 1039.09 3160.13 1048.15 3155.33 1057.89C3153.73 1061.09 3150.8 1065.49 3148.8 1067.49C3142.13 1074.69 3138.8 1075.75 3118 1076.42L3098.67 1077.09L3098.27 1095.49L3097.87 1114.02L3130.27 1112.82C3169.2 1111.49 3177.73 1111.49 3205.07 1112.95C3223.87 1113.89 3226.13 1114.29 3225.33 1116.29C3222 1124.02 3214 1147.89 3212 1155.35L3209.6 1164.42H3179.33C3149.73 1164.42 3149.07 1164.42 3146.27 1167.49C3139.33 1174.82 3134 1196.55 3138.27 1200.15C3139.6 1201.22 3149.6 1201.75 3171.47 1202.02L3202.8 1202.42L3163.87 1331.09C3118.67 1480.42 3116.53 1487.22 3105.07 1516.42C3083.47 1571.89 3059.33 1608.42 3037.73 1618.42C3024.13 1624.69 3015.73 1621.62 3012.67 1609.22C3007.47 1589.09 2996.8 1578.95 2980.4 1578.95C2970.13 1578.82 2961.6 1583.09 2956 1590.95C2952.67 1595.75 2952 1598.15 2951.6 1606.55C2951.07 1615.22 2951.47 1617.35 2954.53 1623.62C2968.13 1651.35 3008.8 1657.75 3048 1638.15C3061.33 1631.49 3073.33 1622.15 3086.93 1608.02C3107.07 1586.82 3122.13 1563.49 3140.8 1525.09C3166.8 1471.35 3188.8 1409.35 3227.33 1281.75C3234.8 1257.22 3243.2 1229.35 3246.13 1220.02L3251.47 1202.95L3303.73 1203.35C3355.47 1203.75 3356.13 1203.75 3362.93 1206.95C3376.27 1212.95 3381.73 1221.62 3395.73 1259.09C3415.2 1310.95 3465.6 1463.09 3475.33 1498.69C3478.13 1509.09 3487.73 1538.15 3496.67 1563.35C3505.6 1588.55 3535.07 1672.15 3562.13 1749.35C3589.07 1826.55 3612.13 1891.49 3613.33 1893.62C3615.6 1898.02 3619.07 1900.42 3623.07 1900.42C3627.73 1900.42 3635.6 1889.62 3641.87 1874.95C3655.07 1843.35 3718 1688.15 3752.67 1601.75C3842.67 1376.69 3884.67 1278.69 3903.07 1249.75C3918.4 1225.75 3940.93 1209.09 3963.73 1205.09C3968.93 1204.15 3981.73 1203.35 3992 1203.22C4002.27 1203.09 4011.07 1202.55 4011.73 1201.89C4012.27 1201.35 4012.53 1192.82 4012.4 1182.95L4012 1165.09L3978 1165.75C3959.33 1166.15 3924.27 1166.42 3900 1166.42C3875.87 1166.42 3837.47 1166.15 3814.67 1165.75L3773.33 1165.09L3772.93 1184.02L3772.53 1203.09H3787.6C3829.2 1203.09 3838.13 1211.35 3832 1243.62C3829.73 1255.89 3826.4 1266.02 3800.67 1339.75C3792.53 1363.22 3778.93 1402.55 3770.67 1427.09C3746 1500.02 3649.73 1747.09 3646.13 1747.09C3645.2 1747.09 3642.8 1740.29 3617.73 1669.09C3557.6 1498.29 3509.6 1346.42 3490.53 1266.69C3486.4 1248.95 3485.87 1244.95 3486.27 1232.69L3486.67 1218.95L3492.13 1213.75C3501.2 1205.35 3506.93 1204.29 3546.67 1203.22L3581.2 1202.42L3583.07 1199.09C3585.6 1194.15 3584.8 1167.49 3582 1165.75C3580.67 1164.82 3566.67 1164.82 3543.33 1165.35C3479.2 1167.22 3265.73 1166.02 3263.6 1163.89C3263.33 1163.62 3268.53 1144.55 3275.07 1121.49C3293.33 1057.22 3304.13 1032.69 3321.87 1014.95C3335.2 1001.75 3352 995.087 3367.6 996.82C3382 998.553 3388.67 1004.95 3391.87 1020.15C3395.6 1038.15 3402.53 1044.29 3419.07 1044.42C3436.13 1044.42 3446.53 1034.29 3448.4 1015.62L3449.33 1007.09L3473.33 1036.15C3486.53 1052.02 3505.87 1075.09 3516.4 1087.35C3533.6 1107.49 3536.27 1110.02 3544.13 1113.89C3557.73 1120.69 3567.47 1119.49 3572.27 1110.69C3574.53 1106.69 3574.67 1094.55 3574.8 904.42C3574.93 772.42 3575.47 697.487 3576.4 688.153C3578.93 661.353 3584.53 656.553 3612.93 656.42C3630.13 656.42 3630 656.553 3630 637.22C3630 621.353 3628.8 617.62 3624 617.62C3622.53 617.62 3595.87 617.887 3564.67 618.153C3533.47 618.553 3498.27 618.42 3486.4 617.887C3474.4 617.487 3463.33 617.353 3461.73 617.753ZM3206.13 710.02C3215.6 720.953 3246.27 759.62 3283.6 807.753C3326.93 863.62 3366.53 912.287 3408.8 962.02L3431.2 988.153L3422.93 984.42C3410.4 978.553 3400.4 976.42 3385.2 976.42C3345.87 976.42 3310 992.42 3283.2 1021.89C3269.87 1036.69 3262.67 1046.29 3252.8 1062.69L3244.53 1076.42H3236.27C3224 1076.42 3217.07 1070.55 3211.47 1055.75C3204.67 1037.62 3201.2 954.287 3200.8 800.02C3200.67 733.087 3201.07 707.087 3202.13 707.087C3202.93 707.087 3204.8 708.42 3206.13 710.02Z" fill="#1E317C"/>
<path d="M3667.73 617.886C3664.8 618.953 3664.67 619.619 3664.67 636.953C3664.67 652.019 3664.93 654.953 3666.8 655.619C3668 656.019 3678 656.419 3689.07 656.419C3720.67 656.553 3736.8 660.553 3743.87 670.153C3746.53 673.753 3746.67 676.153 3747.33 711.486C3748.53 767.619 3748.53 1032.42 3747.33 1047.75C3746.27 1063.75 3744.13 1068.55 3736.27 1072.69C3731.07 1075.49 3728.4 1075.75 3702.27 1076.42C3679.07 1076.95 3673.73 1077.49 3672.67 1079.09C3672 1080.15 3671.33 1087.75 3671.33 1095.75C3671.33 1107.09 3671.87 1111.22 3673.47 1113.49L3675.6 1116.55L3700.4 1115.49C3732.4 1114.15 3844.53 1114.15 3876.93 1115.49C3894.27 1116.29 3902.8 1116.15 3904.67 1115.09C3907.2 1113.75 3907.33 1112.42 3907.33 1096.29V1079.09L3903.87 1077.75C3902 1076.95 3894 1076.42 3886 1076.42C3868.67 1076.42 3860.27 1074.02 3852.13 1066.95C3848.8 1064.02 3844.93 1058.82 3843.2 1054.82L3840 1047.75L3839.6 939.353C3839.33 832.553 3839.2 831.086 3836.67 831.086C3834 831.086 3834 829.886 3834 753.353C3834 701.486 3834.53 674.019 3835.47 670.553C3837.33 663.886 3842.67 658.419 3849.47 656.419C3852.27 655.619 3864.4 654.553 3876.27 654.153C3891.33 653.619 3898.4 652.953 3899.33 651.753C3900.27 650.686 3900.67 643.886 3900.4 634.286C3900 619.086 3899.87 618.553 3896.93 617.753C3895.33 617.353 3882.93 617.486 3869.6 617.886C3844.8 618.819 3678.13 618.286 3673.33 617.219C3671.87 616.953 3669.33 617.219 3667.73 617.886Z" fill="#1E317C"/>
<path d="M3939.07 617.752C3936.13 618.552 3936 619.086 3935.6 635.619C3935.33 647.086 3935.73 653.352 3936.8 654.552C3937.87 655.886 3941.33 656.419 3947.87 656.419C3955.47 656.419 3958.93 657.086 3964.27 659.752C3972.4 663.886 3980.53 672.286 3985.07 681.352C3990.67 692.286 4029.73 799.752 4048.67 855.752C4053.6 870.419 4069.07 913.752 4083.07 952.019C4097.07 990.286 4115.87 1041.89 4124.67 1066.69C4133.6 1091.49 4141.73 1113.09 4142.8 1114.82C4146.53 1120.42 4152.67 1123.22 4160 1122.69C4170.67 1122.02 4173.2 1119.35 4182.67 1099.89C4196.13 1071.89 4251.07 943.086 4289.6 849.086C4328 755.219 4357.73 690.286 4369.07 674.952C4374.93 667.352 4384 661.219 4395.33 657.486C4402.67 655.086 4408 654.552 4431.47 654.019C4473.6 653.219 4488.53 655.886 4494.93 665.486C4500.27 673.619 4500.4 678.019 4501.47 887.086C4502.4 1078.69 4502.93 1066.42 4493.2 1070.55C4487.47 1072.95 4471.2 1074.55 4449.33 1074.95C4440.53 1075.09 4432.8 1075.89 4432 1076.55C4429.73 1078.82 4429.47 1108.69 4431.6 1111.62C4433.47 1113.89 4435.33 1114.02 4477.47 1112.69C4521.07 1111.35 4686.13 1111.62 4776.8 1113.22C4811.07 1113.75 4825.07 1113.62 4827.2 1112.55C4828.67 1111.62 4830.93 1109.09 4832.13 1106.69C4836.4 1098.55 4873.87 986.019 4873.2 983.486C4872.8 981.886 4868.27 978.819 4861.47 975.486C4846.8 968.152 4845.87 968.552 4831.33 989.219C4806.53 1024.55 4787.47 1047.49 4775.6 1056.15C4753.87 1071.89 4737.6 1077.75 4707.33 1080.55C4686.4 1082.42 4635.07 1081.35 4624.67 1078.82C4603.47 1073.49 4593.87 1063.09 4590.27 1041.75C4588.93 1033.75 4586.93 952.419 4586.8 898.419L4586.67 875.752L4608.67 875.886C4641.33 876.152 4669.73 880.286 4682.27 886.552C4696.27 893.619 4703.33 904.952 4710 930.952L4711.6 936.819L4726.13 935.886C4734.27 935.352 4741.73 934.552 4742.8 934.152C4745.2 933.219 4745.2 927.619 4742.53 895.752C4740.8 876.019 4740.53 859.752 4741.07 822.819C4741.6 782.019 4741.33 775.086 4739.73 774.552C4738.67 774.152 4731.33 773.752 4723.33 773.752H4708.93L4708.13 783.352C4706 807.352 4700.67 818.552 4687.33 827.086C4673.73 835.886 4666.93 836.819 4605.73 839.752L4588.67 840.552V747.086V653.486L4615.73 654.286C4630.53 654.686 4658 655.352 4676.67 655.752C4731.47 657.086 4731.87 657.219 4774.53 704.419C4789.07 720.419 4806.4 740.419 4819.47 756.019C4820.93 757.886 4823.47 759.086 4825.6 759.086C4830.13 759.086 4847.33 752.686 4847.33 750.952C4847.33 750.286 4846.13 746.286 4844.8 742.019C4837.87 721.619 4816 650.019 4812.67 637.086C4810.67 628.952 4808.53 621.486 4808.13 620.419C4807.33 618.686 4778.8 618.419 4561.6 618.419C4426.53 618.419 4305.33 618.152 4292.27 617.886C4275.6 617.486 4268 617.886 4266.93 618.952C4264.67 621.219 4264.8 651.352 4267.2 654.286C4268.67 656.019 4271.47 656.419 4281.47 656.419C4289.87 656.419 4295.73 657.086 4299.33 658.552C4309.47 662.552 4308.8 667.752 4291.87 714.686C4284.93 734.419 4271.73 771.352 4262.67 797.086C4253.73 822.686 4234.27 874.686 4219.6 912.419C4204.93 950.152 4191.2 986.019 4189.07 992.019C4187.07 998.152 4184.67 1003.09 4183.87 1003.09C4183.07 1003.09 4181.87 1001.09 4181.07 998.686C4180.27 996.419 4168.53 958.952 4154.8 915.752C4141.07 872.419 4119.47 805.886 4106.67 767.752C4080.8 690.952 4076.8 675.219 4080.93 666.686C4084.8 658.686 4090.13 657.219 4115.73 656.686C4143.33 656.152 4142 657.219 4142 634.686C4142 617.752 4141.87 617.352 4134.27 617.486C4132.27 617.486 4098.93 617.752 4060 618.152C4021.2 618.419 3978.67 618.419 3965.73 617.886C3952.67 617.486 3940.67 617.352 3939.07 617.752Z" fill="#1E317C"/>
<path d="M4886 618.153C4882.67 619.886 4882.67 620.019 4882.67 636.819C4882.67 650.553 4883.07 654.153 4884.67 655.086C4885.73 655.753 4891.73 656.419 4898 656.419C4918.93 656.419 4930.27 661.486 4936 673.086L4939.33 679.753L4938.27 869.086C4937.33 1057.35 4937.33 1058.42 4934.53 1063.75C4932.8 1067.22 4929.73 1070.29 4925.87 1072.42C4920.67 1075.35 4918 1075.75 4900.67 1076.42C4890 1076.82 4880.53 1077.62 4879.73 1078.15C4877.33 1079.75 4877.33 1108.42 4879.73 1111.62C4881.33 1113.75 4883.87 1113.89 4921.33 1112.69C4960.93 1111.49 4986.53 1111.49 5050.13 1113.22L5082.93 1114.02L5085.2 1110.95C5088.27 1106.42 5088.27 1081.62 5085.07 1078.95C5083.6 1077.62 5076.93 1076.95 5061.47 1076.42C5035.47 1075.62 5031.87 1074.15 5026.13 1061.89L5022.67 1054.42L5022.27 980.819L5021.87 907.219L5025.6 906.153C5027.6 905.619 5037.47 905.086 5047.33 905.086C5074.27 905.219 5085.33 909.219 5101.87 924.953C5115.87 938.419 5128.13 956.819 5160.67 1013.75C5190.93 1066.55 5213.33 1101.09 5224.27 1111.22L5229.33 1116.02L5242 1115.09C5256.13 1113.89 5340.27 1114.55 5350.8 1115.75C5361.2 1117.09 5362 1115.75 5362 1095.75C5362 1081.35 5361.73 1079.09 5359.73 1078.02C5358.4 1077.35 5351.07 1076.42 5343.33 1076.15C5321.47 1075.09 5311.07 1069.62 5289.33 1047.75C5273.2 1031.62 5262.13 1017.35 5229.33 971.086C5190.13 915.619 5179.6 903.619 5163.6 896.019C5158.93 893.886 5155.6 891.619 5156.27 891.219C5156.8 890.686 5161.87 888.553 5167.33 886.419C5208.27 871.086 5244 846.286 5260.53 822.019C5277.07 797.486 5285.6 766.419 5283.73 736.686C5282.53 716.153 5269.47 688.019 5252 668.419C5229.47 642.953 5192.4 626.286 5144 619.753C5131.2 618.019 5118.53 617.619 5080.67 618.019C5015.73 618.553 4895.47 618.153 4892.13 617.219C4890.53 616.819 4887.87 617.219 4886 618.153ZM5094.67 657.219C5118.67 661.353 5148 673.619 5162.8 685.619C5176.53 696.686 5188.93 718.553 5192.53 738.286C5199.33 774.953 5183.73 815.886 5153.73 840.419C5136.27 854.686 5108.67 865.219 5080.27 868.553C5065.73 870.286 5025.07 869.353 5023.07 867.353C5022.4 866.686 5022.13 822.153 5022.27 768.286C5022.67 678.553 5022.8 670.019 5024.93 666.153C5027.6 661.353 5034 657.086 5041.47 655.086C5048.4 653.353 5079.87 654.553 5094.67 657.219Z" fill="#1E317C"/>
<path d="M5718 617.487C5713.47 618.82 5712.67 622.154 5712.67 637.887C5712.67 648.687 5713.2 653.887 5714.4 654.82C5715.2 655.487 5727.6 656.42 5742 656.82C5761.2 657.354 5769.87 658.02 5775.33 659.754C5784.93 662.687 5790.93 666.554 5793.33 671.087C5796.27 676.82 5797.33 737.22 5797.33 902.42C5797.2 1057.89 5797.2 1060.02 5791.07 1067.89C5785.73 1074.55 5781.07 1075.62 5751.07 1076.42C5730.93 1076.95 5722.93 1077.62 5721.73 1078.82C5719.73 1080.82 5718.53 1100.42 5719.87 1107.75C5721.6 1116.55 5722 1116.69 5750.53 1115.49C5783.07 1114.15 5892.13 1114.15 5925.87 1115.49C5958.67 1116.82 5956.67 1118.15 5956.67 1095.62C5956.67 1084.02 5956.13 1078.95 5955.07 1078.15C5954.13 1077.62 5944.93 1076.82 5934.67 1076.42C5920 1075.75 5914.67 1074.95 5909.87 1072.82C5901.73 1069.22 5894.67 1061.62 5891.07 1052.55L5888 1045.09L5887.6 938.02C5887.33 844.287 5887.07 831.087 5885.2 831.087C5883.47 831.087 5883.33 821.22 5883.6 749.887C5884 670.287 5884 668.554 5886.8 664.82C5888.27 662.82 5892.4 659.62 5896 657.887C5901.87 654.954 5904.53 654.554 5924.13 654.02C5936 653.62 5946.53 652.954 5947.47 652.287C5948.8 651.487 5949.47 646.954 5949.73 636.02C5950.13 623.487 5949.87 620.687 5948.13 619.22C5946.4 617.754 5940.53 617.487 5921.6 617.887C5890.13 618.554 5728.93 618.154 5723.87 617.354C5721.73 617.087 5719.07 617.087 5718 617.487Z" fill="#1E317C"/>
<path d="M3033.6 1170.02C3011.87 1172.69 2987.07 1184.29 2966.67 1201.49C2932.13 1230.69 2902.93 1283.89 2892.53 1336.55C2888.4 1357.49 2888.27 1388.29 2892.4 1403.22C2899.6 1429.89 2916.67 1450.82 2937.73 1459.35C2944.27 1461.89 2947.73 1462.42 2962 1462.42C2973.73 1462.42 2981.2 1461.75 2987.33 1460.02C2998.93 1456.95 3020.67 1446.02 3031.47 1437.89C3066.53 1411.22 3098.13 1359.22 3112.4 1304.42C3118.53 1281.09 3120 1270.82 3119.87 1249.75C3119.87 1232.55 3119.47 1229.22 3116.27 1219.62C3104.27 1183.22 3074 1165.09 3033.6 1170.02ZM3072.27 1202.82C3084 1208.82 3090.27 1221.22 3090.13 1238.29C3089.87 1281.09 3041.87 1370.82 3000.8 1405.35C2982.27 1420.82 2965.73 1428.29 2949.6 1428.42C2929.6 1428.42 2918.27 1417.22 2916.93 1396.15C2915.33 1368.69 2929.47 1325.62 2954 1284.42C2980.93 1238.95 3011.87 1209.22 3041.07 1201.09C3050.67 1198.42 3065.07 1199.22 3072.27 1202.82Z" fill="#1E317C"/>
<path d="M6490.67 1248.42C6489.2 1248.95 6486.53 1251.09 6484.67 1253.09C6476.4 1262.15 6446.13 1278.95 6428 1284.42C6414.13 1288.69 6411.6 1289.75 6410.8 1292.02C6410 1293.89 6413.47 1302.69 6416.93 1307.35C6420 1311.62 6415.6 1326.42 6400 1363.75C6378.27 1415.89 6349.47 1482.02 6324.67 1537.09C6312.8 1563.49 6293.73 1605.75 6282.4 1631.09C6252.8 1696.82 6249.07 1703.89 6240.13 1712.15C6225.6 1725.35 6207.2 1730.29 6183.6 1727.35C6164.13 1724.95 6153.33 1717.75 6147.73 1703.22C6145.6 1697.62 6145.33 1688.02 6144.67 1588.42C6144.13 1509.09 6143.47 1478.55 6142.4 1475.22C6139.47 1467.09 6137.87 1432.82 6137.73 1378.42C6137.6 1320.42 6137.87 1317.75 6144.8 1311.89C6150.8 1306.82 6156.67 1305.62 6180.4 1304.82C6202 1304.02 6202.27 1304.02 6203.47 1300.82C6205.07 1296.69 6205.07 1273.62 6203.47 1271.22C6202.4 1269.49 6185.47 1269.22 6086 1269.22C5978.27 1269.09 5969.6 1269.22 5968.53 1271.35C5966.67 1274.95 5967.07 1303.89 5969.07 1305.49C5969.87 1306.15 5982.13 1307.09 5996 1307.49C6022.67 1308.15 6033.07 1310.02 6041.6 1315.22C6048.67 1319.62 6049.6 1322.95 6050.53 1346.42C6051.73 1377.89 6052.53 1651.35 6051.47 1683.09C6050.4 1712.55 6049.73 1716.02 6042.53 1721.62C6036.8 1726.15 6030.67 1727.09 6002.93 1728.02C5976.53 1728.82 5976.4 1728.82 5975.2 1732.02C5973.47 1736.55 5973.73 1756.42 5975.47 1761.62C5977.33 1766.95 5980 1767.62 5997.07 1766.55C6021.33 1765.09 6286.93 1764.55 6323.07 1765.89C6349.73 1766.95 6358.67 1766.82 6360.13 1765.62C6361.6 1764.42 6362 1760.29 6362 1748.29C6362 1734.02 6361.73 1732.42 6359.47 1731.09C6358 1730.42 6348.4 1729.75 6338 1729.75C6316.53 1729.75 6311.87 1728.42 6308 1721.22C6306.13 1717.75 6305.73 1714.69 6306.27 1705.62C6306.8 1695.09 6308.13 1691.09 6328.8 1635.49L6350.67 1576.42L6439.2 1576.82L6527.6 1577.09L6530.13 1583.75C6535.33 1597.35 6563.2 1681.62 6567.33 1696.15C6571.6 1711.09 6571.6 1711.35 6569.33 1717.22C6566.13 1725.49 6562 1727.35 6544.67 1728.29L6530.67 1729.09L6530.27 1745.89C6530 1760.29 6530.27 1763.22 6532.13 1765.09C6534.13 1767.09 6538 1767.22 6574.53 1766.15C6624.8 1764.82 6651.47 1764.82 6698.8 1766.15C6732.8 1767.09 6736.53 1766.95 6738.53 1764.95C6740.4 1763.22 6740.67 1760.15 6740.4 1745.89L6740 1729.09L6722.67 1728.15C6712 1727.62 6702.8 1726.42 6698.67 1725.09C6684.27 1720.15 6670.53 1707.89 6663.33 1693.75C6653.07 1673.35 6622.93 1590.42 6592.67 1499.09C6569.47 1428.95 6562.8 1409.62 6532.27 1323.09C6507.87 1254.15 6507.6 1253.35 6503.87 1250.02C6500.4 1247.09 6495.47 1246.42 6490.67 1248.42ZM6451.2 1341.22C6452 1343.09 6465.6 1386.95 6481.47 1438.82C6497.2 1490.69 6510.4 1533.89 6510.67 1534.69C6511.2 1536.02 6495.87 1536.42 6437.2 1536.42H6363.2L6364 1533.35C6364.53 1531.75 6382 1487.75 6402.8 1435.75C6426.27 1377.09 6441.73 1340.29 6443.47 1338.82C6446.67 1336.02 6449.2 1336.82 6451.2 1341.22Z" fill="#1E317C"/>
<path d="M4878.67 1255.22C4808.4 1260.69 4744.8 1288.02 4701.2 1331.89C4667.33 1365.89 4645.47 1408.55 4635.73 1459.62C4632.4 1476.82 4632.4 1532.02 4635.73 1553.75C4645.2 1615.75 4668.13 1663.22 4708 1702.55C4751.87 1745.89 4825.6 1773.75 4896.67 1773.75C4957.2 1773.75 5020.13 1758.95 5078.4 1730.95C5091.2 1724.95 5092 1723.35 5090.13 1708.02C5089.33 1701.35 5088.67 1674.55 5088.53 1648.69L5088.27 1601.62L5092.67 1597.09C5098.67 1590.95 5106.53 1588.55 5124 1587.49C5132.13 1587.09 5139.47 1586.15 5140.4 1585.35C5142.93 1583.35 5142.67 1554.55 5140 1552.42C5138.4 1551.09 5131.6 1550.95 5109.6 1551.75C5094.13 1552.29 5053.73 1552.55 5020 1552.29C4986.27 1552.15 4949.33 1551.89 4938 1551.89L4917.33 1551.75L4916.93 1566.95C4916.67 1576.29 4917.07 1582.69 4918 1583.75C4919.07 1584.95 4926.27 1585.62 4944.4 1586.02C4965.6 1586.55 4970.53 1587.09 4977.2 1589.49C4987.47 1593.22 4993.07 1597.75 4996.67 1605.09C4999.47 1610.82 4999.6 1612.15 4999.07 1646.69C4998.4 1684.82 4997.87 1688.69 4991.2 1697.75C4984.67 1706.55 4965.07 1716.55 4944.27 1721.62C4894.4 1734.02 4855.07 1727.49 4813.33 1699.75C4772.93 1672.95 4741.87 1622.42 4729.6 1563.75C4724.13 1537.62 4722.8 1524.02 4722.8 1494.42C4722.8 1470.42 4723.2 1464.42 4725.73 1452.42C4732.4 1421.62 4746.4 1389.22 4762.93 1366.02C4772.67 1352.42 4795.2 1329.75 4808.8 1320.15C4826.27 1307.75 4845.73 1298.82 4865.33 1294.29C4881.33 1290.55 4913.2 1290.82 4929.33 1294.82C4944 1298.55 4964.8 1308.55 4977.33 1318.02C5010.4 1343.09 5045.07 1386.69 5058 1419.75C5063.33 1433.09 5063.2 1433.09 5080.4 1427.49C5089.2 1424.55 5091.87 1423.09 5092.8 1420.55C5093.73 1418.42 5091.6 1398.15 5086 1355.35C5081.6 1321.22 5078 1291.49 5078 1289.35C5078 1285.35 5075.87 1280.42 5073.47 1278.82C5071.33 1277.35 5059.47 1277.62 5056.53 1279.09C5055.2 1279.89 5052.53 1283.49 5050.67 1287.09C5048.93 1290.69 5046.8 1293.89 5046.13 1294.42C5044.13 1295.49 5036.93 1292.15 5027.73 1285.89C5005.87 1270.95 4966.13 1258.69 4928.67 1255.22C4911.47 1253.62 4900.13 1253.62 4878.67 1255.22Z" fill="#1E317C"/>
<path d="M5393.6 1265.89C5391.87 1268.29 5391.33 1272.15 5391.33 1283.09C5391.33 1302.15 5391.2 1302.02 5409.47 1303.22C5436.4 1304.82 5450.53 1313.62 5460.4 1334.69L5464 1342.42L5464.13 1485.09C5464.13 1563.49 5463.87 1643.09 5463.33 1661.75C5462.53 1699.22 5461.87 1702.15 5453.6 1710.95C5446.13 1718.82 5440.93 1720.42 5421.33 1720.42C5411.87 1720.42 5403.2 1720.95 5402.27 1721.49C5401.07 1722.42 5400.67 1726.95 5400.93 1739.89L5401.33 1757.09H5414.67C5422 1757.09 5442.67 1756.69 5460.67 1756.29C5478.67 1755.89 5508.53 1756.02 5527.2 1756.69C5550.8 1757.49 5561.47 1757.49 5562.4 1756.55C5563.87 1755.09 5564.67 1728.29 5563.6 1722.02C5563.07 1719.22 5562.53 1719.09 5549.2 1719.09C5529.6 1719.09 5523.2 1716.15 5517.33 1704.42C5511.73 1692.95 5510.13 1680.95 5507.2 1622.42C5505.33 1586.42 5504 1348.42 5505.6 1348.42C5506.93 1348.42 5520.4 1365.35 5576.13 1437.09C5617.87 1490.95 5619.2 1492.69 5668.13 1549.89C5686.53 1571.49 5719.2 1610.42 5740.67 1636.42C5784.93 1690.02 5825.07 1737.62 5834.27 1747.75C5842.13 1756.42 5857.07 1764.42 5865.33 1764.42C5872.4 1764.42 5877.47 1760.69 5879.33 1754.02C5880.13 1750.82 5880.67 1704.42 5880.67 1620.29C5880.67 1492.15 5880.67 1491.35 5878 1490.69C5875.33 1490.02 5875.33 1489.35 5875.87 1417.49C5876.53 1326.29 5877.47 1316.69 5887.33 1309.62C5891.47 1306.69 5904.53 1304.42 5918.27 1304.42C5931.47 1304.42 5931.73 1304.02 5931.07 1283.62C5930.8 1271.89 5930.27 1268.02 5928.67 1266.95C5927.33 1266.15 5919.2 1265.89 5906 1266.42C5865.73 1267.89 5839.6 1268.02 5802.67 1266.82C5782.13 1266.15 5764 1266.02 5762.4 1266.42C5759.47 1267.09 5759.33 1267.62 5759.33 1283.75C5759.33 1295.49 5759.87 1300.55 5761.07 1301.35C5761.87 1301.89 5771.07 1302.69 5781.47 1303.09C5799.33 1303.75 5800.67 1304.02 5809.2 1308.29C5824.67 1315.89 5826.8 1320.82 5830.67 1358.42C5834.27 1394.69 5835.6 1434.55 5836.27 1532.02C5836.93 1628.29 5836.93 1628.42 5834.13 1628.42C5831.07 1628.42 5820.67 1616.15 5769.6 1551.89C5750.4 1527.75 5701.33 1466.29 5660.53 1415.22C5619.87 1364.15 5576.93 1310.15 5565.2 1295.09C5552.8 1279.22 5542.27 1266.95 5539.87 1265.75C5536.67 1264.15 5531.47 1263.89 5511.33 1264.42C5475.6 1265.22 5447.33 1265.09 5419.87 1263.75L5395.73 1262.69L5393.6 1265.89Z" fill="#1E317C"/>
<path d="M3927.6 1267.49C3926.4 1268.82 3926 1274.29 3926.27 1286.55L3926.67 1303.75L3951.33 1304.69C3987.33 1305.89 4002.27 1310.29 4006.67 1320.82C4008 1324.15 4008.67 1341.75 4009.47 1394.42C4010.93 1479.75 4010.4 1678.69 4008.67 1697.62C4007.33 1713.89 4005.73 1716.82 3995.87 1721.75C3989.73 1724.82 3987.87 1725.09 3962.67 1725.49C3947.47 1725.89 3935.33 1726.69 3934.4 1727.35C3931.87 1729.35 3932 1757.75 3934.53 1761.09C3936.27 1763.49 3940.67 1763.49 4051.2 1763.62C4135.87 1763.75 4166.53 1763.35 4167.47 1762.29C4168.13 1761.35 4168.53 1753.62 4168.4 1744.95L4168 1729.09L4150.93 1728.15C4123.33 1726.82 4112.67 1721.62 4105.07 1706.02L4101.33 1698.42L4100.93 1589.22C4100.53 1481.89 4100.53 1480.15 4098 1479.49C4095.33 1478.82 4095.33 1477.35 4095.33 1402.55C4095.33 1360.69 4096 1324.02 4096.67 1321.22C4098.27 1314.15 4101.73 1309.62 4108.13 1306.42C4112.53 1304.15 4116.93 1303.62 4136.4 1303.09C4154.93 1302.55 4159.73 1302.02 4160.67 1300.42C4161.33 1299.35 4162 1291.75 4162 1283.62C4162 1272.29 4161.6 1268.42 4160.13 1267.22C4158.67 1265.89 4148.4 1265.89 4116.4 1266.82C4075.2 1268.15 4033.47 1267.89 3964.67 1266.29C3934 1265.49 3929.07 1265.75 3927.6 1267.49Z" fill="#1E317C"/>
<path d="M4198.4 1267.22C4197.2 1268.42 4196.67 1273.75 4196.67 1283.89C4196.67 1303.09 4196.67 1303.09 4213.2 1303.09C4229.87 1303.09 4238.4 1305.75 4245.47 1313.09C4249.6 1317.35 4251.47 1320.55 4252.53 1325.75C4254.4 1334.69 4254.53 1443.09 4252.67 1443.09C4251.73 1443.09 4251.33 1487.49 4251.33 1573.49V1703.89L4248.4 1709.75C4246 1714.42 4243.73 1716.55 4238.8 1718.95C4232.93 1721.89 4229.73 1722.42 4213.07 1722.95C4198.13 1723.62 4193.6 1724.15 4192.53 1725.75C4190.67 1728.42 4191.73 1758.69 4193.6 1760.55C4194.67 1761.62 4202.53 1762.02 4219.6 1761.62C4250.27 1760.95 4335.6 1760.95 4370.27 1761.62C4390 1762.02 4397.2 1761.62 4398.67 1760.42C4401.33 1758.29 4401.6 1729.49 4399.07 1727.35C4398.13 1726.55 4388.13 1725.75 4376.67 1725.49C4356.93 1725.09 4355.73 1724.95 4349.73 1721.49C4345.33 1718.82 4342.67 1716.02 4340.4 1711.49L4337.33 1705.09L4336.93 1630.29L4336.53 1555.35L4339.6 1554.55C4345.47 1553.09 4378.53 1553.75 4385.47 1555.62C4412.13 1562.69 4428 1581.35 4470.93 1655.89C4505.47 1715.62 4523.6 1744.15 4535.2 1756.69L4541.33 1763.22L4607.87 1763.49C4672.53 1763.62 4674.53 1763.49 4675.47 1760.95C4677.2 1756.55 4676.8 1730.55 4675.07 1728.15C4673.73 1726.55 4669.87 1725.89 4660 1725.35C4652.67 1724.82 4643.6 1723.62 4639.87 1722.42C4629.73 1719.49 4617.6 1710.82 4604 1697.09C4588.4 1681.49 4578.67 1669.09 4552.27 1631.89C4505.07 1565.49 4492.4 1550.55 4477.73 1544.42C4473.47 1542.69 4470 1540.82 4470 1540.42C4470 1539.89 4476.4 1536.95 4484.4 1533.75C4547.6 1508.69 4580.93 1476.42 4593.73 1428.42C4596.53 1417.75 4597.07 1412.55 4597.2 1395.75C4597.33 1372.95 4595.6 1365.35 4586 1346.55C4566 1307.49 4535.47 1285.49 4484.4 1273.09C4456.4 1266.29 4440.93 1265.35 4371.33 1266.55C4292.13 1267.89 4291.33 1267.89 4241.33 1266.69C4208.93 1265.89 4199.6 1266.02 4198.4 1267.22ZM4414.27 1305.75C4422.53 1307.09 4434.53 1310.02 4440.8 1312.29C4456.8 1317.62 4478 1328.82 4486 1335.89C4493.73 1342.95 4503.07 1356.55 4507.73 1367.89C4527.73 1415.62 4505.2 1474.69 4456.8 1500.82C4431.2 1514.69 4392.53 1520.95 4355.07 1517.35L4343.33 1516.15V1418.69C4343.33 1324.95 4343.47 1320.82 4346 1315.35C4348.13 1310.69 4349.87 1309.09 4355.6 1306.42C4362 1303.35 4364.4 1303.09 4380.93 1303.09C4392.93 1303.09 4404.13 1304.02 4414.27 1305.75Z" fill="#1E317C"/>
<path d="M5118.27 1267.49C5117.07 1268.82 5116.67 1274.29 5116.93 1286.55L5117.33 1303.75L5142 1304.69C5169.2 1305.62 5182.4 1307.89 5190.27 1313.09C5199.33 1319.09 5198.93 1316.82 5200.27 1391.75C5201.6 1474.95 5201.07 1680.15 5199.33 1698.29C5198 1713.75 5196.27 1716.82 5186.53 1721.75C5180.4 1724.82 5178.53 1725.09 5153.33 1725.49C5130.8 1725.89 5126.4 1726.29 5125.07 1728.15C5122.67 1731.22 5122.67 1757.75 5125.2 1761.09C5126.93 1763.49 5131.33 1763.49 5241.87 1763.62C5326.53 1763.75 5357.2 1763.35 5358.13 1762.29C5358.8 1761.35 5359.2 1753.62 5359.07 1744.95L5358.67 1729.09L5341.73 1728.15C5314.4 1726.82 5303.6 1722.15 5296 1708.29L5292 1701.09L5291.6 1590.02C5291.33 1480.55 5291.2 1479.09 5288.67 1479.09C5286 1479.09 5286 1477.89 5286 1402.69C5286 1360.82 5286.67 1324.02 5287.33 1321.22C5288.93 1314.15 5292.4 1309.62 5298.8 1306.42C5303.2 1304.15 5307.6 1303.62 5327.07 1303.09C5345.6 1302.55 5350.4 1302.02 5351.33 1300.42C5352 1299.35 5352.67 1291.75 5352.67 1283.62C5352.67 1272.29 5352.27 1268.42 5350.8 1267.22C5349.33 1265.89 5339.07 1265.89 5307.07 1266.82C5265.87 1268.15 5224.13 1267.89 5155.33 1266.29C5124.67 1265.49 5119.73 1265.75 5118.27 1267.49Z" fill="#1E317C"/>
<path d="M8260.3 433V649.9H8387.2C8398.6 649.9 8406.4 645.4 8410.6 636.4C8414.8 626.8 8418.4 611.5 8421.4 590.5C8422 585.7 8423.8 582.7 8426.8 581.5C8429.8 579.7 8433.7 578.8 8438.5 578.8C8440.3 578.8 8443 579.1 8446.6 579.7C8450.8 579.7 8453.8 580 8455.6 580.6C8454.4 594.4 8453.2 610.6 8452 629.2C8451.4 647.2 8451.1 662.5 8451.1 675.1C8451.1 685.9 8451.4 698.8 8452 713.8C8452.6 728.2 8453.8 744.7 8455.6 763.3C8453.8 764.5 8450.8 765.4 8446.6 766C8443 766 8440.3 766 8438.5 766C8427.7 766 8422 761.8 8421.4 753.4C8417.8 730.6 8413.6 715.3 8408.8 707.5C8404.6 699.1 8397.4 694.9 8387.2 694.9H8260.3V896.5C8260.3 909.1 8268.1 917.5 8283.7 921.7C8299.3 925.9 8325.7 928 8362.9 928H8400.7C8418.7 928 8433.7 925.6 8445.7 920.8C8458.3 916 8469.4 909.4 8479 901C8488.6 892 8497 881.8 8504.2 870.4C8511.4 858.4 8518.6 845.2 8525.8 830.8C8527.6 826.6 8531.8 824.5 8538.4 824.5C8541.4 824.5 8545 825.4 8549.2 827.2C8553.4 829 8557.6 830.8 8561.8 832.6C8560.6 837.4 8559.1 841.9 8557.3 846.1C8556.1 850.3 8554.9 854.5 8553.7 858.7C8550.7 865.3 8548.3 872.5 8546.5 880.3C8544.7 888.1 8542.9 894.4 8541.1 899.2C8539.9 905.2 8538.4 912.1 8536.6 919.9C8535.4 927.1 8533.9 934.3 8532.1 941.5C8530.9 948.1 8529.4 954.1 8527.6 959.5C8526.4 964.9 8525.5 968.5 8524.9 970.3C8522.5 975.1 8517.7 977.5 8510.5 977.5C8505.7 977.5 8498.8 977.2 8489.8 976.6C8480.8 976 8470.9 975.4 8460.1 974.8C8449.9 974.8 8439.4 974.5 8428.6 973.9C8417.8 973.3 8408.5 973 8400.7 973H8196.4C8179 973 8158.9 973.3 8136.1 973.9C8113.9 975.1 8093.8 976.3 8075.8 977.5C8074.6 975.1 8074 972.1 8074 968.5C8074 964.3 8074 961.3 8074 959.5C8074 950.5 8077 945.7 8083 945.1C8105.8 940.9 8122 936.4 8131.6 931.6C8141.8 926.8 8146.9 918.4 8146.9 906.4V455.5C8146.9 449.5 8146 444.7 8144.2 441.1C8142.4 436.9 8138.8 433.6 8133.4 431.2C8128.6 428.2 8122 425.8 8113.6 424C8105.8 421.6 8095.6 419.2 8083 416.8C8077 415 8074 409.6 8074 400.6C8074 397.6 8074 394.9 8074 392.5C8074 389.5 8074.6 386.5 8075.8 383.5C8101.6 385.3 8124.4 386.5 8144.2 387.1C8164 387.7 8181.1 388 8195.5 388H8380C8407 388 8430.1 387.1 8449.3 385.3C8469.1 383.5 8482.6 382.6 8489.8 382.6C8496.4 382.6 8501.2 385.3 8504.2 390.7C8506 395.5 8507.5 404.5 8508.7 417.7C8509.9 430.3 8512 443.5 8515 457.3C8516.8 467.5 8518.9 477.4 8521.3 487C8523.7 496.6 8527.3 508.3 8532.1 522.1C8529.1 523.3 8525.8 524.5 8522.2 525.7C8518.6 526.9 8515 527.5 8511.4 527.5C8504.8 527.5 8500 524.8 8497 519.4C8489.8 503.8 8482.6 490.6 8475.4 479.8C8468.8 468.4 8461 459.4 8452 452.8C8443.6 445.6 8433.4 440.5 8421.4 437.5C8410 434.5 8396.2 433 8380 433H8260.3ZM9030.18 918.1C9030.18 926.5 9033.78 933.1 9040.98 937.9C9048.18 942.1 9061.38 945.7 9080.58 948.7C9082.98 949.3 9085.08 950.5 9086.88 952.3C9089.28 953.5 9090.48 956.2 9090.48 960.4C9090.48 964 9090.18 967.3 9089.58 970.3C9089.58 972.7 9089.28 975.1 9088.68 977.5C9073.08 976.3 9057.48 975.1 9041.88 973.9C9026.28 973.3 9006.78 973 8983.38 973C8964.18 973 8946.18 973.3 8929.38 973.9C8912.58 975.1 8896.38 976.3 8880.78 977.5C8879.58 974.5 8878.98 968.8 8878.98 960.4C8878.98 953.8 8882.28 949.9 8888.88 948.7C8904.48 945.7 8914.98 942.1 8920.38 937.9C8925.78 933.7 8928.48 927.1 8928.48 918.1V741.7C8928.48 706.3 8923.98 682 8914.98 668.8C8906.58 655 8892.78 648.1 8873.58 648.1C8846.58 648.1 8823.48 657.4 8804.28 676C8785.08 694 8775.48 721 8775.48 757V918.1C8775.48 927.1 8778.18 933.7 8783.58 937.9C8788.98 942.1 8799.48 945.7 8815.08 948.7C8821.68 949.9 8824.98 953.8 8824.98 960.4C8824.98 968.8 8824.38 974.5 8823.18 977.5C8807.58 976.3 8791.38 975.1 8774.58 973.9C8757.78 973.3 8739.78 973 8720.58 973C8697.18 973 8677.38 973.3 8661.18 973.9C8645.58 975.1 8630.28 976.3 8615.28 977.5C8614.68 975.1 8614.08 972.7 8613.48 970.3C8613.48 967.3 8613.48 964 8613.48 960.4C8613.48 956.2 8614.38 953.5 8616.18 952.3C8618.58 950.5 8620.98 949.3 8623.38 948.7C8642.58 945.1 8655.78 941.2 8662.98 937C8670.18 932.8 8673.78 926.2 8673.78 917.2V679.6C8673.78 661.6 8670.48 647.8 8663.88 638.2C8657.28 628.6 8643.48 622.9 8622.48 621.1C8614.68 619.3 8610.78 614.5 8610.78 606.7C8610.78 604.9 8610.78 602.8 8610.78 600.4C8610.78 597.4 8611.38 594.7 8612.58 592.3C8616.18 592.3 8621.28 592.3 8627.88 592.3C8635.08 591.7 8642.58 591.4 8650.38 591.4C8658.18 590.8 8665.98 590.2 8673.78 589.6C8681.58 589 8688.78 588.4 8695.38 587.8C8710.38 586 8724.78 583.6 8738.58 580.6C8752.38 577.6 8761.68 576.1 8766.48 576.1C8776.08 576.1 8780.88 580.6 8780.88 589.6C8780.88 596.2 8779.98 604.9 8778.18 615.7C8776.38 626.5 8775.48 641.5 8775.48 660.7C8794.68 635.5 8815.98 615.1 8839.38 599.5C8862.78 583.9 8887.08 576.1 8912.28 576.1C8948.88 576.1 8977.68 586.3 8998.68 606.7C9019.68 627.1 9030.18 657.7 9030.18 698.5V918.1ZM9202.99 957.7C9190.99 951.1 9181.69 942.1 9175.09 930.7C9169.09 919.3 9166.09 906.7 9166.09 892.9C9166.09 873.7 9170.59 858.4 9179.59 847C9188.59 835.6 9202.69 823.9 9221.89 811.9C9206.29 801.7 9192.49 788.8 9180.49 773.2C9168.49 757 9162.49 736.3 9162.49 711.1C9162.49 691.9 9166.69 674.2 9175.09 658C9184.09 641.2 9195.79 626.8 9210.19 614.8C9224.59 602.8 9241.39 593.5 9260.59 586.9C9279.79 579.7 9300.19 576.1 9321.79 576.1C9351.19 576.1 9376.09 580.6 9396.49 589.6C9417.49 598 9433.99 606.7 9445.99 615.7L9534.19 572.5C9541.39 577.3 9546.79 583.9 9550.39 592.3C9554.59 600.1 9556.69 607.6 9556.69 614.8C9556.69 620.8 9555.49 625.9 9553.09 630.1C9550.69 633.7 9546.19 635.5 9539.59 635.5C9537.19 635.5 9533.59 635.5 9528.79 635.5C9523.99 634.9 9520.09 634.6 9517.09 634.6C9510.49 634.6 9503.89 635.2 9497.29 636.4C9490.69 637 9482.29 638.8 9472.09 641.8C9486.49 660.4 9493.69 683.2 9493.69 710.2C9493.69 746.8 9478.99 777.1 9449.59 801.1C9420.79 825.1 9378.19 837.1 9321.79 837.1C9309.19 837.1 9297.19 836.5 9285.79 835.3C9274.39 833.5 9263.59 830.8 9253.39 827.2C9241.39 833.8 9232.99 840.4 9228.19 847C9223.39 853 9220.99 858.4 9220.99 863.2C9220.99 868 9222.19 872.2 9224.59 875.8C9226.99 879.4 9231.79 882.4 9238.99 884.8C9246.19 887.2 9256.39 889.3 9269.59 891.1C9283.39 892.3 9301.39 892.9 9323.59 892.9C9353.59 892.9 9381.19 895.6 9406.39 901C9431.59 905.8 9453.19 913.6 9471.19 924.4C9489.79 935.2 9504.19 949.3 9514.39 966.7C9524.59 983.5 9529.69 1003.9 9529.69 1027.9C9529.69 1049.5 9525.19 1069.9 9516.19 1089.1C9507.79 1108.9 9494.89 1126 9477.49 1140.4C9460.09 1155.4 9438.19 1167.1 9411.79 1175.5C9385.99 1184.5 9355.69 1189 9320.89 1189C9293.89 1189 9268.99 1186.6 9246.19 1181.8C9223.39 1177.6 9203.59 1170.4 9186.79 1160.2C9170.59 1150 9157.69 1136.8 9148.09 1120.6C9139.09 1104.4 9134.59 1084.3 9134.59 1060.3C9134.59 1036.9 9141.19 1016.5 9154.39 999.1C9168.19 982.3 9184.39 968.5 9202.99 957.7ZM9229.99 974.8C9223.39 983.2 9218.89 992.5 9216.49 1002.7C9214.69 1012.9 9213.79 1024 9213.79 1036C9213.79 1049.8 9215.89 1063 9220.09 1075.6C9224.89 1088.8 9232.39 1100.2 9242.59 1109.8C9252.79 1120 9265.99 1128.1 9282.19 1134.1C9298.39 1140.7 9317.89 1144 9340.69 1144C9377.89 1144 9404.89 1135.3 9421.69 1117.9C9439.09 1100.5 9447.79 1079.5 9447.79 1054.9C9447.79 1036.9 9438.49 1021.6 9419.89 1009C9401.29 997 9369.79 991 9325.39 991C9309.79 991 9292.99 989.5 9274.99 986.5C9256.99 983.5 9241.99 979.6 9229.99 974.8ZM9330.79 797.5C9348.19 797.5 9362.59 791.5 9373.99 779.5C9385.99 767.5 9391.99 748.3 9391.99 721.9C9391.99 708.7 9391.09 695.8 9389.29 683.2C9388.09 670.6 9384.79 659.5 9379.39 649.9C9373.99 639.7 9366.19 631.6 9355.99 625.6C9346.39 619 9333.49 615.7 9317.29 615.7C9301.09 615.7 9287.59 622.3 9276.79 635.5C9265.99 648.7 9260.59 666.7 9260.59 689.5C9260.59 703.3 9261.19 716.8 9262.39 730C9264.19 742.6 9267.49 754 9272.29 764.2C9277.69 773.8 9284.89 781.9 9293.89 788.5C9302.89 794.5 9315.19 797.5 9330.79 797.5ZM9705.04 973C9681.64 973 9661.54 973.3 9644.74 973.9C9627.94 975.1 9611.74 976.3 9596.14 977.5C9594.94 971.5 9594.34 965.8 9594.34 960.4C9594.34 956.2 9595.24 953.5 9597.04 952.3C9599.44 950.5 9601.84 949.3 9604.24 948.7C9623.44 945.1 9636.64 941.2 9643.84 937C9651.04 932.8 9654.64 926.2 9654.64 917.2V679.6C9654.64 661.6 9651.64 647.8 9645.64 638.2C9639.64 628.6 9625.54 622.9 9603.34 621.1C9595.54 619.9 9591.64 615.1 9591.64 606.7C9591.64 604.9 9591.64 602.8 9591.64 600.4C9591.64 597.4 9592.24 594.7 9593.44 592.3C9597.04 592.3 9602.14 592.3 9608.74 592.3C9615.94 591.7 9623.44 591.4 9631.24 591.4C9639.04 590.8 9646.84 590.2 9654.64 589.6C9662.44 589 9669.64 588.4 9676.24 587.8C9691.24 586 9705.64 583.6 9719.44 580.6C9733.24 577.6 9742.54 576.1 9747.34 576.1C9756.94 576.1 9761.74 580.6 9761.74 589.6C9761.74 596.2 9760.84 604.9 9759.04 615.7C9757.24 626.5 9756.34 641.5 9756.34 660.7V917.2C9756.34 926.2 9760.24 932.8 9768.04 937C9775.84 941.2 9788.74 945.1 9806.74 948.7C9813.34 949.9 9816.64 953.8 9816.64 960.4C9816.64 963.4 9816.64 966.4 9816.64 969.4C9816.64 972.4 9816.04 975.1 9814.84 977.5C9799.84 976.3 9783.64 975.1 9766.24 973.9C9748.84 973.3 9728.44 973 9705.04 973ZM9639.34 444.7C9639.34 425.5 9645.34 409.9 9657.34 397.9C9669.94 385.3 9685.54 379 9704.14 379C9723.34 379 9738.94 385.3 9750.94 397.9C9762.94 409.9 9768.94 425.5 9768.94 444.7C9768.94 463.9 9762.94 479.8 9750.94 492.4C9738.94 504.4 9723.34 510.4 9704.14 510.4C9685.54 510.4 9669.94 504.4 9657.34 492.4C9645.34 479.8 9639.34 463.9 9639.34 444.7ZM10282.6 918.1C10282.6 926.5 10286.2 933.1 10293.4 937.9C10300.6 942.1 10313.8 945.7 10333 948.7C10335.4 949.3 10337.5 950.5 10339.3 952.3C10341.7 953.5 10342.9 956.2 10342.9 960.4C10342.9 964 10342.6 967.3 10342 970.3C10342 972.7 10341.7 975.1 10341.1 977.5C10325.5 976.3 10309.9 975.1 10294.3 973.9C10278.7 973.3 10259.2 973 10235.8 973C10216.6 973 10198.6 973.3 10181.8 973.9C10165 975.1 10148.8 976.3 10133.2 977.5C10132 974.5 10131.4 968.8 10131.4 960.4C10131.4 953.8 10134.7 949.9 10141.3 948.7C10156.9 945.7 10167.4 942.1 10172.8 937.9C10178.2 933.7 10180.9 927.1 10180.9 918.1V741.7C10180.9 706.3 10176.4 682 10167.4 668.8C10159 655 10145.2 648.1 10126 648.1C10099 648.1 10075.9 657.4 10056.7 676C10037.5 694 10027.9 721 10027.9 757V918.1C10027.9 927.1 10030.6 933.7 10036 937.9C10041.4 942.1 10051.9 945.7 10067.5 948.7C10074.1 949.9 10077.4 953.8 10077.4 960.4C10077.4 968.8 10076.8 974.5 10075.6 977.5C10060 976.3 10043.8 975.1 10027 973.9C10010.2 973.3 9992.22 973 9973.02 973C9949.62 973 9929.82 973.3 9913.62 973.9C9898.02 975.1 9882.72 976.3 9867.72 977.5C9867.12 975.1 9866.52 972.7 9865.92 970.3C9865.92 967.3 9865.92 964 9865.92 960.4C9865.92 956.2 9866.82 953.5 9868.62 952.3C9871.02 950.5 9873.42 949.3 9875.82 948.7C9895.02 945.1 9908.22 941.2 9915.42 937C9922.62 932.8 9926.22 926.2 9926.22 917.2V679.6C9926.22 661.6 9922.92 647.8 9916.32 638.2C9909.72 628.6 9895.92 622.9 9874.92 621.1C9867.12 619.3 9863.22 614.5 9863.22 606.7C9863.22 604.9 9863.22 602.8 9863.22 600.4C9863.22 597.4 9863.82 594.7 9865.02 592.3C9868.62 592.3 9873.72 592.3 9880.32 592.3C9887.52 591.7 9895.02 591.4 9902.82 591.4C9910.62 590.8 9918.42 590.2 9926.22 589.6C9934.02 589 9941.22 588.4 9947.82 587.8C9962.82 586 9977.22 583.6 9991.02 580.6C10004.8 577.6 10014.1 576.1 10018.9 576.1C10028.5 576.1 10033.3 580.6 10033.3 589.6C10033.3 596.2 10032.4 604.9 10030.6 615.7C10028.8 626.5 10027.9 641.5 10027.9 660.7C10047.1 635.5 10068.4 615.1 10091.8 599.5C10115.2 583.9 10139.5 576.1 10164.7 576.1C10201.3 576.1 10230.1 586.3 10251.1 606.7C10272.1 627.1 10282.6 657.7 10282.6 698.5V918.1ZM10733.5 890.2C10738.9 886 10743.7 883.9 10747.9 883.9C10750.9 883.9 10754.2 885.4 10757.8 888.4C10762 890.8 10766.2 895.9 10770.4 903.7C10747 931.3 10720 951.7 10689.4 964.9C10659.4 977.5 10623.7 983.8 10582.3 983.8C10558.9 983.8 10535.8 980.2 10513 973C10490.8 965.2 10470.7 953.5 10452.7 937.9C10434.7 921.7 10420 901.6 10408.6 877.6C10397.8 853.6 10392.4 824.8 10392.4 791.2C10392.4 758.2 10398.7 728.5 10411.3 702.1C10424.5 675.1 10441 652.3 10460.8 633.7C10480.6 615.1 10502.2 601 10525.6 591.4C10549 581.2 10571.5 576.1 10593.1 576.1C10651.3 576.1 10695.1 592.9 10724.5 626.5C10754.5 660.1 10769.5 706 10769.5 764.2C10769.5 768.4 10767.4 770.5 10763.2 770.5L10504.9 781.3C10504.9 828.1 10515.4 864.1 10536.4 889.3C10557.4 913.9 10588.9 926.2 10630.9 926.2C10649.5 926.2 10667.8 923.2 10685.8 917.2C10703.8 911.2 10719.7 902.2 10733.5 890.2ZM10579.6 615.7C10556.2 615.7 10537.3 625.9 10522.9 646.3C10509.1 666.1 10502.2 697.6 10502.2 740.8L10642.6 734.5C10651.6 733.9 10656.1 730 10656.1 722.8C10656.1 711.4 10654.6 699.4 10651.6 686.8C10648.6 674.2 10643.8 662.8 10637.2 652.6C10631.2 641.8 10623.4 633.1 10613.8 626.5C10604.2 619.3 10592.8 615.7 10579.6 615.7ZM11168.6 890.2C11174 886 11178.8 883.9 11183 883.9C11186 883.9 11189.3 885.4 11192.9 888.4C11197.1 890.8 11201.3 895.9 11205.5 903.7C11182.1 931.3 11155.1 951.7 11124.5 964.9C11094.5 977.5 11058.8 983.8 11017.4 983.8C10994 983.8 10970.9 980.2 10948.1 973C10925.9 965.2 10905.8 953.5 10887.8 937.9C10869.8 921.7 10855.1 901.6 10843.7 877.6C10832.9 853.6 10827.5 824.8 10827.5 791.2C10827.5 758.2 10833.8 728.5 10846.4 702.1C10859.6 675.1 10876.1 652.3 10895.9 633.7C10915.7 615.1 10937.3 601 10960.7 591.4C10984.1 581.2 11006.6 576.1 11028.2 576.1C11086.4 576.1 11130.2 592.9 11159.6 626.5C11189.6 660.1 11204.6 706 11204.6 764.2C11204.6 768.4 11202.5 770.5 11198.3 770.5L10940 781.3C10940 828.1 10950.5 864.1 10971.5 889.3C10992.5 913.9 11024 926.2 11066 926.2C11084.6 926.2 11102.9 923.2 11120.9 917.2C11138.9 911.2 11154.8 902.2 11168.6 890.2ZM11014.7 615.7C10991.3 615.7 10972.4 625.9 10958 646.3C10944.2 666.1 10937.3 697.6 10937.3 740.8L11077.7 734.5C11086.7 733.9 11091.2 730 11091.2 722.8C11091.2 711.4 11089.7 699.4 11086.7 686.8C11083.7 674.2 11078.9 662.8 11072.3 652.6C11066.3 641.8 11058.5 633.1 11048.9 626.5C11039.3 619.3 11027.9 615.7 11014.7 615.7ZM11546.9 577C11564.3 577 11577.2 581.5 11585.6 590.5C11594.6 599.5 11599.1 610.9 11599.1 624.7C11599.1 628.9 11598.2 632.5 11596.4 635.5C11595.2 638.5 11591.9 641.8 11586.5 645.4C11581.7 649 11574.8 653.2 11565.8 658C11556.8 662.2 11545.1 667.6 11530.7 674.2C11521.1 664.6 11512.1 658.3 11503.7 655.3C11495.9 651.7 11488.1 649.9 11480.3 649.9C11473.1 649.9 11465.9 651.1 11458.7 653.5C11452.1 655.9 11446.1 660.7 11440.7 667.9C11435.3 674.5 11430.8 683.5 11427.2 694.9C11424.2 706.3 11422.7 721 11422.7 739V906.4C11422.7 918.4 11427.5 927.4 11437.1 933.4C11446.7 938.8 11465.6 943.9 11493.8 948.7C11500.4 949.9 11503.7 953.8 11503.7 960.4C11503.7 968.8 11503.1 974.5 11501.9 977.5C11494.1 976.9 11484.5 976.3 11473.1 975.7C11461.7 975.7 11449.7 975.4 11437.1 974.8C11424.5 974.2 11411.9 973.6 11399.3 973C11387.3 973 11376.5 973 11366.9 973C11344.1 973 11324.6 973.3 11308.4 973.9C11292.2 975.1 11276.9 976.3 11262.5 977.5C11261.3 974.5 11260.7 968.8 11260.7 960.4C11260.7 953.8 11264 949.9 11270.6 948.7C11289.8 945.1 11303 941.2 11310.2 937C11317.4 932.8 11321 926.2 11321 917.2V675.1C11321 661.3 11318.3 650.2 11312.9 641.8C11308.1 633.4 11294 627.7 11270.6 624.7C11262.2 623.5 11258 619 11258 611.2C11258 609.4 11258 607 11258 604C11258 601 11258.6 598.6 11259.8 596.8C11263.4 596.8 11268.5 596.8 11275.1 596.8C11281.7 596.2 11288.9 595.9 11296.7 595.9C11304.5 595.3 11312.3 594.7 11320.1 594.1C11327.9 593.5 11334.8 592.6 11340.8 591.4C11354 589.6 11367.5 587.5 11381.3 585.1C11395.7 582.1 11405.3 580.6 11410.1 580.6C11418.5 580.6 11422.7 585.1 11422.7 594.1V642.7C11443.7 619.9 11463.8 603.4 11483 593.2C11502.2 582.4 11523.5 577 11546.9 577ZM11738.8 973C11715.4 973 11695.3 973.3 11678.5 973.9C11661.7 975.1 11645.5 976.3 11629.9 977.5C11628.7 971.5 11628.1 965.8 11628.1 960.4C11628.1 956.2 11629 953.5 11630.8 952.3C11633.2 950.5 11635.6 949.3 11638 948.7C11657.2 945.1 11670.4 941.2 11677.6 937C11684.8 932.8 11688.4 926.2 11688.4 917.2V679.6C11688.4 661.6 11685.4 647.8 11679.4 638.2C11673.4 628.6 11659.3 622.9 11637.1 621.1C11629.3 619.9 11625.4 615.1 11625.4 606.7C11625.4 604.9 11625.4 602.8 11625.4 600.4C11625.4 597.4 11626 594.7 11627.2 592.3C11630.8 592.3 11635.9 592.3 11642.5 592.3C11649.7 591.7 11657.2 591.4 11665 591.4C11672.8 590.8 11680.6 590.2 11688.4 589.6C11696.2 589 11703.4 588.4 11710 587.8C11725 586 11739.4 583.6 11753.2 580.6C11767 577.6 11776.3 576.1 11781.1 576.1C11790.7 576.1 11795.5 580.6 11795.5 589.6C11795.5 596.2 11794.6 604.9 11792.8 615.7C11791 626.5 11790.1 641.5 11790.1 660.7V917.2C11790.1 926.2 11794 932.8 11801.8 937C11809.6 941.2 11822.5 945.1 11840.5 948.7C11847.1 949.9 11850.4 953.8 11850.4 960.4C11850.4 963.4 11850.4 966.4 11850.4 969.4C11850.4 972.4 11849.8 975.1 11848.6 977.5C11833.6 976.3 11817.4 975.1 11800 973.9C11782.6 973.3 11762.2 973 11738.8 973ZM11673.1 444.7C11673.1 425.5 11679.1 409.9 11691.1 397.9C11703.7 385.3 11719.3 379 11737.9 379C11757.1 379 11772.7 385.3 11784.7 397.9C11796.7 409.9 11802.7 425.5 11802.7 444.7C11802.7 463.9 11796.7 479.8 11784.7 492.4C11772.7 504.4 11757.1 510.4 11737.9 510.4C11719.3 510.4 11703.7 504.4 11691.1 492.4C11679.1 479.8 11673.1 463.9 11673.1 444.7ZM12316.4 918.1C12316.4 926.5 12320 933.1 12327.2 937.9C12334.4 942.1 12347.6 945.7 12366.8 948.7C12369.2 949.3 12371.3 950.5 12373.1 952.3C12375.5 953.5 12376.7 956.2 12376.7 960.4C12376.7 964 12376.4 967.3 12375.8 970.3C12375.8 972.7 12375.5 975.1 12374.9 977.5C12359.3 976.3 12343.7 975.1 12328.1 973.9C12312.5 973.3 12293 973 12269.6 973C12250.4 973 12232.4 973.3 12215.6 973.9C12198.8 975.1 12182.6 976.3 12167 977.5C12165.8 974.5 12165.2 968.8 12165.2 960.4C12165.2 953.8 12168.5 949.9 12175.1 948.7C12190.7 945.7 12201.2 942.1 12206.6 937.9C12212 933.7 12214.7 927.1 12214.7 918.1V741.7C12214.7 706.3 12210.2 682 12201.2 668.8C12192.8 655 12179 648.1 12159.8 648.1C12132.8 648.1 12109.7 657.4 12090.5 676C12071.3 694 12061.7 721 12061.7 757V918.1C12061.7 927.1 12064.4 933.7 12069.8 937.9C12075.2 942.1 12085.7 945.7 12101.3 948.7C12107.9 949.9 12111.2 953.8 12111.2 960.4C12111.2 968.8 12110.6 974.5 12109.4 977.5C12093.8 976.3 12077.6 975.1 12060.8 973.9C12044 973.3 12026 973 12006.8 973C11983.4 973 11963.6 973.3 11947.4 973.9C11931.8 975.1 11916.5 976.3 11901.5 977.5C11900.9 975.1 11900.3 972.7 11899.7 970.3C11899.7 967.3 11899.7 964 11899.7 960.4C11899.7 956.2 11900.6 953.5 11902.4 952.3C11904.8 950.5 11907.2 949.3 11909.6 948.7C11928.8 945.1 11942 941.2 11949.2 937C11956.4 932.8 11960 926.2 11960 917.2V679.6C11960 661.6 11956.7 647.8 11950.1 638.2C11943.5 628.6 11929.7 622.9 11908.7 621.1C11900.9 619.3 11897 614.5 11897 606.7C11897 604.9 11897 602.8 11897 600.4C11897 597.4 11897.6 594.7 11898.8 592.3C11902.4 592.3 11907.5 592.3 11914.1 592.3C11921.3 591.7 11928.8 591.4 11936.6 591.4C11944.4 590.8 11952.2 590.2 11960 589.6C11967.8 589 11975 588.4 11981.6 587.8C11996.6 586 12011 583.6 12024.8 580.6C12038.6 577.6 12047.9 576.1 12052.7 576.1C12062.3 576.1 12067.1 580.6 12067.1 589.6C12067.1 596.2 12066.2 604.9 12064.4 615.7C12062.6 626.5 12061.7 641.5 12061.7 660.7C12080.9 635.5 12102.2 615.1 12125.6 599.5C12149 583.9 12173.3 576.1 12198.5 576.1C12235.1 576.1 12263.9 586.3 12284.9 606.7C12305.9 627.1 12316.4 657.7 12316.4 698.5V918.1ZM12489.2 957.7C12477.2 951.1 12467.9 942.1 12461.3 930.7C12455.3 919.3 12452.3 906.7 12452.3 892.9C12452.3 873.7 12456.8 858.4 12465.8 847C12474.8 835.6 12488.9 823.9 12508.1 811.9C12492.5 801.7 12478.7 788.8 12466.7 773.2C12454.7 757 12448.7 736.3 12448.7 711.1C12448.7 691.9 12452.9 674.2 12461.3 658C12470.3 641.2 12482 626.8 12496.4 614.8C12510.8 602.8 12527.6 593.5 12546.8 586.9C12566 579.7 12586.4 576.1 12608 576.1C12637.4 576.1 12662.3 580.6 12682.7 589.6C12703.7 598 12720.2 606.7 12732.2 615.7L12820.4 572.5C12827.6 577.3 12833 583.9 12836.6 592.3C12840.8 600.1 12842.9 607.6 12842.9 614.8C12842.9 620.8 12841.7 625.9 12839.3 630.1C12836.9 633.7 12832.4 635.5 12825.8 635.5C12823.4 635.5 12819.8 635.5 12815 635.5C12810.2 634.9 12806.3 634.6 12803.3 634.6C12796.7 634.6 12790.1 635.2 12783.5 636.4C12776.9 637 12768.5 638.8 12758.3 641.8C12772.7 660.4 12779.9 683.2 12779.9 710.2C12779.9 746.8 12765.2 777.1 12735.8 801.1C12707 825.1 12664.4 837.1 12608 837.1C12595.4 837.1 12583.4 836.5 12572 835.3C12560.6 833.5 12549.8 830.8 12539.6 827.2C12527.6 833.8 12519.2 840.4 12514.4 847C12509.6 853 12507.2 858.4 12507.2 863.2C12507.2 868 12508.4 872.2 12510.8 875.8C12513.2 879.4 12518 882.4 12525.2 884.8C12532.4 887.2 12542.6 889.3 12555.8 891.1C12569.6 892.3 12587.6 892.9 12609.8 892.9C12639.8 892.9 12667.4 895.6 12692.6 901C12717.8 905.8 12739.4 913.6 12757.4 924.4C12776 935.2 12790.4 949.3 12800.6 966.7C12810.8 983.5 12815.9 1003.9 12815.9 1027.9C12815.9 1049.5 12811.4 1069.9 12802.4 1089.1C12794 1108.9 12781.1 1126 12763.7 1140.4C12746.3 1155.4 12724.4 1167.1 12698 1175.5C12672.2 1184.5 12641.9 1189 12607.1 1189C12580.1 1189 12555.2 1186.6 12532.4 1181.8C12509.6 1177.6 12489.8 1170.4 12473 1160.2C12456.8 1150 12443.9 1136.8 12434.3 1120.6C12425.3 1104.4 12420.8 1084.3 12420.8 1060.3C12420.8 1036.9 12427.4 1016.5 12440.6 999.1C12454.4 982.3 12470.6 968.5 12489.2 957.7ZM12516.2 974.8C12509.6 983.2 12505.1 992.5 12502.7 1002.7C12500.9 1012.9 12500 1024 12500 1036C12500 1049.8 12502.1 1063 12506.3 1075.6C12511.1 1088.8 12518.6 1100.2 12528.8 1109.8C12539 1120 12552.2 1128.1 12568.4 1134.1C12584.6 1140.7 12604.1 1144 12626.9 1144C12664.1 1144 12691.1 1135.3 12707.9 1117.9C12725.3 1100.5 12734 1079.5 12734 1054.9C12734 1036.9 12724.7 1021.6 12706.1 1009C12687.5 997 12656 991 12611.6 991C12596 991 12579.2 989.5 12561.2 986.5C12543.2 983.5 12528.2 979.6 12516.2 974.8ZM12617 797.5C12634.4 797.5 12648.8 791.5 12660.2 779.5C12672.2 767.5 12678.2 748.3 12678.2 721.9C12678.2 708.7 12677.3 695.8 12675.5 683.2C12674.3 670.6 12671 659.5 12665.6 649.9C12660.2 639.7 12652.4 631.6 12642.2 625.6C12632.6 619 12619.7 615.7 12603.5 615.7C12587.3 615.7 12573.8 622.3 12563 635.5C12552.2 648.7 12546.8 666.7 12546.8 689.5C12546.8 703.3 12547.4 716.8 12548.6 730C12550.4 742.6 12553.7 754 12558.5 764.2C12563.9 773.8 12571.1 781.9 12580.1 788.5C12589.1 794.5 12601.4 797.5 12617 797.5ZM8232.4 1918C8232.4 1930 8236.6 1938.4 8245 1943.2C8253.4 1947.4 8269 1951.9 8291.8 1956.7C8297.8 1957.9 8300.8 1962.7 8300.8 1971.1C8300.8 1974.7 8300.2 1979.5 8299 1985.5C8280.4 1984.3 8261.8 1983.1 8243.2 1981.9C8224.6 1981.3 8206.9 1981 8190.1 1981C8173.9 1981 8155.9 1981.3 8136.1 1981.9C8116.9 1983.1 8098.6 1984.3 8081.2 1985.5C8080 1979.5 8079.4 1974.7 8079.4 1971.1C8079.4 1962.7 8082.4 1957.9 8088.4 1956.7C8111.2 1952.5 8126.8 1948 8135.2 1943.2C8143.6 1938.4 8147.8 1930 8147.8 1918V1459.9C8147.8 1447.9 8143.6 1439.5 8135.2 1434.7C8126.8 1429.3 8111.2 1424.8 8088.4 1421.2C8084.8 1420.6 8082.4 1418.8 8081.2 1415.8C8080 1412.8 8079.4 1409.5 8079.4 1405.9C8079.4 1402.3 8080 1397.5 8081.2 1391.5C8099.2 1392.7 8117.8 1393.9 8137 1395.1C8156.8 1395.7 8174.5 1396 8190.1 1396C8205.1 1396 8222.2 1395.7 8241.4 1395.1C8261.2 1393.9 8280.4 1392.7 8299 1391.5C8300.2 1397.5 8300.8 1402.3 8300.8 1405.9C8300.8 1414.9 8297.8 1420 8291.8 1421.2C8269 1424.8 8253.4 1429.3 8245 1434.7C8236.6 1439.5 8232.4 1447.9 8232.4 1459.9V1918ZM8769.58 1929.7C8769.58 1938.7 8774.98 1945.6 8785.78 1950.4C8796.58 1954.6 8808.58 1957.9 8821.78 1960.3C8827.18 1961.5 8829.88 1965.1 8829.88 1971.1C8829.88 1974.7 8829.28 1979.5 8828.08 1985.5C8812.48 1984.3 8797.18 1983.1 8782.18 1981.9C8767.18 1981.3 8750.98 1981 8733.58 1981C8717.38 1981 8701.18 1981.3 8684.98 1981.9C8669.38 1983.1 8653.78 1984.3 8638.18 1985.5C8636.98 1979.5 8636.38 1974.7 8636.38 1971.1C8636.38 1965.1 8639.08 1961.5 8644.48 1960.3C8657.08 1957.9 8668.48 1954.6 8678.68 1950.4C8688.88 1945.6 8693.98 1938.7 8693.98 1929.7V1753.3C8693.98 1738.3 8693.08 1724.5 8691.28 1711.9C8689.48 1699.3 8685.88 1688.5 8680.48 1679.5C8675.68 1669.9 8668.78 1662.7 8659.78 1657.9C8651.38 1652.5 8640.28 1649.8 8626.48 1649.8C8611.48 1649.8 8596.78 1652.5 8582.38 1657.9C8567.98 1662.7 8555.08 1670.2 8543.68 1680.4C8532.88 1690 8524.18 1702 8517.58 1716.4C8510.98 1730.8 8507.68 1747.3 8507.68 1765.9V1929.7C8507.68 1938.7 8512.78 1945.6 8522.98 1950.4C8533.78 1954.6 8545.18 1957.9 8557.18 1960.3C8562.58 1961.5 8565.28 1965.1 8565.28 1971.1C8565.28 1974.7 8564.68 1979.5 8563.48 1985.5C8547.88 1984.3 8532.58 1983.1 8517.58 1981.9C8502.58 1981.3 8486.68 1981 8469.88 1981C8452.48 1981 8435.98 1981.3 8420.38 1981.9C8404.78 1983.1 8389.48 1984.3 8374.48 1985.5C8373.28 1979.5 8372.68 1974.7 8372.68 1971.1C8372.68 1965.1 8375.38 1961.5 8380.78 1960.3C8393.98 1957.9 8405.98 1954.6 8416.78 1950.4C8427.58 1945.6 8432.98 1938.4 8432.98 1928.8V1684C8432.98 1666 8429.68 1653.1 8423.08 1645.3C8417.08 1637.5 8403.58 1632.7 8382.58 1630.9C8374.78 1629.7 8370.88 1625.5 8370.88 1618.3C8370.88 1615.3 8371.48 1611.4 8372.68 1606.6C8380.48 1606.6 8391.28 1606.3 8405.08 1605.7C8419.48 1604.5 8431.18 1603.3 8440.18 1602.1C8453.98 1599.7 8466.28 1597.3 8477.08 1594.9C8487.88 1591.9 8495.68 1590.4 8500.48 1590.4C8508.88 1590.4 8513.08 1594.9 8513.08 1603.9C8513.08 1612.3 8512.18 1622.5 8510.38 1634.5C8508.58 1645.9 8507.68 1661.2 8507.68 1680.4C8533.48 1651.6 8558.08 1629.4 8581.48 1613.8C8605.48 1598.2 8631.58 1590.4 8659.78 1590.4C8696.38 1590.4 8723.68 1601.2 8741.68 1622.8C8760.28 1643.8 8769.58 1673.2 8769.58 1711V1929.7ZM9086.08 1927.9C9089.08 1924.9 9091.48 1923.1 9093.28 1922.5C9095.68 1921.9 9097.48 1921.6 9098.68 1921.6C9104.08 1921.6 9108.88 1925.5 9113.08 1933.3C9097.48 1950.7 9080.68 1964.8 9062.68 1975.6C9044.68 1986.4 9025.48 1991.8 9005.08 1991.8C8993.08 1991.8 8981.68 1990.3 8970.88 1987.3C8960.08 1984.9 8950.78 1979.8 8942.98 1972C8935.18 1964.2 8928.88 1953.7 8924.08 1940.5C8919.88 1926.7 8917.78 1909 8917.78 1887.4V1639H8863.78V1629.1C8863.78 1624.9 8864.38 1621 8865.58 1617.4C8867.38 1613.8 8870.68 1612 8875.48 1612C8891.68 1612 8904.88 1607.8 8915.08 1599.4C8925.28 1591 8933.68 1580.2 8940.28 1567C8947.48 1552.6 8953.78 1539.1 8959.18 1526.5C8964.58 1513.9 8970.58 1507.6 8977.18 1507.6H8993.38V1601.2H9098.68C9098.68 1613.8 9097.18 1623.4 9094.18 1630C9091.78 1636 9086.98 1639 9079.78 1639H8993.38V1862.2C8993.38 1881.4 8994.28 1897 8996.08 1909C8997.88 1920.4 9000.58 1929.4 9004.18 1936C9007.78 1942 9011.98 1945.9 9016.78 1947.7C9021.58 1949.5 9026.98 1950.4 9032.98 1950.4C9043.18 1950.4 9052.48 1948.3 9060.88 1944.1C9069.88 1939.3 9078.28 1933.9 9086.08 1927.9ZM9467.57 1897.3C9471.77 1893.1 9476.27 1891 9481.07 1891C9487.07 1891 9492.77 1896.1 9498.17 1906.3C9490.37 1917.1 9481.37 1927.6 9471.17 1937.8C9460.97 1948 9448.67 1957.3 9434.27 1965.7C9420.47 1973.5 9404.57 1979.8 9386.57 1984.6C9368.57 1989.4 9347.87 1991.8 9324.47 1991.8C9300.47 1991.8 9277.67 1987.9 9256.07 1980.1C9234.47 1972.3 9215.27 1960.3 9198.47 1944.1C9182.27 1927.9 9169.07 1907.8 9158.87 1883.8C9149.27 1859.8 9144.47 1831.6 9144.47 1799.2C9144.47 1768.6 9150.17 1740.4 9161.57 1714.6C9173.57 1688.8 9188.87 1666.9 9207.47 1648.9C9226.07 1630.3 9246.47 1615.9 9268.67 1605.7C9291.47 1595.5 9313.37 1590.4 9334.37 1590.4C9390.17 1590.4 9430.67 1606.6 9455.87 1639C9481.67 1671.4 9494.57 1713.7 9494.57 1765.9C9494.57 1769.5 9492.77 1771.3 9489.17 1771.3L9228.17 1783C9228.17 1806.4 9231.47 1828 9238.07 1847.8C9244.67 1867.6 9253.97 1884.7 9265.97 1899.1C9277.97 1913.5 9292.37 1924.9 9309.17 1933.3C9326.57 1941.1 9346.07 1945 9367.67 1945C9386.87 1945 9405.17 1940.5 9422.57 1931.5C9440.57 1922.5 9455.57 1911.1 9467.57 1897.3ZM9321.77 1622.8C9291.77 1622.8 9268.37 1634.5 9251.57 1657.9C9234.77 1681.3 9226.37 1711.9 9226.37 1749.7L9396.47 1741.6C9405.47 1741.6 9409.97 1737.7 9409.97 1729.9C9409.97 1718.5 9408.17 1706.5 9404.57 1693.9C9400.97 1681.3 9395.57 1669.9 9388.37 1659.7C9381.17 1648.9 9371.87 1640.2 9360.47 1633.6C9349.67 1626.4 9336.77 1622.8 9321.77 1622.8ZM9817.53 1591.3C9834.93 1591.3 9847.83 1595.5 9856.23 1603.9C9864.63 1612.3 9868.83 1621.6 9868.83 1631.8C9868.83 1635.4 9868.23 1638.7 9867.03 1641.7C9865.83 1644.7 9862.83 1648 9858.03 1651.6C9853.83 1654.6 9847.53 1658.5 9839.13 1663.3C9831.33 1667.5 9820.23 1672.9 9805.83 1679.5C9800.43 1672.9 9793.83 1667.2 9786.03 1662.4C9778.83 1657.6 9770.73 1655.2 9761.73 1655.2C9751.53 1655.2 9742.23 1658.2 9733.83 1664.2C9725.43 1669.6 9718.23 1677.4 9712.23 1687.6C9706.23 1697.2 9701.43 1708.6 9697.83 1721.8C9694.83 1734.4 9693.33 1747.6 9693.33 1761.4V1916.2C9693.33 1929.4 9700.23 1939.3 9714.03 1945.9C9727.83 1951.9 9747.63 1956.7 9773.43 1960.3C9779.43 1961.5 9782.43 1965.1 9782.43 1971.1C9782.43 1974.7 9781.83 1979.5 9780.63 1985.5C9774.03 1984.9 9765.63 1984.3 9755.43 1983.7C9745.83 1983.7 9735.63 1983.4 9724.83 1982.8C9714.03 1982.2 9702.93 1981.6 9691.53 1981C9680.13 1981 9669.63 1981 9660.03 1981C9643.83 1981 9627.03 1981.3 9609.63 1981.9C9592.23 1983.1 9575.73 1984.3 9560.13 1985.5C9558.92 1979.5 9558.32 1974.7 9558.32 1971.1C9558.32 1965.1 9561.03 1961.5 9566.43 1960.3C9580.23 1957.9 9592.23 1954.3 9602.43 1949.5C9613.23 1944.7 9618.63 1937.8 9618.63 1928.8V1700.2C9618.63 1687.6 9617.73 1677.1 9615.93 1668.7C9614.73 1660.3 9612.33 1653.7 9608.73 1648.9C9605.13 1643.5 9599.73 1639.6 9592.53 1637.2C9585.93 1634.8 9577.23 1633 9566.43 1631.8C9558.63 1630.6 9554.73 1626.7 9554.73 1620.1C9554.73 1616.5 9555.33 1612.3 9556.53 1607.5C9564.33 1607.5 9575.13 1607.2 9588.93 1606.6C9603.33 1605.4 9615.03 1604.2 9624.03 1603C9637.23 1600.6 9648.63 1598.2 9658.23 1595.8C9668.43 1592.8 9675.93 1591.3 9680.73 1591.3C9689.13 1591.3 9693.33 1595.8 9693.33 1604.8V1665.1C9712.53 1644.1 9731.73 1626.7 9750.93 1612.9C9770.73 1598.5 9792.93 1591.3 9817.53 1591.3ZM10296.2 1929.7C10296.2 1938.7 10301.6 1945.6 10312.4 1950.4C10323.2 1954.6 10335.2 1957.9 10348.4 1960.3C10353.8 1961.5 10356.5 1965.1 10356.5 1971.1C10356.5 1974.7 10355.9 1979.5 10354.7 1985.5C10339.1 1984.3 10323.8 1983.1 10308.8 1981.9C10293.8 1981.3 10277.6 1981 10260.2 1981C10244 1981 10227.8 1981.3 10211.6 1981.9C10196 1983.1 10180.4 1984.3 10164.8 1985.5C10163.6 1979.5 10163 1974.7 10163 1971.1C10163 1965.1 10165.7 1961.5 10171.1 1960.3C10183.7 1957.9 10195.1 1954.6 10205.3 1950.4C10215.5 1945.6 10220.6 1938.7 10220.6 1929.7V1753.3C10220.6 1738.3 10219.7 1724.5 10217.9 1711.9C10216.1 1699.3 10212.5 1688.5 10207.1 1679.5C10202.3 1669.9 10195.4 1662.7 10186.4 1657.9C10178 1652.5 10166.9 1649.8 10153.1 1649.8C10138.1 1649.8 10123.4 1652.5 10109 1657.9C10094.6 1662.7 10081.7 1670.2 10070.3 1680.4C10059.5 1690 10050.8 1702 10044.2 1716.4C10037.6 1730.8 10034.3 1747.3 10034.3 1765.9V1929.7C10034.3 1938.7 10039.4 1945.6 10049.6 1950.4C10060.4 1954.6 10071.8 1957.9 10083.8 1960.3C10089.2 1961.5 10091.9 1965.1 10091.9 1971.1C10091.9 1974.7 10091.3 1979.5 10090.1 1985.5C10074.5 1984.3 10059.2 1983.1 10044.2 1981.9C10029.2 1981.3 10013.3 1981 9996.54 1981C9979.14 1981 9962.64 1981.3 9947.04 1981.9C9931.44 1983.1 9916.14 1984.3 9901.14 1985.5C9899.94 1979.5 9899.34 1974.7 9899.34 1971.1C9899.34 1965.1 9902.04 1961.5 9907.44 1960.3C9920.64 1957.9 9932.64 1954.6 9943.44 1950.4C9954.24 1945.6 9959.64 1938.4 9959.64 1928.8V1684C9959.64 1666 9956.34 1653.1 9949.74 1645.3C9943.74 1637.5 9930.24 1632.7 9909.24 1630.9C9901.44 1629.7 9897.54 1625.5 9897.54 1618.3C9897.54 1615.3 9898.14 1611.4 9899.34 1606.6C9907.14 1606.6 9917.94 1606.3 9931.74 1605.7C9946.14 1604.5 9957.84 1603.3 9966.84 1602.1C9980.64 1599.7 9992.94 1597.3 10003.7 1594.9C10014.5 1591.9 10022.3 1590.4 10027.1 1590.4C10035.5 1590.4 10039.7 1594.9 10039.7 1603.9C10039.7 1612.3 10038.8 1622.5 10037 1634.5C10035.2 1645.9 10034.3 1661.2 10034.3 1680.4C10060.1 1651.6 10084.7 1629.4 10108.1 1613.8C10132.1 1598.2 10158.2 1590.4 10186.4 1590.4C10223 1590.4 10250.3 1601.2 10268.3 1622.8C10286.9 1643.8 10296.2 1673.2 10296.2 1711V1929.7ZM10785.3 1956.7C10791.9 1956.7 10795.5 1963 10796.1 1975.6C10780.5 1986.4 10760.7 1991.8 10736.7 1991.8C10723.5 1991.8 10712.1 1989.7 10702.5 1985.5C10692.9 1981.9 10684.8 1976.8 10678.2 1970.2C10671.6 1963.6 10666.5 1956.1 10662.9 1947.7C10659.3 1939.3 10656.9 1930.6 10655.7 1921.6C10640.7 1948.6 10622.7 1967.2 10601.7 1977.4C10581.3 1987 10557.6 1991.8 10530.6 1991.8C10518.6 1991.8 10505.7 1990.6 10491.9 1988.2C10478.7 1986.4 10466.1 1982.2 10454.1 1975.6C10442.1 1969 10432.2 1959.7 10424.4 1947.7C10416.6 1935.7 10412.7 1919.8 10412.7 1900C10412.7 1877.8 10417.8 1859.2 10428 1844.2C10438.8 1828.6 10452.3 1816 10468.5 1806.4C10485.3 1796.2 10503.3 1788.1 10522.5 1782.1C10542.3 1776.1 10561.2 1771 10579.2 1766.8C10589.4 1765 10598.7 1763.2 10607.1 1761.4C10616.1 1759 10623.9 1756.6 10630.5 1754.2C10638.9 1751.8 10644 1748.5 10645.8 1744.3C10648.2 1740.1 10649.4 1732 10649.4 1720C10649.4 1691.8 10644 1668.7 10633.2 1650.7C10622.4 1632.1 10603.2 1622.8 10575.6 1622.8C10565.4 1622.8 10556.7 1624 10549.5 1626.4C10542.3 1628.8 10536.3 1632.7 10531.5 1638.1C10526.7 1642.9 10522.5 1649.5 10518.9 1657.9C10515.3 1666.3 10511.7 1676.2 10508.1 1687.6C10506.3 1694.2 10502.1 1699 10495.5 1702C10489.5 1705 10479 1708.6 10464 1712.8C10460.4 1714 10455.9 1715.2 10450.5 1716.4C10445.1 1717.6 10440.6 1718.2 10437 1718.2C10431 1718.2 10428 1711.9 10428 1699.3C10428 1686.1 10433.1 1672.9 10443.3 1659.7C10453.5 1646.5 10466.4 1634.8 10482 1624.6C10498.2 1614.4 10515.6 1606.3 10534.2 1600.3C10552.8 1593.7 10570.5 1590.4 10587.3 1590.4C10608.3 1590.4 10627.2 1592.2 10644 1595.8C10660.8 1599.4 10675.2 1606 10687.2 1615.6C10699.2 1625.2 10708.2 1638.1 10714.2 1654.3C10720.8 1670.5 10724.1 1691.5 10724.1 1717.3V1872.1C10724.1 1893.1 10724.7 1908.4 10725.9 1918C10727.7 1927 10730.1 1934.2 10733.1 1939.6C10737.3 1948 10741.8 1953.7 10746.6 1956.7C10752 1959.1 10757.4 1960.3 10762.8 1960.3C10769.4 1960.3 10773.9 1959.7 10776.3 1958.5C10779.3 1957.3 10782.3 1956.7 10785.3 1956.7ZM10649.4 1781.2L10620.6 1785.7C10605 1788.7 10589.7 1792.3 10574.7 1796.5C10560.3 1800.7 10547.4 1806.7 10536 1814.5C10524.6 1821.7 10515.3 1831 10508.1 1842.4C10501.5 1853.8 10498.2 1867.9 10498.2 1884.7C10498.2 1907.5 10503.9 1924.9 10515.3 1936.9C10527.3 1948.9 10542 1954.9 10559.4 1954.9C10570.8 1954.9 10581.9 1952.5 10592.7 1947.7C10604.1 1942.3 10613.7 1935.1 10621.5 1926.1C10629.9 1916.5 10636.5 1905.4 10641.3 1892.8C10646.7 1880.2 10649.4 1866.4 10649.4 1851.4V1781.2ZM11042.5 1927.9C11045.5 1924.9 11047.9 1923.1 11049.7 1922.5C11052.1 1921.9 11053.9 1921.6 11055.1 1921.6C11060.5 1921.6 11065.3 1925.5 11069.5 1933.3C11053.9 1950.7 11037.1 1964.8 11019.1 1975.6C11001.1 1986.4 10981.9 1991.8 10961.5 1991.8C10949.5 1991.8 10938.1 1990.3 10927.3 1987.3C10916.5 1984.9 10907.2 1979.8 10899.4 1972C10891.6 1964.2 10885.3 1953.7 10880.5 1940.5C10876.3 1926.7 10874.2 1909 10874.2 1887.4V1639H10820.2V1629.1C10820.2 1624.9 10820.8 1621 10822 1617.4C10823.8 1613.8 10827.1 1612 10831.9 1612C10848.1 1612 10861.3 1607.8 10871.5 1599.4C10881.7 1591 10890.1 1580.2 10896.7 1567C10903.9 1552.6 10910.2 1539.1 10915.6 1526.5C10921 1513.9 10927 1507.6 10933.6 1507.6H10949.8V1601.2H11055.1C11055.1 1613.8 11053.6 1623.4 11050.6 1630C11048.2 1636 11043.4 1639 11036.2 1639H10949.8V1862.2C10949.8 1881.4 10950.7 1897 10952.5 1909C10954.3 1920.4 10957 1929.4 10960.6 1936C10964.2 1942 10968.4 1945.9 10973.2 1947.7C10978 1949.5 10983.4 1950.4 10989.4 1950.4C10999.6 1950.4 11008.9 1948.3 11017.3 1944.1C11026.3 1939.3 11034.7 1933.9 11042.5 1927.9ZM11203.3 1981C11193.1 1981 11182.6 1981 11171.8 1981C11161.6 1981.6 11152 1982.2 11143 1982.8C11134 1983.4 11126.2 1984 11119.6 1984.6C11113 1985.2 11108.8 1985.5 11107 1985.5C11107 1984.9 11106.7 1982.8 11106.1 1979.2C11105.5 1975.6 11105.2 1972.9 11105.2 1971.1C11105.2 1965.1 11107.9 1961.5 11113.3 1960.3C11128.9 1957.3 11141.5 1953.7 11151.1 1949.5C11160.7 1945.3 11165.5 1938.4 11165.5 1928.8V1684C11165.5 1666 11162.2 1653.1 11155.6 1645.3C11149.6 1637.5 11136.1 1632.7 11115.1 1630.9C11107.3 1629.7 11103.4 1625.5 11103.4 1618.3C11103.4 1615.3 11104 1611.4 11105.2 1606.6C11113 1606.6 11123.8 1606.3 11137.6 1605.7C11152 1604.5 11163.7 1603.3 11172.7 1602.1C11186.5 1599.7 11198.8 1597.3 11209.6 1594.9C11220.4 1591.9 11228.2 1590.4 11233 1590.4C11241.4 1590.4 11245.6 1594.9 11245.6 1603.9C11245.6 1612.3 11244.7 1622.5 11242.9 1634.5C11241.1 1645.9 11240.2 1661.2 11240.2 1680.4V1928.8C11240.2 1938.4 11244.7 1945.3 11253.7 1949.5C11263.3 1953.7 11276.5 1957.3 11293.3 1960.3C11298.1 1961.5 11300.5 1965.1 11300.5 1971.1C11300.5 1972.9 11300.2 1975.6 11299.6 1979.2C11299.6 1982.8 11299.3 1984.9 11298.7 1985.5C11296.9 1985.5 11292.7 1985.2 11286.1 1984.6C11280.1 1984 11272.6 1983.4 11263.6 1982.8C11254.6 1982.2 11244.7 1981.6 11233.9 1981C11223.7 1981 11213.5 1981 11203.3 1981ZM11151.1 1440.1C11151.1 1425.7 11155.9 1413.4 11165.5 1403.2C11175.7 1392.4 11188.3 1387 11203.3 1387C11217.7 1387 11229.7 1392.4 11239.3 1403.2C11248.9 1413.4 11253.7 1425.7 11253.7 1440.1C11253.7 1455.7 11248.9 1468.3 11239.3 1477.9C11229.7 1487.5 11217.7 1492.3 11203.3 1492.3C11188.3 1492.3 11175.7 1487.5 11165.5 1477.9C11155.9 1468.3 11151.1 1455.7 11151.1 1440.1ZM11354 1791.1C11354 1763.5 11359.1 1737.4 11369.3 1712.8C11380.1 1688.2 11394.5 1666.9 11412.5 1648.9C11430.5 1630.9 11451.5 1616.8 11475.5 1606.6C11500.1 1595.8 11526.5 1590.4 11554.7 1590.4C11584.1 1590.4 11611.1 1595.5 11635.7 1605.7C11660.3 1615.3 11681.3 1628.8 11698.7 1646.2C11716.7 1663.6 11730.5 1684.9 11740.1 1710.1C11750.3 1734.7 11755.4 1761.7 11755.4 1791.1C11755.4 1819.3 11750 1845.7 11739.2 1870.3C11729 1894.3 11714.9 1915.3 11696.9 1933.3C11678.9 1951.3 11657.6 1965.7 11633 1976.5C11609 1986.7 11582.9 1991.8 11554.7 1991.8C11525.3 1991.8 11498.3 1987 11473.7 1977.4C11449.1 1967.2 11427.8 1953.4 11409.8 1936C11392.4 1918.6 11378.6 1897.6 11368.4 1873C11358.8 1848.4 11354 1821.1 11354 1791.1ZM11438.6 1761.4C11438.6 1783.6 11441 1806.4 11445.8 1829.8C11450.6 1853.2 11457.8 1874.5 11467.4 1893.7C11477.6 1912.3 11490.5 1927.9 11506.1 1940.5C11521.7 1952.5 11540.6 1958.5 11562.8 1958.5C11597 1958.5 11623.4 1946.5 11642 1922.5C11661.2 1898.5 11670.8 1867.6 11670.8 1829.8C11670.8 1807.6 11668.4 1784.5 11663.6 1760.5C11659.4 1735.9 11652.2 1713.7 11642 1693.9C11632.4 1673.5 11619.5 1656.7 11603.3 1643.5C11587.7 1630.3 11568.2 1623.7 11544.8 1623.7C11513 1623.7 11487.2 1634.8 11467.4 1657C11448.2 1678.6 11438.6 1713.4 11438.6 1761.4ZM12213.1 1929.7C12213.1 1938.7 12218.5 1945.6 12229.3 1950.4C12240.1 1954.6 12252.1 1957.9 12265.3 1960.3C12270.7 1961.5 12273.4 1965.1 12273.4 1971.1C12273.4 1974.7 12272.8 1979.5 12271.6 1985.5C12256 1984.3 12240.7 1983.1 12225.7 1981.9C12210.7 1981.3 12194.5 1981 12177.1 1981C12160.9 1981 12144.7 1981.3 12128.5 1981.9C12112.9 1983.1 12097.3 1984.3 12081.7 1985.5C12080.5 1979.5 12079.9 1974.7 12079.9 1971.1C12079.9 1965.1 12082.6 1961.5 12088 1960.3C12100.6 1957.9 12112 1954.6 12122.2 1950.4C12132.4 1945.6 12137.5 1938.7 12137.5 1929.7V1753.3C12137.5 1738.3 12136.6 1724.5 12134.8 1711.9C12133 1699.3 12129.4 1688.5 12124 1679.5C12119.2 1669.9 12112.3 1662.7 12103.3 1657.9C12094.9 1652.5 12083.8 1649.8 12070 1649.8C12055 1649.8 12040.3 1652.5 12025.9 1657.9C12011.5 1662.7 11998.6 1670.2 11987.2 1680.4C11976.4 1690 11967.7 1702 11961.1 1716.4C11954.5 1730.8 11951.2 1747.3 11951.2 1765.9V1929.7C11951.2 1938.7 11956.3 1945.6 11966.5 1950.4C11977.3 1954.6 11988.7 1957.9 12000.7 1960.3C12006.1 1961.5 12008.8 1965.1 12008.8 1971.1C12008.8 1974.7 12008.2 1979.5 12007 1985.5C11991.4 1984.3 11976.1 1983.1 11961.1 1981.9C11946.1 1981.3 11930.2 1981 11913.4 1981C11896 1981 11879.5 1981.3 11863.9 1981.9C11848.3 1983.1 11833 1984.3 11818 1985.5C11816.8 1979.5 11816.2 1974.7 11816.2 1971.1C11816.2 1965.1 11818.9 1961.5 11824.3 1960.3C11837.5 1957.9 11849.5 1954.6 11860.3 1950.4C11871.1 1945.6 11876.5 1938.4 11876.5 1928.8V1684C11876.5 1666 11873.2 1653.1 11866.6 1645.3C11860.6 1637.5 11847.1 1632.7 11826.1 1630.9C11818.3 1629.7 11814.4 1625.5 11814.4 1618.3C11814.4 1615.3 11815 1611.4 11816.2 1606.6C11824 1606.6 11834.8 1606.3 11848.6 1605.7C11863 1604.5 11874.7 1603.3 11883.7 1602.1C11897.5 1599.7 11909.8 1597.3 11920.6 1594.9C11931.4 1591.9 11939.2 1590.4 11944 1590.4C11952.4 1590.4 11956.6 1594.9 11956.6 1603.9C11956.6 1612.3 11955.7 1622.5 11953.9 1634.5C11952.1 1645.9 11951.2 1661.2 11951.2 1680.4C11977 1651.6 12001.6 1629.4 12025 1613.8C12049 1598.2 12075.1 1590.4 12103.3 1590.4C12139.9 1590.4 12167.2 1601.2 12185.2 1622.8C12203.8 1643.8 12213.1 1673.2 12213.1 1711V1929.7ZM12702.2 1956.7C12708.8 1956.7 12712.4 1963 12713 1975.6C12697.4 1986.4 12677.6 1991.8 12653.6 1991.8C12640.4 1991.8 12629 1989.7 12619.4 1985.5C12609.8 1981.9 12601.7 1976.8 12595.1 1970.2C12588.5 1963.6 12583.4 1956.1 12579.8 1947.7C12576.2 1939.3 12573.8 1930.6 12572.6 1921.6C12557.6 1948.6 12539.6 1967.2 12518.6 1977.4C12498.2 1987 12474.5 1991.8 12447.5 1991.8C12435.5 1991.8 12422.6 1990.6 12408.8 1988.2C12395.6 1986.4 12383 1982.2 12371 1975.6C12359 1969 12349.1 1959.7 12341.3 1947.7C12333.5 1935.7 12329.6 1919.8 12329.6 1900C12329.6 1877.8 12334.7 1859.2 12344.9 1844.2C12355.7 1828.6 12369.2 1816 12385.4 1806.4C12402.2 1796.2 12420.2 1788.1 12439.4 1782.1C12459.2 1776.1 12478.1 1771 12496.1 1766.8C12506.3 1765 12515.6 1763.2 12524 1761.4C12533 1759 12540.8 1756.6 12547.4 1754.2C12555.8 1751.8 12560.9 1748.5 12562.7 1744.3C12565.1 1740.1 12566.3 1732 12566.3 1720C12566.3 1691.8 12560.9 1668.7 12550.1 1650.7C12539.3 1632.1 12520.1 1622.8 12492.5 1622.8C12482.3 1622.8 12473.6 1624 12466.4 1626.4C12459.2 1628.8 12453.2 1632.7 12448.4 1638.1C12443.6 1642.9 12439.4 1649.5 12435.8 1657.9C12432.2 1666.3 12428.6 1676.2 12425 1687.6C12423.2 1694.2 12419 1699 12412.4 1702C12406.4 1705 12395.9 1708.6 12380.9 1712.8C12377.3 1714 12372.8 1715.2 12367.4 1716.4C12362 1717.6 12357.5 1718.2 12353.9 1718.2C12347.9 1718.2 12344.9 1711.9 12344.9 1699.3C12344.9 1686.1 12350 1672.9 12360.2 1659.7C12370.4 1646.5 12383.3 1634.8 12398.9 1624.6C12415.1 1614.4 12432.5 1606.3 12451.1 1600.3C12469.7 1593.7 12487.4 1590.4 12504.2 1590.4C12525.2 1590.4 12544.1 1592.2 12560.9 1595.8C12577.7 1599.4 12592.1 1606 12604.1 1615.6C12616.1 1625.2 12625.1 1638.1 12631.1 1654.3C12637.7 1670.5 12641 1691.5 12641 1717.3V1872.1C12641 1893.1 12641.6 1908.4 12642.8 1918C12644.6 1927 12647 1934.2 12650 1939.6C12654.2 1948 12658.7 1953.7 12663.5 1956.7C12668.9 1959.1 12674.3 1960.3 12679.7 1960.3C12686.3 1960.3 12690.8 1959.7 12693.2 1958.5C12696.2 1957.3 12699.2 1956.7 12702.2 1956.7ZM12566.3 1781.2L12537.5 1785.7C12521.9 1788.7 12506.6 1792.3 12491.6 1796.5C12477.2 1800.7 12464.3 1806.7 12452.9 1814.5C12441.5 1821.7 12432.2 1831 12425 1842.4C12418.4 1853.8 12415.1 1867.9 12415.1 1884.7C12415.1 1907.5 12420.8 1924.9 12432.2 1936.9C12444.2 1948.9 12458.9 1954.9 12476.3 1954.9C12487.7 1954.9 12498.8 1952.5 12509.6 1947.7C12521 1942.3 12530.6 1935.1 12538.4 1926.1C12546.8 1916.5 12553.4 1905.4 12558.2 1892.8C12563.6 1880.2 12566.3 1866.4 12566.3 1851.4V1781.2ZM12948.5 1985.5C12932.9 1984.3 12917 1983.1 12900.8 1981.9C12884.6 1981.3 12868.4 1981 12852.2 1981C12836 1981 12819.2 1981.3 12801.8 1981.9C12785 1983.1 12769.1 1984.3 12754.1 1985.5C12752.9 1979.5 12752.3 1974.7 12752.3 1971.1C12752.3 1965.1 12755 1961.5 12760.4 1960.3C12773.6 1957.9 12785.9 1954.6 12797.3 1950.4C12808.7 1945.6 12814.4 1938.4 12814.4 1928.8V1444.6C12814.4 1425.4 12810.5 1412.5 12802.7 1405.9C12795.5 1398.7 12781.4 1394.2 12760.4 1392.4C12752.6 1391.2 12748.7 1387 12748.7 1379.8C12748.7 1376.2 12749.3 1372 12750.5 1367.2C12758.3 1367.2 12769.1 1366.9 12782.9 1366.3C12796.7 1365.1 12809.3 1363.9 12820.7 1362.7C12834.5 1360.9 12846.8 1358.5 12857.6 1355.5C12868.4 1352.5 12876.2 1351 12881 1351C12886.4 1351 12890 1352.2 12891.8 1354.6C12893.6 1357 12894.5 1360.3 12894.5 1364.5C12894.5 1374.7 12893.6 1386.7 12891.8 1400.5C12890 1413.7 12889.1 1429.3 12889.1 1447.3V1928.8C12889.1 1938.4 12894.5 1945.6 12905.3 1950.4C12916.7 1954.6 12929.3 1957.9 12943.1 1960.3C12947.9 1961.5 12950.3 1965.1 12950.3 1971.1C12950.3 1974.7 12949.7 1979.5 12948.5 1985.5ZM13361.8 1727.2V1911.7C13361.8 1925.5 13368.4 1935.4 13381.6 1941.4C13394.8 1946.8 13414.6 1951.3 13441 1954.9C13448.2 1956.1 13451.8 1961.2 13451.8 1970.2C13451.8 1974.4 13451.2 1979.5 13450 1985.5C13432.6 1984.3 13412.8 1983.1 13390.6 1981.9C13368.4 1981.3 13344.4 1981 13318.6 1981C13303 1981 13285.3 1981.3 13265.5 1981.9C13245.7 1983.1 13227.1 1984.3 13209.7 1985.5C13208.5 1979.5 13207.9 1974.7 13207.9 1971.1C13207.9 1962.7 13210.9 1957.9 13216.9 1956.7C13240.9 1951.9 13256.8 1947.4 13264.6 1943.2C13273 1938.4 13277.2 1930 13277.2 1918V1459.9C13277.2 1447.9 13272.4 1439.2 13262.8 1433.8C13253.8 1428.4 13237.3 1424.2 13213.3 1421.2C13207.3 1420 13204.3 1414.6 13204.3 1405C13204.3 1400.8 13204.9 1396.3 13206.1 1391.5C13222.9 1392.7 13240.6 1393.9 13259.2 1395.1C13278.4 1395.7 13296.4 1396 13313.2 1396H13440.1C13504.9 1396 13553.5 1411.3 13585.9 1441.9C13618.3 1472.5 13634.5 1512.1 13634.5 1560.7C13634.5 1579.9 13630 1599.4 13621 1619.2C13612.6 1639 13600 1657 13583.2 1673.2C13567 1688.8 13546.6 1701.7 13522 1711.9C13498 1722.1 13470.7 1727.2 13440.1 1727.2H13361.8ZM13409.5 1690.3C13451.5 1690.3 13483.9 1681 13506.7 1662.4C13529.5 1643.8 13540.9 1612.3 13540.9 1567.9C13540.9 1549.3 13538.8 1531.9 13534.6 1515.7C13530.4 1499.5 13523.2 1485.4 13513 1473.4C13502.8 1460.8 13489.3 1450.9 13472.5 1443.7C13455.7 1436.5 13434.7 1432.9 13409.5 1432.9H13361.8V1690.3H13409.5ZM13919.4 1591.3C13936.8 1591.3 13949.7 1595.5 13958.1 1603.9C13966.5 1612.3 13970.7 1621.6 13970.7 1631.8C13970.7 1635.4 13970.1 1638.7 13968.9 1641.7C13967.7 1644.7 13964.7 1648 13959.9 1651.6C13955.7 1654.6 13949.4 1658.5 13941 1663.3C13933.2 1667.5 13922.1 1672.9 13907.7 1679.5C13902.3 1672.9 13895.7 1667.2 13887.9 1662.4C13880.7 1657.6 13872.6 1655.2 13863.6 1655.2C13853.4 1655.2 13844.1 1658.2 13835.7 1664.2C13827.3 1669.6 13820.1 1677.4 13814.1 1687.6C13808.1 1697.2 13803.3 1708.6 13799.7 1721.8C13796.7 1734.4 13795.2 1747.6 13795.2 1761.4V1916.2C13795.2 1929.4 13802.1 1939.3 13815.9 1945.9C13829.7 1951.9 13849.5 1956.7 13875.3 1960.3C13881.3 1961.5 13884.3 1965.1 13884.3 1971.1C13884.3 1974.7 13883.7 1979.5 13882.5 1985.5C13875.9 1984.9 13867.5 1984.3 13857.3 1983.7C13847.7 1983.7 13837.5 1983.4 13826.7 1982.8C13815.9 1982.2 13804.8 1981.6 13793.4 1981C13782 1981 13771.5 1981 13761.9 1981C13745.7 1981 13728.9 1981.3 13711.5 1981.9C13694.1 1983.1 13677.6 1984.3 13662 1985.5C13660.8 1979.5 13660.2 1974.7 13660.2 1971.1C13660.2 1965.1 13662.9 1961.5 13668.3 1960.3C13682.1 1957.9 13694.1 1954.3 13704.3 1949.5C13715.1 1944.7 13720.5 1937.8 13720.5 1928.8V1700.2C13720.5 1687.6 13719.6 1677.1 13717.8 1668.7C13716.6 1660.3 13714.2 1653.7 13710.6 1648.9C13707 1643.5 13701.6 1639.6 13694.4 1637.2C13687.8 1634.8 13679.1 1633 13668.3 1631.8C13660.5 1630.6 13656.6 1626.7 13656.6 1620.1C13656.6 1616.5 13657.2 1612.3 13658.4 1607.5C13666.2 1607.5 13677 1607.2 13690.8 1606.6C13705.2 1605.4 13716.9 1604.2 13725.9 1603C13739.1 1600.6 13750.5 1598.2 13760.1 1595.8C13770.3 1592.8 13777.8 1591.3 13782.6 1591.3C13791 1591.3 13795.2 1595.8 13795.2 1604.8V1665.1C13814.4 1644.1 13833.6 1626.7 13852.8 1612.9C13872.6 1598.5 13894.8 1591.3 13919.4 1591.3ZM13981 1791.1C13981 1763.5 13986.1 1737.4 13996.3 1712.8C14007.1 1688.2 14021.5 1666.9 14039.5 1648.9C14057.5 1630.9 14078.5 1616.8 14102.5 1606.6C14127.1 1595.8 14153.5 1590.4 14181.7 1590.4C14211.1 1590.4 14238.1 1595.5 14262.7 1605.7C14287.3 1615.3 14308.3 1628.8 14325.7 1646.2C14343.7 1663.6 14357.5 1684.9 14367.1 1710.1C14377.3 1734.7 14382.4 1761.7 14382.4 1791.1C14382.4 1819.3 14377 1845.7 14366.2 1870.3C14356 1894.3 14341.9 1915.3 14323.9 1933.3C14305.9 1951.3 14284.6 1965.7 14260 1976.5C14236 1986.7 14209.9 1991.8 14181.7 1991.8C14152.3 1991.8 14125.3 1987 14100.7 1977.4C14076.1 1967.2 14054.8 1953.4 14036.8 1936C14019.4 1918.6 14005.6 1897.6 13995.4 1873C13985.8 1848.4 13981 1821.1 13981 1791.1ZM14065.6 1761.4C14065.6 1783.6 14068 1806.4 14072.8 1829.8C14077.6 1853.2 14084.8 1874.5 14094.4 1893.7C14104.6 1912.3 14117.5 1927.9 14133.1 1940.5C14148.7 1952.5 14167.6 1958.5 14189.8 1958.5C14224 1958.5 14250.4 1946.5 14269 1922.5C14288.2 1898.5 14297.8 1867.6 14297.8 1829.8C14297.8 1807.6 14295.4 1784.5 14290.6 1760.5C14286.4 1735.9 14279.2 1713.7 14269 1693.9C14259.4 1673.5 14246.5 1656.7 14230.3 1643.5C14214.7 1630.3 14195.2 1623.7 14171.8 1623.7C14140 1623.7 14114.2 1634.8 14094.4 1657C14075.2 1678.6 14065.6 1713.4 14065.6 1761.4ZM14498.2 1962.1C14472.4 1947.1 14459.5 1925.5 14459.5 1897.3C14459.5 1867.3 14479.3 1842.7 14518.9 1823.5C14502.1 1813.3 14488.6 1799.8 14478.4 1783C14468.8 1765.6 14464 1744.3 14464 1719.1C14464 1702.3 14467.9 1686.1 14475.7 1670.5C14484.1 1654.9 14495.2 1641.1 14509 1629.1C14522.8 1617.1 14538.4 1607.8 14555.8 1601.2C14573.8 1594 14592.7 1590.4 14612.5 1590.4C14642.5 1590.4 14666.5 1594 14684.5 1601.2C14702.5 1608.4 14718.1 1617.4 14731.3 1628.2L14820.4 1589.5C14827 1593.7 14831.8 1599.4 14834.8 1606.6C14837.8 1613.2 14839.3 1619.5 14839.3 1625.5C14839.3 1638.7 14834.8 1645.3 14825.8 1645.3L14793.4 1644.4C14782 1644.4 14768.2 1646.2 14752 1649.8C14766.4 1668.4 14773.6 1691.2 14773.6 1718.2C14773.6 1736.8 14769.4 1753.9 14761 1769.5C14752.6 1785.1 14741.2 1798.6 14726.8 1810C14712.4 1820.8 14695.3 1829.5 14675.5 1836.1C14655.7 1842.1 14634.7 1845.1 14612.5 1845.1C14599.9 1845.1 14587.9 1844.5 14576.5 1843.3C14565.1 1841.5 14554.3 1838.8 14544.1 1835.2C14528.5 1842.4 14517.7 1849.6 14511.7 1856.8C14505.7 1864 14502.7 1870.9 14502.7 1877.5C14502.7 1882.3 14504.2 1887.1 14507.2 1891.9C14510.2 1896.1 14515.6 1900 14523.4 1903.6C14531.8 1906.6 14543.2 1909.3 14557.6 1911.7C14572.6 1913.5 14591.5 1914.4 14614.3 1914.4C14641.3 1914.4 14666.8 1916.5 14690.8 1920.7C14714.8 1924.9 14735.8 1931.8 14753.8 1941.4C14772.4 1951 14786.8 1963.6 14797 1979.2C14807.8 1994.8 14813.2 2013.7 14813.2 2035.9C14813.2 2060.5 14808.1 2082.7 14797.9 2102.5C14788.3 2122.3 14774.5 2139.1 14756.5 2152.9C14739.1 2167.3 14717.8 2178.1 14692.6 2185.3C14668 2193.1 14641 2197 14611.6 2197C14555.2 2197 14511.1 2186.8 14479.3 2166.4C14447.5 2146 14431.6 2113.3 14431.6 2068.3C14431.6 2055.1 14433.7 2042.8 14437.9 2031.4C14442.1 2020.6 14447.2 2010.7 14453.2 2001.7C14459.8 1992.7 14467 1984.9 14474.8 1978.3C14483.2 1971.7 14491 1966.3 14498.2 1962.1ZM14519.8 1972.9C14505.4 1986.7 14497.3 2004.1 14495.5 2025.1C14494.9 2029.9 14494.6 2034.7 14494.6 2039.5C14494.6 2044.3 14494.6 2049.4 14494.6 2054.8C14495.2 2067.4 14498.5 2080 14504.5 2092.6C14510.5 2105.2 14519.2 2116.3 14530.6 2125.9C14542 2135.5 14556.1 2143.3 14572.9 2149.3C14589.7 2155.3 14609.2 2158.3 14631.4 2158.3C14672.8 2158.3 14702.8 2149 14721.4 2130.4C14740.6 2112.4 14750.2 2089.9 14750.2 2062.9C14750.2 2051.5 14747.8 2041 14743 2031.4C14738.2 2021.8 14730.1 2013.4 14718.7 2006.2C14707.3 1999.6 14692.3 1994.2 14673.7 1990C14655.1 1986.4 14632 1984.6 14604.4 1984.6C14588.8 1984.6 14573.5 1983.7 14558.5 1981.9C14544.1 1980.1 14531.2 1977.1 14519.8 1972.9ZM14621.5 1813.6C14643.7 1813.6 14661.4 1806.4 14674.6 1792C14687.8 1777.6 14694.4 1757.8 14694.4 1732.6C14694.4 1719.4 14692.9 1706.5 14689.9 1693.9C14687.5 1680.7 14683 1669 14676.4 1658.8C14669.8 1648 14660.8 1639.3 14649.4 1632.7C14638.6 1626.1 14624.8 1622.8 14608 1622.8C14587 1622.8 14570.2 1629.7 14557.6 1643.5C14545.6 1657.3 14539.6 1676.2 14539.6 1700.2C14539.6 1714 14540.8 1727.8 14543.2 1741.6C14546.2 1754.8 14550.7 1766.8 14556.7 1777.6C14563.3 1788.4 14571.7 1797.1 14581.9 1803.7C14592.7 1810.3 14605.9 1813.6 14621.5 1813.6ZM15138.4 1591.3C15155.8 1591.3 15168.7 1595.5 15177.1 1603.9C15185.5 1612.3 15189.7 1621.6 15189.7 1631.8C15189.7 1635.4 15189.1 1638.7 15187.9 1641.7C15186.7 1644.7 15183.7 1648 15178.9 1651.6C15174.7 1654.6 15168.4 1658.5 15160 1663.3C15152.2 1667.5 15141.1 1672.9 15126.7 1679.5C15121.3 1672.9 15114.7 1667.2 15106.9 1662.4C15099.7 1657.6 15091.6 1655.2 15082.6 1655.2C15072.4 1655.2 15063.1 1658.2 15054.7 1664.2C15046.3 1669.6 15039.1 1677.4 15033.1 1687.6C15027.1 1697.2 15022.3 1708.6 15018.7 1721.8C15015.7 1734.4 15014.2 1747.6 15014.2 1761.4V1916.2C15014.2 1929.4 15021.1 1939.3 15034.9 1945.9C15048.7 1951.9 15068.5 1956.7 15094.3 1960.3C15100.3 1961.5 15103.3 1965.1 15103.3 1971.1C15103.3 1974.7 15102.7 1979.5 15101.5 1985.5C15094.9 1984.9 15086.5 1984.3 15076.3 1983.7C15066.7 1983.7 15056.5 1983.4 15045.7 1982.8C15034.9 1982.2 15023.8 1981.6 15012.4 1981C15001 1981 14990.5 1981 14980.9 1981C14964.7 1981 14947.9 1981.3 14930.5 1981.9C14913.1 1983.1 14896.6 1984.3 14881 1985.5C14879.8 1979.5 14879.2 1974.7 14879.2 1971.1C14879.2 1965.1 14881.9 1961.5 14887.3 1960.3C14901.1 1957.9 14913.1 1954.3 14923.3 1949.5C14934.1 1944.7 14939.5 1937.8 14939.5 1928.8V1700.2C14939.5 1687.6 14938.6 1677.1 14936.8 1668.7C14935.6 1660.3 14933.2 1653.7 14929.6 1648.9C14926 1643.5 14920.6 1639.6 14913.4 1637.2C14906.8 1634.8 14898.1 1633 14887.3 1631.8C14879.5 1630.6 14875.6 1626.7 14875.6 1620.1C14875.6 1616.5 14876.2 1612.3 14877.4 1607.5C14885.2 1607.5 14896 1607.2 14909.8 1606.6C14924.2 1605.4 14935.9 1604.2 14944.9 1603C14958.1 1600.6 14969.5 1598.2 14979.1 1595.8C14989.3 1592.8 14996.8 1591.3 15001.6 1591.3C15010 1591.3 15014.2 1595.8 15014.2 1604.8V1665.1C15033.4 1644.1 15052.6 1626.7 15071.8 1612.9C15091.6 1598.5 15113.8 1591.3 15138.4 1591.3ZM15579.8 1956.7C15586.4 1956.7 15590 1963 15590.6 1975.6C15575 1986.4 15555.2 1991.8 15531.2 1991.8C15518 1991.8 15506.6 1989.7 15497 1985.5C15487.4 1981.9 15479.3 1976.8 15472.7 1970.2C15466.1 1963.6 15461 1956.1 15457.4 1947.7C15453.8 1939.3 15451.4 1930.6 15450.2 1921.6C15435.2 1948.6 15417.2 1967.2 15396.2 1977.4C15375.8 1987 15352.1 1991.8 15325.1 1991.8C15313.1 1991.8 15300.2 1990.6 15286.4 1988.2C15273.2 1986.4 15260.6 1982.2 15248.6 1975.6C15236.6 1969 15226.7 1959.7 15218.9 1947.7C15211.1 1935.7 15207.2 1919.8 15207.2 1900C15207.2 1877.8 15212.3 1859.2 15222.5 1844.2C15233.3 1828.6 15246.8 1816 15263 1806.4C15279.8 1796.2 15297.8 1788.1 15317 1782.1C15336.8 1776.1 15355.7 1771 15373.7 1766.8C15383.9 1765 15393.2 1763.2 15401.6 1761.4C15410.6 1759 15418.4 1756.6 15425 1754.2C15433.4 1751.8 15438.5 1748.5 15440.3 1744.3C15442.7 1740.1 15443.9 1732 15443.9 1720C15443.9 1691.8 15438.5 1668.7 15427.7 1650.7C15416.9 1632.1 15397.7 1622.8 15370.1 1622.8C15359.9 1622.8 15351.2 1624 15344 1626.4C15336.8 1628.8 15330.8 1632.7 15326 1638.1C15321.2 1642.9 15317 1649.5 15313.4 1657.9C15309.8 1666.3 15306.2 1676.2 15302.6 1687.6C15300.8 1694.2 15296.6 1699 15290 1702C15284 1705 15273.5 1708.6 15258.5 1712.8C15254.9 1714 15250.4 1715.2 15245 1716.4C15239.6 1717.6 15235.1 1718.2 15231.5 1718.2C15225.5 1718.2 15222.5 1711.9 15222.5 1699.3C15222.5 1686.1 15227.6 1672.9 15237.8 1659.7C15248 1646.5 15260.9 1634.8 15276.5 1624.6C15292.7 1614.4 15310.1 1606.3 15328.7 1600.3C15347.3 1593.7 15365 1590.4 15381.8 1590.4C15402.8 1590.4 15421.7 1592.2 15438.5 1595.8C15455.3 1599.4 15469.7 1606 15481.7 1615.6C15493.7 1625.2 15502.7 1638.1 15508.7 1654.3C15515.3 1670.5 15518.6 1691.5 15518.6 1717.3V1872.1C15518.6 1893.1 15519.2 1908.4 15520.4 1918C15522.2 1927 15524.6 1934.2 15527.6 1939.6C15531.8 1948 15536.3 1953.7 15541.1 1956.7C15546.5 1959.1 15551.9 1960.3 15557.3 1960.3C15563.9 1960.3 15568.4 1959.7 15570.8 1958.5C15573.8 1957.3 15576.8 1956.7 15579.8 1956.7ZM15443.9 1781.2L15415.1 1785.7C15399.5 1788.7 15384.2 1792.3 15369.2 1796.5C15354.8 1800.7 15341.9 1806.7 15330.5 1814.5C15319.1 1821.7 15309.8 1831 15302.6 1842.4C15296 1853.8 15292.7 1867.9 15292.7 1884.7C15292.7 1907.5 15298.4 1924.9 15309.8 1936.9C15321.8 1948.9 15336.5 1954.9 15353.9 1954.9C15365.3 1954.9 15376.4 1952.5 15387.2 1947.7C15398.6 1942.3 15408.2 1935.1 15416 1926.1C15424.4 1916.5 15431 1905.4 15435.8 1892.8C15441.2 1880.2 15443.9 1866.4 15443.9 1851.4V1781.2ZM16012.4 1681.3C16014.8 1679.5 16020.2 1673.8 16028.6 1664.2C16037 1654.6 16047.8 1644.4 16061 1633.6C16074.8 1622.8 16090.4 1612.9 16107.8 1603.9C16125.8 1594.9 16145 1590.4 16165.4 1590.4C16201.4 1590.4 16226.9 1601.2 16241.9 1622.8C16256.9 1643.8 16264.4 1673.2 16264.4 1711V1929.7C16264.4 1938.7 16269.8 1945.6 16280.6 1950.4C16291.4 1954.6 16303.4 1957.9 16316.6 1960.3C16322 1961.5 16324.7 1965.1 16324.7 1971.1C16324.7 1974.7 16324.1 1979.5 16322.9 1985.5C16307.3 1984.3 16292 1983.1 16277 1981.9C16262 1981.3 16245.8 1981 16228.4 1981C16212.8 1981 16196.9 1981.3 16180.7 1981.9C16164.5 1983.1 16148.9 1984.3 16133.9 1985.5C16132.7 1979.5 16132.1 1974.7 16132.1 1971.1C16132.1 1965.1 16134.8 1961.5 16140.2 1960.3C16145.6 1959.7 16151 1958.5 16156.4 1956.7C16162.4 1954.9 16167.8 1952.8 16172.6 1950.4C16177.4 1948 16181.3 1945.3 16184.3 1942.3C16187.9 1938.7 16189.7 1934.5 16189.7 1929.7V1744.3C16189.7 1707.1 16185.2 1682.2 16176.2 1669.6C16167.2 1656.4 16152.5 1649.8 16132.1 1649.8C16116.5 1649.8 16101.5 1652.5 16087.1 1657.9C16073.3 1662.7 16061 1670.2 16050.2 1680.4C16039.4 1690 16030.7 1702 16024.1 1716.4C16017.5 1730.8 16014.2 1747.3 16014.2 1765.9V1929.7C16014.2 1938.7 16019.3 1945.6 16029.5 1950.4C16039.7 1954.6 16051.1 1957.9 16063.7 1960.3C16069.1 1961.5 16071.8 1965.1 16071.8 1971.1C16071.8 1974.7 16071.2 1979.5 16070 1985.5C16054.4 1984.3 16039.1 1983.1 16024.1 1981.9C16009.7 1981.3 15994.4 1981 15978.2 1981C15962 1981 15945.8 1981.3 15929.6 1981.9C15914 1983.1 15898.4 1984.3 15882.8 1985.5C15881.6 1979.5 15881 1974.7 15881 1971.1C15881 1965.1 15883.7 1961.5 15889.1 1960.3C15899.9 1958.5 15910.7 1955.5 15921.5 1951.3C15932.9 1946.5 15938.6 1939.3 15938.6 1929.7V1744.3C15938.6 1707.1 15934.1 1682.2 15925.1 1669.6C15916.7 1656.4 15902.3 1649.8 15881.9 1649.8C15866.3 1649.8 15851.3 1652.5 15836.9 1657.9C15823.1 1662.7 15810.5 1670.2 15799.1 1680.4C15788.3 1690 15779.6 1702 15773 1716.4C15766.4 1730.8 15763.1 1747.3 15763.1 1765.9V1929.7C15763.1 1938.7 15768.2 1945.6 15778.4 1950.4C15789.2 1954.6 15800.6 1957.9 15812.6 1960.3C15818 1961.5 15820.7 1965.1 15820.7 1971.1C15820.7 1974.7 15820.1 1979.5 15818.9 1985.5C15803.3 1984.3 15788 1983.1 15773 1981.9C15758 1981.3 15742.1 1981 15725.3 1981C15707.9 1981 15691.4 1981.3 15675.8 1981.9C15660.2 1983.1 15644.9 1984.3 15629.9 1985.5C15628.7 1979.5 15628.1 1974.7 15628.1 1971.1C15628.1 1965.1 15630.8 1961.5 15636.2 1960.3C15649.4 1957.9 15661.4 1954.6 15672.2 1950.4C15683 1945.6 15688.4 1938.4 15688.4 1928.8V1684C15688.4 1666 15685.1 1653.1 15678.5 1645.3C15672.5 1637.5 15659 1632.7 15638 1630.9C15630.2 1629.7 15626.3 1625.5 15626.3 1618.3C15626.3 1615.3 15626.9 1611.4 15628.1 1606.6C15635.9 1606.6 15646.7 1606.3 15660.5 1605.7C15674.9 1604.5 15686.6 1603.3 15695.6 1602.1C15709.4 1599.7 15721.7 1597.3 15732.5 1594.9C15743.3 1591.9 15751.1 1590.4 15755.9 1590.4C15764.3 1590.4 15768.5 1594.9 15768.5 1603.9C15768.5 1612.3 15767.6 1622.5 15765.8 1634.5C15764 1645.9 15763.1 1661.2 15763.1 1680.4C15764.9 1678.6 15770 1672.9 15778.4 1663.3C15786.8 1653.7 15797.6 1643.5 15810.8 1632.7C15824.6 1621.9 15840.2 1612.3 15857.6 1603.9C15875 1594.9 15894.2 1590.4 15915.2 1590.4C15946.4 1590.4 15969.5 1598.5 15984.5 1614.7C16000.1 1630.3 16009.4 1652.5 16012.4 1681.3ZM16622.6 1701.1C16617.8 1701.1 16614.2 1700.2 16611.8 1698.4C16610 1696 16608.8 1693.6 16608.2 1691.2C16604 1666.6 16594.1 1649.2 16578.5 1639C16563.5 1628.2 16544.6 1622.8 16521.8 1622.8C16504.4 1622.8 16488.8 1627.9 16475 1638.1C16461.8 1647.7 16455.2 1661.2 16455.2 1678.6C16455.2 1694.2 16461.2 1707.4 16473.2 1718.2C16485.8 1728.4 16508.3 1738.6 16540.7 1748.8C16558.1 1754.2 16574 1760.2 16588.4 1766.8C16603.4 1773.4 16616 1781.5 16626.2 1791.1C16637 1800.1 16645.4 1811.5 16651.4 1825.3C16657.4 1838.5 16660.4 1854.4 16660.4 1873C16660.4 1888.6 16657.4 1903.6 16651.4 1918C16646 1932.4 16637.3 1945 16625.3 1955.8C16613.9 1966.6 16599.2 1975.3 16581.2 1981.9C16563.8 1988.5 16542.8 1991.8 16518.2 1991.8C16499 1991.8 16477.4 1989.4 16453.4 1984.6C16430 1980.4 16408.7 1972.9 16389.5 1962.1C16388.3 1946.5 16387.1 1930.3 16385.9 1913.5C16385.3 1896.1 16385 1878.7 16385 1861.3H16394C16400 1861.3 16405.1 1862.5 16409.3 1864.9C16413.5 1866.7 16415.9 1870 16416.5 1874.8C16418.9 1900 16428.5 1920.4 16445.3 1936C16462.7 1951 16486.7 1958.5 16517.3 1958.5C16541.9 1958.5 16560.8 1953.1 16574 1942.3C16587.2 1930.9 16593.8 1915.6 16593.8 1896.4C16593.8 1876.6 16586.6 1861.6 16572.2 1851.4C16557.8 1840.6 16536.5 1831 16508.3 1822.6C16472.9 1811.8 16445 1797.7 16424.6 1780.3C16404.8 1762.9 16394.9 1737.4 16394.9 1703.8C16394.9 1688.2 16397.9 1673.5 16403.9 1659.7C16409.9 1645.9 16418.3 1633.9 16429.1 1623.7C16439.9 1613.5 16453.1 1605.4 16468.7 1599.4C16484.3 1593.4 16501.7 1590.4 16520.9 1590.4C16544.9 1590.4 16567.4 1593.7 16588.4 1600.3C16610 1606.3 16626.8 1612.9 16638.8 1620.1C16639.4 1624.9 16640 1630.9 16640.6 1638.1C16641.2 1644.7 16641.5 1651.9 16641.5 1659.7C16642.1 1666.9 16642.4 1674.4 16642.4 1682.2C16643 1689.4 16643.3 1696 16643.3 1702L16622.6 1701.1Z" fill="#1E317C"/>
<path d="M7526 0V2342.5" stroke="#1E317C" stroke-width="30"/>
</svg>
