<svg width="16675" height="2343" viewBox="0 0 16675 2343" fill="none" xmlns="http://www.w3.org/2000/svg">
<path d="M937.136 148C585.499 148 279.099 343.401 118.829 632.573H1755.52C1595.12 343.401 1288.67 148 937.072 148H937.136ZM0.177072 686.943V973.672H385.187L851.198 686.943H0.177072ZM1045.07 686.943L1486.89 973.672H1874.17V686.943H1045.07ZM949.878 689.813L488.662 973.672H1387.29L949.878 689.813ZM0.264961 1028.03V1098.17H19.3384L28.284 1074.7L34.6134 1055.04L48.6228 1098.17H93.859L57.2257 1124.88L71.2338 1167.92L34.6082 1141.3L0.260051 1166.27L0.00683594 1333.6L0.260025 1797.57H246.274L260.284 1754.77L223.573 1728.1H268.809L282.819 1684.97L296.828 1728.1H342.146L305.435 1754.77L319.36 1797.57H368.9V1028.02L0.264961 1028.03ZM422.732 1028.03V1797.48H579.202V1028.03H422.732ZM633.047 1028.03V1797.48H799.896V1028.03H633.047ZM853.819 1028.03V1797.48H1020.58V1028.03H853.819ZM1295.03 1028.03V1797.48H1456.64V1028.03H1295.03ZM1510.49 1028.03V1797.57H1874.06V1335.56L1840.04 1360.2L1854.14 1403.33L1817.51 1376.66L1780.8 1403.33L1794.81 1360.2L1758.18 1333.62H1803.42L1817.51 1290.48L1831.44 1333.62H1874.06V1164.47L1842.24 1141.34L1805.53 1167.93L1819.54 1124.88L1782.91 1098.21H1828.15L1842.24 1055.08L1856.17 1098.21H1874.06V1028.07H1510.49L1510.49 1028.03ZM1074.33 1028.12V1797.57H1241.18V1028.12H1074.33ZM0.277887 1116.24V1160.97L3.23164 1148.06L10.9959 1124.09L0.277887 1116.24ZM1874.02 1118.09L1864.73 1124.85L1874.02 1153.38V1118.09ZM282.818 1771.21L246.613 1797.54H319.024L282.818 1771.21ZM0.264961 1851.9V2056.17H368.899V1851.9H0.264961ZM422.732 1851.9V2056.17H905.816L916.028 2024.77L879.401 1998.09H924.637L938.647 1954.96L952.656 1998.09H997.974L961.347 2024.77L971.559 2056.17H1456.76V1851.9H1394.48L1404.86 1883.89H1450.18L1413.38 1910.47L1427.48 1953.61L1390.85 1926.93L1354.22 1953.61L1368.23 1910.47L1331.61 1883.89H1376.92L1387.31 1851.9H489.626L500.006 1883.89H545.323L508.612 1910.47L522.622 1953.61L485.995 1926.93L449.368 1953.61L463.378 1910.47L426.751 1883.89H472.068L482.364 1851.9H422.783H422.732ZM1510.49 1851.9V2056.17H1874.05V1851.9H1510.49ZM938.646 2041.22L917.97 2056.16H959.491L938.646 2041.22Z" fill="#E57200"/>
<path d="M59.327 1290.44L45.3176 1333.58H0L36.7109 1360.16L22.6175 1403.29L59.3283 1376.62L95.9552 1403.29L82.0298 1360.16L118.573 1333.58H73.3364L59.327 1290.44ZM148.87 1508.54L134.777 1551.59H89.4591L126.254 1578.18L112.161 1621.22L148.871 1594.64L185.498 1621.22L171.489 1578.18L208.2 1551.59H162.882L148.87 1508.54ZM1727.92 1508.54L1713.99 1551.59H1668.67L1705.3 1578.18L1691.29 1621.22L1727.92 1594.64L1764.63 1621.22L1750.54 1578.18L1787.33 1551.59H1742.01L1727.92 1508.54ZM1593.99 1684.96L1579.98 1728.09H1534.74L1571.37 1754.76L1557.44 1797.55L1593.99 1771.22L1630.28 1797.55H1630.53L1616.52 1754.76L1653.32 1728.09H1608L1593.99 1684.96ZM702.965 1926.44L688.956 1969.49H643.638L680.349 1996.16L666.255 2039.2L702.966 2012.62L739.593 2039.2L725.669 1996.16L762.296 1969.49H716.978L702.965 1926.44ZM1167.3 1926.44L1153.37 1969.49H1108.05L1144.68 1996.16L1130.67 2039.2L1167.3 2012.62L1203.92 2039.2L1189.91 1996.16L1226.63 1969.49H1181.31L1167.3 1926.44Z" fill="white"/>
<path d="M2392 459.186C2386.93 460.386 2386 463.319 2386 479.719C2386 496.386 2386.8 498.786 2393.07 500.253C2394.67 500.653 2409.47 501.053 2426 501.186C2454.93 501.586 2456.13 501.719 2461.6 504.786C2464.8 506.653 2468.8 510.253 2470.67 512.919C2478 523.453 2477.87 522.653 2478.13 696.253C2478.4 895.453 2479.6 937.053 2486.13 988.919C2497.47 1078.65 2529.87 1129.59 2596 1161.59C2623.33 1174.79 2646.27 1181.19 2686 1186.52C2704.13 1188.92 2714.8 1189.45 2746.67 1189.45C2788 1189.59 2801.6 1188.52 2830 1182.65C2878.67 1172.79 2919.2 1151.45 2952.93 1117.85C2990.53 1080.39 3011.07 1035.32 3020.67 969.053C3023.87 947.186 3025.47 920.119 3025.87 882.786C3026 868.653 3026.4 855.853 3026.8 854.119C3027.2 852.386 3027.73 781.319 3028.13 696.253C3028.53 597.453 3029.33 538.653 3030.13 533.586C3032 522.786 3038.67 510.786 3045.2 505.986C3054.4 499.453 3061.07 498.253 3090.67 498.253C3109.73 498.253 3117.87 497.853 3119.07 496.653C3121.6 494.119 3121.2 463.053 3118.67 460.919C3117.2 459.719 3110.8 459.453 3094.4 459.719C3064.27 460.386 2934.8 460.386 2900.27 459.719C2877.33 459.319 2872.13 459.453 2871.2 461.053C2869.6 463.319 2870.27 497.586 2871.73 499.186C2872.4 499.719 2886.8 500.519 2903.73 500.919C2932.67 501.586 2935.07 501.853 2941.6 504.786C2945.47 506.519 2951.07 510.519 2954.13 513.853C2970.27 531.319 2970.67 538.786 2970.67 794.253C2970.67 968.386 2970.67 969.986 2964 1002.92C2958 1032.39 2948.27 1057.19 2934.4 1078.12C2907.87 1118.12 2858.53 1144.39 2796.13 1151.72C2775.07 1154.25 2735.73 1152.52 2715.87 1148.39C2653.2 1135.19 2611.33 1101.72 2590.93 1048.25C2580.4 1021.05 2575.73 992.653 2574.67 949.319C2574.27 934.119 2573.73 910.119 2573.33 896.253C2571.07 810.119 2570.67 777.986 2570.67 699.586C2570.67 606.786 2571.2 562.386 2572.67 542.919C2573.6 528.653 2577.6 518.653 2585.47 511.053C2597.07 499.719 2603.87 498.253 2644.27 498.253C2671.73 498.253 2676.8 497.986 2678.53 496.119C2681.33 493.319 2681.6 465.453 2678.8 461.586C2677.2 459.319 2675.07 459.186 2647.87 459.719C2608 460.519 2408.13 460.119 2400.67 459.319C2397.33 458.919 2393.47 458.919 2392 459.186Z" fill="#1E317C"/>
<path d="M5508 610.386C5477.2 614.919 5447.07 628.786 5429.33 646.786C5412.67 663.586 5400.4 683.719 5393.73 704.919C5390.93 713.986 5390.67 717.319 5390.67 739.586C5390.8 767.719 5392.67 780.119 5400 800.519C5415.07 842.652 5445.73 866.652 5524.67 898.252C5559.47 912.119 5575.87 919.986 5590.93 930.119C5621.33 950.386 5636.53 977.719 5636.8 1011.72C5636.8 1018.79 5636.13 1027.19 5635.33 1030.39C5628.4 1056.52 5600.53 1079.45 5566.67 1086.92C5543.2 1092.25 5512.8 1085.85 5491.73 1071.45C5475.87 1060.52 5465.33 1047.59 5454.4 1025.59C5443.33 1003.45 5438 984.386 5438 967.186C5438 962.652 5437.47 958.252 5436.93 957.452C5434.93 954.386 5430 953.052 5417.07 952.119C5400.8 951.052 5401.33 950.519 5400.27 969.852C5399.87 977.319 5397.33 1008.25 5394.53 1038.52C5391.87 1068.79 5390 1095.19 5390.4 1097.19C5391.6 1101.72 5396.27 1104.92 5402.93 1105.85C5409.6 1106.79 5414.67 1102.92 5416 1095.99C5416.4 1093.19 5417.73 1089.45 5418.93 1087.72C5421.73 1083.32 5426.93 1084.65 5437.73 1092.92C5449.47 1101.85 5473.07 1113.45 5488 1117.59C5535.2 1130.92 5584 1128.12 5621.33 1109.72C5656.4 1092.39 5679.47 1064.92 5691.73 1025.45C5704 986.652 5700.93 930.252 5684.8 897.586C5671.33 870.386 5650.67 851.852 5614.93 834.919C5602.4 829.052 5554.4 810.252 5543.33 806.919C5534.53 804.252 5510.67 793.186 5499.33 786.519C5475.73 772.786 5463.07 756.119 5456.67 731.052C5453.47 718.252 5453.33 707.852 5456.13 698.119C5466.93 661.186 5502.53 640.519 5545.2 646.119C5568.27 649.186 5584.27 656.652 5598.67 670.919C5612.13 684.386 5622.27 702.119 5633.33 731.186C5641.73 753.719 5642.93 756.519 5645.33 757.452C5648.13 758.519 5671.6 753.186 5673.07 751.186C5674.53 749.052 5673.47 734.519 5669.47 700.919C5666 671.852 5663.73 648.519 5662.8 630.519C5662.53 624.519 5661.6 618.652 5660.67 617.586C5659.47 616.252 5656.4 615.586 5650.8 615.586C5641.6 615.586 5641.33 615.719 5636.27 622.519C5634.13 625.452 5631.33 627.586 5629.87 627.586C5628.4 627.586 5623.2 625.586 5618.27 623.052C5598 612.786 5575.6 608.919 5540 609.052C5526.8 609.186 5512.4 609.719 5508 610.386Z" fill="#1E317C"/>
<path d="M6002.8 617.052C6002.53 618.119 5997.07 636.919 5990.8 659.052C5984.53 681.052 5976.4 708.119 5972.67 719.052C5966.27 738.252 5965.07 743.719 5966.8 748.119C5967.73 750.652 5992.67 759.052 5995.73 757.852C5996.8 757.452 6000.8 751.186 6004.53 743.986C6012.93 727.719 6024.4 709.986 6035.2 696.652C6046.27 682.786 6061.47 669.186 6067.33 667.586C6083.73 663.319 6127.6 659.586 6162.4 659.586H6186L6185.73 818.519C6185.6 990.652 6184.67 1045.45 6182.13 1053.19C6179.87 1059.99 6172.93 1065.72 6164.67 1067.45C6160.93 1068.25 6147.07 1068.92 6134 1068.92C6111.73 1068.92 6110 1069.05 6108.67 1071.45C6108 1072.92 6107.33 1080.39 6107.33 1088.12C6107.33 1109.32 6103.6 1107.85 6154.4 1106.65C6206.8 1105.32 6251.87 1105.32 6301.87 1106.52C6337.33 1107.45 6341.33 1107.32 6343.6 1105.32C6345.6 1103.45 6346 1100.92 6346 1087.59C6346 1076.65 6345.47 1071.45 6344.4 1070.52C6343.33 1069.85 6331.2 1068.92 6316 1068.65C6286.4 1067.99 6283.07 1067.19 6278.27 1059.32C6272.67 1050.12 6272.53 1047.59 6272.93 845.586L6273.33 652.252L6290.67 652.652C6327.73 653.452 6362.4 656.386 6385.2 660.519C6396.27 662.519 6397.6 663.052 6403.6 668.652C6415.87 680.119 6431.47 703.986 6447.2 735.319C6451.6 743.986 6456.13 751.852 6457.33 752.919C6459.2 754.519 6461.33 754.252 6472 751.719C6489.47 747.452 6489.87 747.052 6486.93 729.719C6485.6 722.252 6481.47 701.852 6477.6 684.519C6469.47 648.386 6468.8 650.919 6485.33 656.119C6499.2 660.519 6504.13 664.252 6516.4 679.986C6544.93 716.519 6620 825.319 6653.73 878.919L6664.67 896.386V975.319C6664.67 1058.92 6664.67 1059.72 6658.4 1065.19C6652.93 1070.12 6644.53 1071.85 6623.73 1072.52C6610.27 1073.05 6602.53 1073.85 6601.07 1075.05C6599.2 1076.39 6598.53 1079.19 6598.27 1088.52C6598 1095.05 6598.4 1102.79 6599.2 1105.72L6600.53 1110.92H6705.2C6762.8 1110.92 6810.4 1110.39 6810.93 1109.72C6812.67 1108.12 6813.07 1081.59 6811.47 1078.52C6810.27 1076.25 6808.27 1075.85 6790.8 1075.32C6774 1074.79 6770.8 1074.25 6765.07 1071.45C6751.2 1064.52 6750 1055.45 6750 958.519V891.319L6764.27 870.519C6796.8 822.519 6864.53 729.452 6891.87 694.919C6918.8 660.919 6925.73 656.919 6957.33 656.919C6975.73 656.919 6975.73 656.919 6975.07 636.386C6974.8 627.186 6974 620.386 6973.07 619.452C6972.13 618.519 6966 618.119 6953.73 618.386C6930.53 619.052 6859.6 619.052 6829.87 618.386C6816.93 618.119 6805.6 618.252 6804.8 618.786C6802.67 620.119 6802.8 650.786 6805.07 652.652C6805.87 653.319 6813.6 654.252 6822 654.519C6830.8 654.919 6838.93 655.852 6840.93 656.919C6848.67 660.652 6849.2 671.719 6842.27 685.052C6840.13 689.319 6824 713.586 6806.53 739.186C6777.6 781.452 6734 846.386 6730.53 852.252C6728.93 855.186 6722.4 845.186 6659.87 744.652C6637.6 708.919 6617.87 677.319 6616 674.386C6611.47 667.586 6611.87 661.586 6617.07 657.719C6620.27 655.452 6623.2 654.919 6635.73 654.519C6644 654.252 6651.47 653.319 6652.4 652.652C6653.47 651.719 6654 646.652 6654 636.252C6654 619.852 6653.2 617.852 6646.4 617.986C6644.27 618.119 6589.87 618.386 6525.33 618.919C6460.8 619.319 6387.07 619.986 6361.33 620.386C6274.93 621.719 6140.27 621.986 6104.67 620.786C6072.13 619.852 6042.13 618.252 6014.4 616.119C6005.6 615.319 6003.33 615.586 6002.8 617.052Z" fill="#1E317C"/>
<path d="M3461.73 618.252C3458.8 619.052 3458.67 619.586 3458.27 636.919C3458.13 646.786 3458.53 655.852 3459.33 656.919C3460.27 658.519 3464.67 659.052 3479.07 659.586C3496.8 660.252 3497.87 660.519 3506.8 664.919C3516.53 669.852 3520.8 674.652 3523.33 683.452C3529.6 705.052 3533.2 784.252 3533.87 917.852L3534.13 984.919H3531.07C3528.8 984.786 3524.8 980.786 3515.2 968.519C3480.8 924.786 3420.53 849.452 3401.33 826.252C3376.4 796.119 3300.67 701.319 3268.27 659.586C3256 643.852 3244.27 628.919 3242.27 626.519C3236.93 619.852 3230.93 619.186 3195.33 621.052C3172.93 622.119 3160.67 622.252 3146.53 621.052C3136.27 620.252 3120 619.586 3110.4 619.586C3088.13 619.586 3088.67 619.052 3088.67 639.719C3088.67 648.119 3089.2 655.719 3089.87 656.786C3090.8 658.252 3095.47 659.052 3106.53 659.719C3119.73 660.519 3123.2 661.186 3130.53 664.652C3146.93 672.386 3157.47 686.119 3160.8 704.252C3161.87 710.119 3162.13 752.919 3161.47 860.919C3160.53 1039.59 3160.13 1048.65 3155.33 1058.39C3153.73 1061.59 3150.8 1065.99 3148.8 1067.99C3142.13 1075.19 3138.8 1076.25 3118 1076.92L3098.67 1077.59L3098.27 1095.99L3097.87 1114.52L3130.27 1113.32C3169.2 1111.99 3177.73 1111.99 3205.07 1113.45C3223.87 1114.39 3226.13 1114.79 3225.33 1116.79C3222 1124.52 3214 1148.39 3212 1155.85L3209.6 1164.92H3179.33C3149.73 1164.92 3149.07 1164.92 3146.27 1167.99C3139.33 1175.32 3134 1197.05 3138.27 1200.65C3139.6 1201.72 3149.6 1202.25 3171.47 1202.52L3202.8 1202.92L3163.87 1331.59C3118.67 1480.92 3116.53 1487.72 3105.07 1516.92C3083.47 1572.39 3059.33 1608.92 3037.73 1618.92C3024.13 1625.19 3015.73 1622.12 3012.67 1609.72C3007.47 1589.59 2996.8 1579.45 2980.4 1579.45C2970.13 1579.32 2961.6 1583.59 2956 1591.45C2952.67 1596.25 2952 1598.65 2951.6 1607.05C2951.07 1615.72 2951.47 1617.85 2954.53 1624.12C2968.13 1651.85 3008.8 1658.25 3048 1638.65C3061.33 1631.99 3073.33 1622.65 3086.93 1608.52C3107.07 1587.32 3122.13 1563.99 3140.8 1525.59C3166.8 1471.85 3188.8 1409.85 3227.33 1282.25C3234.8 1257.72 3243.2 1229.85 3246.13 1220.52L3251.47 1203.45L3303.73 1203.85C3355.47 1204.25 3356.13 1204.25 3362.93 1207.45C3376.27 1213.45 3381.73 1222.12 3395.73 1259.59C3415.2 1311.45 3465.6 1463.59 3475.33 1499.19C3478.13 1509.59 3487.73 1538.65 3496.67 1563.85C3505.6 1589.05 3535.07 1672.65 3562.13 1749.85C3589.07 1827.05 3612.13 1891.99 3613.33 1894.12C3615.6 1898.52 3619.07 1900.92 3623.07 1900.92C3627.73 1900.92 3635.6 1890.12 3641.87 1875.45C3655.07 1843.85 3718 1688.65 3752.67 1602.25C3842.67 1377.19 3884.67 1279.19 3903.07 1250.25C3918.4 1226.25 3940.93 1209.59 3963.73 1205.59C3968.93 1204.65 3981.73 1203.85 3992 1203.72C4002.27 1203.59 4011.07 1203.05 4011.73 1202.39C4012.27 1201.85 4012.53 1193.32 4012.4 1183.45L4012 1165.59L3978 1166.25C3959.33 1166.65 3924.27 1166.92 3900 1166.92C3875.87 1166.92 3837.47 1166.65 3814.67 1166.25L3773.33 1165.59L3772.93 1184.52L3772.53 1203.59H3787.6C3829.2 1203.59 3838.13 1211.85 3832 1244.12C3829.73 1256.39 3826.4 1266.52 3800.67 1340.25C3792.53 1363.72 3778.93 1403.05 3770.67 1427.59C3746 1500.52 3649.73 1747.59 3646.13 1747.59C3645.2 1747.59 3642.8 1740.79 3617.73 1669.59C3557.6 1498.79 3509.6 1346.92 3490.53 1267.19C3486.4 1249.45 3485.87 1245.45 3486.27 1233.19L3486.67 1219.45L3492.13 1214.25C3501.2 1205.85 3506.93 1204.79 3546.67 1203.72L3581.2 1202.92L3583.07 1199.59C3585.6 1194.65 3584.8 1167.99 3582 1166.25C3580.67 1165.32 3566.67 1165.32 3543.33 1165.85C3479.2 1167.72 3265.73 1166.52 3263.6 1164.39C3263.33 1164.12 3268.53 1145.05 3275.07 1121.99C3293.33 1057.72 3304.13 1033.19 3321.87 1015.45C3335.2 1002.25 3352 995.586 3367.6 997.319C3382 999.052 3388.67 1005.45 3391.87 1020.65C3395.6 1038.65 3402.53 1044.79 3419.07 1044.92C3436.13 1044.92 3446.53 1034.79 3448.4 1016.12L3449.33 1007.59L3473.33 1036.65C3486.53 1052.52 3505.87 1075.59 3516.4 1087.85C3533.6 1107.99 3536.27 1110.52 3544.13 1114.39C3557.73 1121.19 3567.47 1119.99 3572.27 1111.19C3574.53 1107.19 3574.67 1095.05 3574.8 904.919C3574.93 772.919 3575.47 697.986 3576.4 688.652C3578.93 661.852 3584.53 657.052 3612.93 656.919C3630.13 656.919 3630 657.052 3630 637.719C3630 621.852 3628.8 618.119 3624 618.119C3622.53 618.119 3595.87 618.386 3564.67 618.652C3533.47 619.052 3498.27 618.919 3486.4 618.386C3474.4 617.986 3463.33 617.852 3461.73 618.252ZM3206.13 710.519C3215.6 721.452 3246.27 760.119 3283.6 808.252C3326.93 864.119 3366.53 912.786 3408.8 962.519L3431.2 988.652L3422.93 984.919C3410.4 979.052 3400.4 976.919 3385.2 976.919C3345.87 976.919 3310 992.919 3283.2 1022.39C3269.87 1037.19 3262.67 1046.79 3252.8 1063.19L3244.53 1076.92H3236.27C3224 1076.92 3217.07 1071.05 3211.47 1056.25C3204.67 1038.12 3201.2 954.786 3200.8 800.519C3200.67 733.586 3201.07 707.586 3202.13 707.586C3202.93 707.586 3204.8 708.919 3206.13 710.519Z" fill="#1E317C"/>
<path d="M3667.73 618.386C3664.8 619.452 3664.67 620.119 3664.67 637.452C3664.67 652.519 3664.93 655.452 3666.8 656.119C3668 656.519 3678 656.919 3689.07 656.919C3720.67 657.052 3736.8 661.052 3743.87 670.652C3746.53 674.252 3746.67 676.652 3747.33 711.986C3748.53 768.119 3748.53 1032.92 3747.33 1048.25C3746.27 1064.25 3744.13 1069.05 3736.27 1073.19C3731.07 1075.99 3728.4 1076.25 3702.27 1076.92C3679.07 1077.45 3673.73 1077.99 3672.67 1079.59C3672 1080.65 3671.33 1088.25 3671.33 1096.25C3671.33 1107.59 3671.87 1111.72 3673.47 1113.99L3675.6 1117.05L3700.4 1115.99C3732.4 1114.65 3844.53 1114.65 3876.93 1115.99C3894.27 1116.79 3902.8 1116.65 3904.67 1115.59C3907.2 1114.25 3907.33 1112.92 3907.33 1096.79V1079.59L3903.87 1078.25C3902 1077.45 3894 1076.92 3886 1076.92C3868.67 1076.92 3860.27 1074.52 3852.13 1067.45C3848.8 1064.52 3844.93 1059.32 3843.2 1055.32L3840 1048.25L3839.6 939.852C3839.33 833.052 3839.2 831.586 3836.67 831.586C3834 831.586 3834 830.386 3834 753.852C3834 701.986 3834.53 674.519 3835.47 671.052C3837.33 664.386 3842.67 658.919 3849.47 656.919C3852.27 656.119 3864.4 655.052 3876.27 654.652C3891.33 654.119 3898.4 653.452 3899.33 652.252C3900.27 651.186 3900.67 644.386 3900.4 634.786C3900 619.586 3899.87 619.052 3896.93 618.252C3895.33 617.852 3882.93 617.986 3869.6 618.386C3844.8 619.319 3678.13 618.786 3673.33 617.719C3671.87 617.452 3669.33 617.719 3667.73 618.386Z" fill="#1E317C"/>
<path d="M3939.07 618.252C3936.13 619.052 3936 619.586 3935.6 636.119C3935.33 647.586 3935.73 653.852 3936.8 655.052C3937.87 656.386 3941.33 656.919 3947.87 656.919C3955.47 656.919 3958.93 657.586 3964.27 660.252C3972.4 664.386 3980.53 672.786 3985.07 681.852C3990.67 692.786 4029.73 800.252 4048.67 856.252C4053.6 870.919 4069.07 914.252 4083.07 952.519C4097.07 990.786 4115.87 1042.39 4124.67 1067.19C4133.6 1091.99 4141.73 1113.59 4142.8 1115.32C4146.53 1120.92 4152.67 1123.72 4160 1123.19C4170.67 1122.52 4173.2 1119.85 4182.67 1100.39C4196.13 1072.39 4251.07 943.586 4289.6 849.586C4328 755.719 4357.73 690.786 4369.07 675.452C4374.93 667.852 4384 661.719 4395.33 657.986C4402.67 655.586 4408 655.052 4431.47 654.519C4473.6 653.719 4488.53 656.386 4494.93 665.986C4500.27 674.119 4500.4 678.519 4501.47 887.586C4502.4 1079.19 4502.93 1066.92 4493.2 1071.05C4487.47 1073.45 4471.2 1075.05 4449.33 1075.45C4440.53 1075.59 4432.8 1076.39 4432 1077.05C4429.73 1079.32 4429.47 1109.19 4431.6 1112.12C4433.47 1114.39 4435.33 1114.52 4477.47 1113.19C4521.07 1111.85 4686.13 1112.12 4776.8 1113.72C4811.07 1114.25 4825.07 1114.12 4827.2 1113.05C4828.67 1112.12 4830.93 1109.59 4832.13 1107.19C4836.4 1099.05 4873.87 986.519 4873.2 983.986C4872.8 982.386 4868.27 979.319 4861.47 975.986C4846.8 968.652 4845.87 969.052 4831.33 989.719C4806.53 1025.05 4787.47 1047.99 4775.6 1056.65C4753.87 1072.39 4737.6 1078.25 4707.33 1081.05C4686.4 1082.92 4635.07 1081.85 4624.67 1079.32C4603.47 1073.99 4593.87 1063.59 4590.27 1042.25C4588.93 1034.25 4586.93 952.919 4586.8 898.919L4586.67 876.252L4608.67 876.386C4641.33 876.652 4669.73 880.786 4682.27 887.052C4696.27 894.119 4703.33 905.452 4710 931.452L4711.6 937.319L4726.13 936.386C4734.27 935.852 4741.73 935.052 4742.8 934.652C4745.2 933.719 4745.2 928.119 4742.53 896.252C4740.8 876.519 4740.53 860.252 4741.07 823.319C4741.6 782.519 4741.33 775.586 4739.73 775.052C4738.67 774.652 4731.33 774.252 4723.33 774.252H4708.93L4708.13 783.852C4706 807.852 4700.67 819.052 4687.33 827.586C4673.73 836.386 4666.93 837.319 4605.73 840.252L4588.67 841.052V747.586V653.986L4615.73 654.786C4630.53 655.186 4658 655.852 4676.67 656.252C4731.47 657.586 4731.87 657.719 4774.53 704.919C4789.07 720.919 4806.4 740.919 4819.47 756.519C4820.93 758.386 4823.47 759.586 4825.6 759.586C4830.13 759.586 4847.33 753.186 4847.33 751.452C4847.33 750.786 4846.13 746.786 4844.8 742.519C4837.87 722.119 4816 650.519 4812.67 637.586C4810.67 629.452 4808.53 621.986 4808.13 620.919C4807.33 619.186 4778.8 618.919 4561.6 618.919C4426.53 618.919 4305.33 618.652 4292.27 618.386C4275.6 617.986 4268 618.386 4266.93 619.452C4264.67 621.719 4264.8 651.852 4267.2 654.786C4268.67 656.519 4271.47 656.919 4281.47 656.919C4289.87 656.919 4295.73 657.586 4299.33 659.052C4309.47 663.052 4308.8 668.252 4291.87 715.186C4284.93 734.919 4271.73 771.852 4262.67 797.586C4253.73 823.186 4234.27 875.186 4219.6 912.919C4204.93 950.652 4191.2 986.519 4189.07 992.519C4187.07 998.652 4184.67 1003.59 4183.87 1003.59C4183.07 1003.59 4181.87 1001.59 4181.07 999.186C4180.27 996.919 4168.53 959.452 4154.8 916.252C4141.07 872.919 4119.47 806.386 4106.67 768.252C4080.8 691.452 4076.8 675.719 4080.93 667.186C4084.8 659.186 4090.13 657.719 4115.73 657.186C4143.33 656.652 4142 657.719 4142 635.186C4142 618.252 4141.87 617.852 4134.27 617.986C4132.27 617.986 4098.93 618.252 4060 618.652C4021.2 618.919 3978.67 618.919 3965.73 618.386C3952.67 617.986 3940.67 617.852 3939.07 618.252Z" fill="#1E317C"/>
<path d="M4886 618.653C4882.67 620.386 4882.67 620.519 4882.67 637.319C4882.67 651.053 4883.07 654.653 4884.67 655.586C4885.73 656.253 4891.73 656.919 4898 656.919C4918.93 656.919 4930.27 661.986 4936 673.586L4939.33 680.253L4938.27 869.586C4937.33 1057.85 4937.33 1058.92 4934.53 1064.25C4932.8 1067.72 4929.73 1070.79 4925.87 1072.92C4920.67 1075.85 4918 1076.25 4900.67 1076.92C4890 1077.32 4880.53 1078.12 4879.73 1078.65C4877.33 1080.25 4877.33 1108.92 4879.73 1112.12C4881.33 1114.25 4883.87 1114.39 4921.33 1113.19C4960.93 1111.99 4986.53 1111.99 5050.13 1113.72L5082.93 1114.52L5085.2 1111.45C5088.27 1106.92 5088.27 1082.12 5085.07 1079.45C5083.6 1078.12 5076.93 1077.45 5061.47 1076.92C5035.47 1076.12 5031.87 1074.65 5026.13 1062.39L5022.67 1054.92L5022.27 981.319L5021.87 907.719L5025.6 906.653C5027.6 906.119 5037.47 905.586 5047.33 905.586C5074.27 905.719 5085.33 909.719 5101.87 925.453C5115.87 938.919 5128.13 957.319 5160.67 1014.25C5190.93 1067.05 5213.33 1101.59 5224.27 1111.72L5229.33 1116.52L5242 1115.59C5256.13 1114.39 5340.27 1115.05 5350.8 1116.25C5361.2 1117.59 5362 1116.25 5362 1096.25C5362 1081.85 5361.73 1079.59 5359.73 1078.52C5358.4 1077.85 5351.07 1076.92 5343.33 1076.65C5321.47 1075.59 5311.07 1070.12 5289.33 1048.25C5273.2 1032.12 5262.13 1017.85 5229.33 971.586C5190.13 916.119 5179.6 904.119 5163.6 896.519C5158.93 894.386 5155.6 892.119 5156.27 891.719C5156.8 891.186 5161.87 889.053 5167.33 886.919C5208.27 871.586 5244 846.786 5260.53 822.519C5277.07 797.986 5285.6 766.919 5283.73 737.186C5282.53 716.653 5269.47 688.519 5252 668.919C5229.47 643.453 5192.4 626.786 5144 620.253C5131.2 618.519 5118.53 618.119 5080.67 618.519C5015.73 619.053 4895.47 618.653 4892.13 617.719C4890.53 617.319 4887.87 617.719 4886 618.653ZM5094.67 657.719C5118.67 661.853 5148 674.119 5162.8 686.119C5176.53 697.186 5188.93 719.053 5192.53 738.786C5199.33 775.453 5183.73 816.386 5153.73 840.919C5136.27 855.186 5108.67 865.719 5080.27 869.053C5065.73 870.786 5025.07 869.853 5023.07 867.853C5022.4 867.186 5022.13 822.653 5022.27 768.786C5022.67 679.053 5022.8 670.519 5024.93 666.653C5027.6 661.853 5034 657.586 5041.47 655.586C5048.4 653.853 5079.87 655.053 5094.67 657.719Z" fill="#1E317C"/>
<path d="M5718 617.986C5713.47 619.319 5712.67 622.652 5712.67 638.386C5712.67 649.186 5713.2 654.386 5714.4 655.319C5715.2 655.986 5727.6 656.919 5742 657.319C5761.2 657.852 5769.87 658.519 5775.33 660.252C5784.93 663.186 5790.93 667.052 5793.33 671.586C5796.27 677.319 5797.33 737.719 5797.33 902.919C5797.2 1058.39 5797.2 1060.52 5791.07 1068.39C5785.73 1075.05 5781.07 1076.12 5751.07 1076.92C5730.93 1077.45 5722.93 1078.12 5721.73 1079.32C5719.73 1081.32 5718.53 1100.92 5719.87 1108.25C5721.6 1117.05 5722 1117.19 5750.53 1115.99C5783.07 1114.65 5892.13 1114.65 5925.87 1115.99C5958.67 1117.32 5956.67 1118.65 5956.67 1096.12C5956.67 1084.52 5956.13 1079.45 5955.07 1078.65C5954.13 1078.12 5944.93 1077.32 5934.67 1076.92C5920 1076.25 5914.67 1075.45 5909.87 1073.32C5901.73 1069.72 5894.67 1062.12 5891.07 1053.05L5888 1045.59L5887.6 938.519C5887.33 844.786 5887.07 831.586 5885.2 831.586C5883.47 831.586 5883.33 821.719 5883.6 750.386C5884 670.786 5884 669.052 5886.8 665.319C5888.27 663.319 5892.4 660.119 5896 658.386C5901.87 655.452 5904.53 655.052 5924.13 654.519C5936 654.119 5946.53 653.452 5947.47 652.786C5948.8 651.986 5949.47 647.452 5949.73 636.519C5950.13 623.986 5949.87 621.186 5948.13 619.719C5946.4 618.252 5940.53 617.986 5921.6 618.386C5890.13 619.052 5728.93 618.652 5723.87 617.852C5721.73 617.586 5719.07 617.586 5718 617.986Z" fill="#1E317C"/>
<path d="M3033.6 1170.52C3011.87 1173.19 2987.07 1184.79 2966.67 1201.99C2932.13 1231.19 2902.93 1284.39 2892.53 1337.05C2888.4 1357.99 2888.27 1388.79 2892.4 1403.72C2899.6 1430.39 2916.67 1451.32 2937.73 1459.85C2944.27 1462.39 2947.73 1462.92 2962 1462.92C2973.73 1462.92 2981.2 1462.25 2987.33 1460.52C2998.93 1457.45 3020.67 1446.52 3031.47 1438.39C3066.53 1411.72 3098.13 1359.72 3112.4 1304.92C3118.53 1281.59 3120 1271.32 3119.87 1250.25C3119.87 1233.05 3119.47 1229.72 3116.27 1220.12C3104.27 1183.72 3074 1165.59 3033.6 1170.52ZM3072.27 1203.32C3084 1209.32 3090.27 1221.72 3090.13 1238.79C3089.87 1281.59 3041.87 1371.32 3000.8 1405.85C2982.27 1421.32 2965.73 1428.79 2949.6 1428.92C2929.6 1428.92 2918.27 1417.72 2916.93 1396.65C2915.33 1369.19 2929.47 1326.12 2954 1284.92C2980.93 1239.45 3011.87 1209.72 3041.07 1201.59C3050.67 1198.92 3065.07 1199.72 3072.27 1203.32Z" fill="#1E317C"/>
<path d="M6490.67 1248.92C6489.2 1249.45 6486.53 1251.59 6484.67 1253.59C6476.4 1262.65 6446.13 1279.45 6428 1284.92C6414.13 1289.19 6411.6 1290.25 6410.8 1292.52C6410 1294.39 6413.47 1303.19 6416.93 1307.85C6420 1312.12 6415.6 1326.92 6400 1364.25C6378.27 1416.39 6349.47 1482.52 6324.67 1537.59C6312.8 1563.99 6293.73 1606.25 6282.4 1631.59C6252.8 1697.32 6249.07 1704.39 6240.13 1712.65C6225.6 1725.85 6207.2 1730.79 6183.6 1727.85C6164.13 1725.45 6153.33 1718.25 6147.73 1703.72C6145.6 1698.12 6145.33 1688.52 6144.67 1588.92C6144.13 1509.59 6143.47 1479.05 6142.4 1475.72C6139.47 1467.59 6137.87 1433.32 6137.73 1378.92C6137.6 1320.92 6137.87 1318.25 6144.8 1312.39C6150.8 1307.32 6156.67 1306.12 6180.4 1305.32C6202 1304.52 6202.27 1304.52 6203.47 1301.32C6205.07 1297.19 6205.07 1274.12 6203.47 1271.72C6202.4 1269.99 6185.47 1269.72 6086 1269.72C5978.27 1269.59 5969.6 1269.72 5968.53 1271.85C5966.67 1275.45 5967.07 1304.39 5969.07 1305.99C5969.87 1306.65 5982.13 1307.59 5996 1307.99C6022.67 1308.65 6033.07 1310.52 6041.6 1315.72C6048.67 1320.12 6049.6 1323.45 6050.53 1346.92C6051.73 1378.39 6052.53 1651.85 6051.47 1683.59C6050.4 1713.05 6049.73 1716.52 6042.53 1722.12C6036.8 1726.65 6030.67 1727.59 6002.93 1728.52C5976.53 1729.32 5976.4 1729.32 5975.2 1732.52C5973.47 1737.05 5973.73 1756.92 5975.47 1762.12C5977.33 1767.45 5980 1768.12 5997.07 1767.05C6021.33 1765.59 6286.93 1765.05 6323.07 1766.39C6349.73 1767.45 6358.67 1767.32 6360.13 1766.12C6361.6 1764.92 6362 1760.79 6362 1748.79C6362 1734.52 6361.73 1732.92 6359.47 1731.59C6358 1730.92 6348.4 1730.25 6338 1730.25C6316.53 1730.25 6311.87 1728.92 6308 1721.72C6306.13 1718.25 6305.73 1715.19 6306.27 1706.12C6306.8 1695.59 6308.13 1691.59 6328.8 1635.99L6350.67 1576.92L6439.2 1577.32L6527.6 1577.59L6530.13 1584.25C6535.33 1597.85 6563.2 1682.12 6567.33 1696.65C6571.6 1711.59 6571.6 1711.85 6569.33 1717.72C6566.13 1725.99 6562 1727.85 6544.67 1728.79L6530.67 1729.59L6530.27 1746.39C6530 1760.79 6530.27 1763.72 6532.13 1765.59C6534.13 1767.59 6538 1767.72 6574.53 1766.65C6624.8 1765.32 6651.47 1765.32 6698.8 1766.65C6732.8 1767.59 6736.53 1767.45 6738.53 1765.45C6740.4 1763.72 6740.67 1760.65 6740.4 1746.39L6740 1729.59L6722.67 1728.65C6712 1728.12 6702.8 1726.92 6698.67 1725.59C6684.27 1720.65 6670.53 1708.39 6663.33 1694.25C6653.07 1673.85 6622.93 1590.92 6592.67 1499.59C6569.47 1429.45 6562.8 1410.12 6532.27 1323.59C6507.87 1254.65 6507.6 1253.85 6503.87 1250.52C6500.4 1247.59 6495.47 1246.92 6490.67 1248.92ZM6451.2 1341.72C6452 1343.59 6465.6 1387.45 6481.47 1439.32C6497.2 1491.19 6510.4 1534.39 6510.67 1535.19C6511.2 1536.52 6495.87 1536.92 6437.2 1536.92H6363.2L6364 1533.85C6364.53 1532.25 6382 1488.25 6402.8 1436.25C6426.27 1377.59 6441.73 1340.79 6443.47 1339.32C6446.67 1336.52 6449.2 1337.32 6451.2 1341.72Z" fill="#1E317C"/>
<path d="M4878.67 1255.72C4808.4 1261.19 4744.8 1288.52 4701.2 1332.39C4667.33 1366.39 4645.47 1409.05 4635.73 1460.12C4632.4 1477.32 4632.4 1532.52 4635.73 1554.25C4645.2 1616.25 4668.13 1663.72 4708 1703.05C4751.87 1746.39 4825.6 1774.25 4896.67 1774.25C4957.2 1774.25 5020.13 1759.45 5078.4 1731.45C5091.2 1725.45 5092 1723.85 5090.13 1708.52C5089.33 1701.85 5088.67 1675.05 5088.53 1649.19L5088.27 1602.12L5092.67 1597.59C5098.67 1591.45 5106.53 1589.05 5124 1587.99C5132.13 1587.59 5139.47 1586.65 5140.4 1585.85C5142.93 1583.85 5142.67 1555.05 5140 1552.92C5138.4 1551.59 5131.6 1551.45 5109.6 1552.25C5094.13 1552.79 5053.73 1553.05 5020 1552.79C4986.27 1552.65 4949.33 1552.39 4938 1552.39L4917.33 1552.25L4916.93 1567.45C4916.67 1576.79 4917.07 1583.19 4918 1584.25C4919.07 1585.45 4926.27 1586.12 4944.4 1586.52C4965.6 1587.05 4970.53 1587.59 4977.2 1589.99C4987.47 1593.72 4993.07 1598.25 4996.67 1605.59C4999.47 1611.32 4999.6 1612.65 4999.07 1647.19C4998.4 1685.32 4997.87 1689.19 4991.2 1698.25C4984.67 1707.05 4965.07 1717.05 4944.27 1722.12C4894.4 1734.52 4855.07 1727.99 4813.33 1700.25C4772.93 1673.45 4741.87 1622.92 4729.6 1564.25C4724.13 1538.12 4722.8 1524.52 4722.8 1494.92C4722.8 1470.92 4723.2 1464.92 4725.73 1452.92C4732.4 1422.12 4746.4 1389.72 4762.93 1366.52C4772.67 1352.92 4795.2 1330.25 4808.8 1320.65C4826.27 1308.25 4845.73 1299.32 4865.33 1294.79C4881.33 1291.05 4913.2 1291.32 4929.33 1295.32C4944 1299.05 4964.8 1309.05 4977.33 1318.52C5010.4 1343.59 5045.07 1387.19 5058 1420.25C5063.33 1433.59 5063.2 1433.59 5080.4 1427.99C5089.2 1425.05 5091.87 1423.59 5092.8 1421.05C5093.73 1418.92 5091.6 1398.65 5086 1355.85C5081.6 1321.72 5078 1291.99 5078 1289.85C5078 1285.85 5075.87 1280.92 5073.47 1279.32C5071.33 1277.85 5059.47 1278.12 5056.53 1279.59C5055.2 1280.39 5052.53 1283.99 5050.67 1287.59C5048.93 1291.19 5046.8 1294.39 5046.13 1294.92C5044.13 1295.99 5036.93 1292.65 5027.73 1286.39C5005.87 1271.45 4966.13 1259.19 4928.67 1255.72C4911.47 1254.12 4900.13 1254.12 4878.67 1255.72Z" fill="#1E317C"/>
<path d="M5393.6 1266.39C5391.87 1268.79 5391.33 1272.65 5391.33 1283.59C5391.33 1302.65 5391.2 1302.52 5409.47 1303.72C5436.4 1305.32 5450.53 1314.12 5460.4 1335.19L5464 1342.92L5464.13 1485.59C5464.13 1563.99 5463.87 1643.59 5463.33 1662.25C5462.53 1699.72 5461.87 1702.65 5453.6 1711.45C5446.13 1719.32 5440.93 1720.92 5421.33 1720.92C5411.87 1720.92 5403.2 1721.45 5402.27 1721.99C5401.07 1722.92 5400.67 1727.45 5400.93 1740.39L5401.33 1757.59H5414.67C5422 1757.59 5442.67 1757.19 5460.67 1756.79C5478.67 1756.39 5508.53 1756.52 5527.2 1757.19C5550.8 1757.99 5561.47 1757.99 5562.4 1757.05C5563.87 1755.59 5564.67 1728.79 5563.6 1722.52C5563.07 1719.72 5562.53 1719.59 5549.2 1719.59C5529.6 1719.59 5523.2 1716.65 5517.33 1704.92C5511.73 1693.45 5510.13 1681.45 5507.2 1622.92C5505.33 1586.92 5504 1348.92 5505.6 1348.92C5506.93 1348.92 5520.4 1365.85 5576.13 1437.59C5617.87 1491.45 5619.2 1493.19 5668.13 1550.39C5686.53 1571.99 5719.2 1610.92 5740.67 1636.92C5784.93 1690.52 5825.07 1738.12 5834.27 1748.25C5842.13 1756.92 5857.07 1764.92 5865.33 1764.92C5872.4 1764.92 5877.47 1761.19 5879.33 1754.52C5880.13 1751.32 5880.67 1704.92 5880.67 1620.79C5880.67 1492.65 5880.67 1491.85 5878 1491.19C5875.33 1490.52 5875.33 1489.85 5875.87 1417.99C5876.53 1326.79 5877.47 1317.19 5887.33 1310.12C5891.47 1307.19 5904.53 1304.92 5918.27 1304.92C5931.47 1304.92 5931.73 1304.52 5931.07 1284.12C5930.8 1272.39 5930.27 1268.52 5928.67 1267.45C5927.33 1266.65 5919.2 1266.39 5906 1266.92C5865.73 1268.39 5839.6 1268.52 5802.67 1267.32C5782.13 1266.65 5764 1266.52 5762.4 1266.92C5759.47 1267.59 5759.33 1268.12 5759.33 1284.25C5759.33 1295.99 5759.87 1301.05 5761.07 1301.85C5761.87 1302.39 5771.07 1303.19 5781.47 1303.59C5799.33 1304.25 5800.67 1304.52 5809.2 1308.79C5824.67 1316.39 5826.8 1321.32 5830.67 1358.92C5834.27 1395.19 5835.6 1435.05 5836.27 1532.52C5836.93 1628.79 5836.93 1628.92 5834.13 1628.92C5831.07 1628.92 5820.67 1616.65 5769.6 1552.39C5750.4 1528.25 5701.33 1466.79 5660.53 1415.72C5619.87 1364.65 5576.93 1310.65 5565.2 1295.59C5552.8 1279.72 5542.27 1267.45 5539.87 1266.25C5536.67 1264.65 5531.47 1264.39 5511.33 1264.92C5475.6 1265.72 5447.33 1265.59 5419.87 1264.25L5395.73 1263.19L5393.6 1266.39Z" fill="#1E317C"/>
<path d="M3927.6 1267.99C3926.4 1269.32 3926 1274.79 3926.27 1287.05L3926.67 1304.25L3951.33 1305.19C3987.33 1306.39 4002.27 1310.79 4006.67 1321.32C4008 1324.65 4008.67 1342.25 4009.47 1394.92C4010.93 1480.25 4010.4 1679.19 4008.67 1698.12C4007.33 1714.39 4005.73 1717.32 3995.87 1722.25C3989.73 1725.32 3987.87 1725.59 3962.67 1725.99C3947.47 1726.39 3935.33 1727.19 3934.4 1727.85C3931.87 1729.85 3932 1758.25 3934.53 1761.59C3936.27 1763.99 3940.67 1763.99 4051.2 1764.12C4135.87 1764.25 4166.53 1763.85 4167.47 1762.79C4168.13 1761.85 4168.53 1754.12 4168.4 1745.45L4168 1729.59L4150.93 1728.65C4123.33 1727.32 4112.67 1722.12 4105.07 1706.52L4101.33 1698.92L4100.93 1589.72C4100.53 1482.39 4100.53 1480.65 4098 1479.99C4095.33 1479.32 4095.33 1477.85 4095.33 1403.05C4095.33 1361.19 4096 1324.52 4096.67 1321.72C4098.27 1314.65 4101.73 1310.12 4108.13 1306.92C4112.53 1304.65 4116.93 1304.12 4136.4 1303.59C4154.93 1303.05 4159.73 1302.52 4160.67 1300.92C4161.33 1299.85 4162 1292.25 4162 1284.12C4162 1272.79 4161.6 1268.92 4160.13 1267.72C4158.67 1266.39 4148.4 1266.39 4116.4 1267.32C4075.2 1268.65 4033.47 1268.39 3964.67 1266.79C3934 1265.99 3929.07 1266.25 3927.6 1267.99Z" fill="#1E317C"/>
<path d="M4198.4 1267.72C4197.2 1268.92 4196.67 1274.25 4196.67 1284.39C4196.67 1303.59 4196.67 1303.59 4213.2 1303.59C4229.87 1303.59 4238.4 1306.25 4245.47 1313.59C4249.6 1317.85 4251.47 1321.05 4252.53 1326.25C4254.4 1335.19 4254.53 1443.59 4252.67 1443.59C4251.73 1443.59 4251.33 1487.99 4251.33 1573.99V1704.39L4248.4 1710.25C4246 1714.92 4243.73 1717.05 4238.8 1719.45C4232.93 1722.39 4229.73 1722.92 4213.07 1723.45C4198.13 1724.12 4193.6 1724.65 4192.53 1726.25C4190.67 1728.92 4191.73 1759.19 4193.6 1761.05C4194.67 1762.12 4202.53 1762.52 4219.6 1762.12C4250.27 1761.45 4335.6 1761.45 4370.27 1762.12C4390 1762.52 4397.2 1762.12 4398.67 1760.92C4401.33 1758.79 4401.6 1729.99 4399.07 1727.85C4398.13 1727.05 4388.13 1726.25 4376.67 1725.99C4356.93 1725.59 4355.73 1725.45 4349.73 1721.99C4345.33 1719.32 4342.67 1716.52 4340.4 1711.99L4337.33 1705.59L4336.93 1630.79L4336.53 1555.85L4339.6 1555.05C4345.47 1553.59 4378.53 1554.25 4385.47 1556.12C4412.13 1563.19 4428 1581.85 4470.93 1656.39C4505.47 1716.12 4523.6 1744.65 4535.2 1757.19L4541.33 1763.72L4607.87 1763.99C4672.53 1764.12 4674.53 1763.99 4675.47 1761.45C4677.2 1757.05 4676.8 1731.05 4675.07 1728.65C4673.73 1727.05 4669.87 1726.39 4660 1725.85C4652.67 1725.32 4643.6 1724.12 4639.87 1722.92C4629.73 1719.99 4617.6 1711.32 4604 1697.59C4588.4 1681.99 4578.67 1669.59 4552.27 1632.39C4505.07 1565.99 4492.4 1551.05 4477.73 1544.92C4473.47 1543.19 4470 1541.32 4470 1540.92C4470 1540.39 4476.4 1537.45 4484.4 1534.25C4547.6 1509.19 4580.93 1476.92 4593.73 1428.92C4596.53 1418.25 4597.07 1413.05 4597.2 1396.25C4597.33 1373.45 4595.6 1365.85 4586 1347.05C4566 1307.99 4535.47 1285.99 4484.4 1273.59C4456.4 1266.79 4440.93 1265.85 4371.33 1267.05C4292.13 1268.39 4291.33 1268.39 4241.33 1267.19C4208.93 1266.39 4199.6 1266.52 4198.4 1267.72ZM4414.27 1306.25C4422.53 1307.59 4434.53 1310.52 4440.8 1312.79C4456.8 1318.12 4478 1329.32 4486 1336.39C4493.73 1343.45 4503.07 1357.05 4507.73 1368.39C4527.73 1416.12 4505.2 1475.19 4456.8 1501.32C4431.2 1515.19 4392.53 1521.45 4355.07 1517.85L4343.33 1516.65V1419.19C4343.33 1325.45 4343.47 1321.32 4346 1315.85C4348.13 1311.19 4349.87 1309.59 4355.6 1306.92C4362 1303.85 4364.4 1303.59 4380.93 1303.59C4392.93 1303.59 4404.13 1304.52 4414.27 1306.25Z" fill="#1E317C"/>
<path d="M5118.27 1267.99C5117.07 1269.32 5116.67 1274.79 5116.93 1287.05L5117.33 1304.25L5142 1305.19C5169.2 1306.12 5182.4 1308.39 5190.27 1313.59C5199.33 1319.59 5198.93 1317.32 5200.27 1392.25C5201.6 1475.45 5201.07 1680.65 5199.33 1698.79C5198 1714.25 5196.27 1717.32 5186.53 1722.25C5180.4 1725.32 5178.53 1725.59 5153.33 1725.99C5130.8 1726.39 5126.4 1726.79 5125.07 1728.65C5122.67 1731.72 5122.67 1758.25 5125.2 1761.59C5126.93 1763.99 5131.33 1763.99 5241.87 1764.12C5326.53 1764.25 5357.2 1763.85 5358.13 1762.79C5358.8 1761.85 5359.2 1754.12 5359.07 1745.45L5358.67 1729.59L5341.73 1728.65C5314.4 1727.32 5303.6 1722.65 5296 1708.79L5292 1701.59L5291.6 1590.52C5291.33 1481.05 5291.2 1479.59 5288.67 1479.59C5286 1479.59 5286 1478.39 5286 1403.19C5286 1361.32 5286.67 1324.52 5287.33 1321.72C5288.93 1314.65 5292.4 1310.12 5298.8 1306.92C5303.2 1304.65 5307.6 1304.12 5327.07 1303.59C5345.6 1303.05 5350.4 1302.52 5351.33 1300.92C5352 1299.85 5352.67 1292.25 5352.67 1284.12C5352.67 1272.79 5352.27 1268.92 5350.8 1267.72C5349.33 1266.39 5339.07 1266.39 5307.07 1267.32C5265.87 1268.65 5224.13 1268.39 5155.33 1266.79C5124.67 1265.99 5119.73 1266.25 5118.27 1267.99Z" fill="#1E317C"/>
<path d="M8409.9 592V760.7H8508.6C8517.47 760.7 8523.53 757.2 8526.8 750.2C8530.07 742.733 8532.87 730.833 8535.2 714.5C8535.67 710.767 8537.07 708.433 8539.4 707.5C8541.73 706.1 8544.77 705.4 8548.5 705.4C8549.9 705.4 8552 705.633 8554.8 706.1C8558.07 706.1 8560.4 706.333 8561.8 706.8C8560.87 717.533 8559.93 730.133 8559 744.6C8558.53 758.6 8558.3 770.5 8558.3 780.3C8558.3 788.7 8558.53 798.733 8559 810.4C8559.47 821.6 8560.4 834.433 8561.8 848.9C8560.4 849.833 8558.07 850.533 8554.8 851C8552 851 8549.9 851 8548.5 851C8540.1 851 8535.67 847.733 8535.2 841.2C8532.4 823.467 8529.13 811.567 8525.4 805.5C8522.13 798.967 8516.53 795.7 8508.6 795.7H8409.9V952.5C8409.9 962.3 8415.97 968.833 8428.1 972.1C8440.23 975.367 8460.77 977 8489.7 977H8519.1C8533.1 977 8544.77 975.133 8554.1 971.4C8563.9 967.667 8572.53 962.533 8580 956C8587.47 949 8594 941.067 8599.6 932.2C8605.2 922.867 8610.8 912.6 8616.4 901.4C8617.8 898.133 8621.07 896.5 8626.2 896.5C8628.53 896.5 8631.33 897.2 8634.6 898.6C8637.87 900 8641.13 901.4 8644.4 902.8C8643.47 906.533 8642.3 910.033 8640.9 913.3C8639.97 916.567 8639.03 919.833 8638.1 923.1C8635.77 928.233 8633.9 933.833 8632.5 939.9C8631.1 945.967 8629.7 950.867 8628.3 954.6C8627.37 959.267 8626.2 964.633 8624.8 970.7C8623.87 976.3 8622.7 981.9 8621.3 987.5C8620.37 992.633 8619.2 997.3 8617.8 1001.5C8616.87 1005.7 8616.17 1008.5 8615.7 1009.9C8613.83 1013.63 8610.1 1015.5 8604.5 1015.5C8600.77 1015.5 8595.4 1015.27 8588.4 1014.8C8581.4 1014.33 8573.7 1013.87 8565.3 1013.4C8557.37 1013.4 8549.2 1013.17 8540.8 1012.7C8532.4 1012.23 8525.17 1012 8519.1 1012H8360.2C8346.67 1012 8331.03 1012.23 8313.3 1012.7C8296.03 1013.63 8280.4 1014.57 8266.4 1015.5C8265.47 1013.63 8265 1011.3 8265 1008.5C8265 1005.23 8265 1002.9 8265 1001.5C8265 994.5 8267.33 990.767 8272 990.3C8289.73 987.033 8302.33 983.533 8309.8 979.8C8317.73 976.067 8321.7 969.533 8321.7 960.2V609.5C8321.7 604.833 8321 601.1 8319.6 598.3C8318.2 595.033 8315.4 592.467 8311.2 590.6C8307.47 588.267 8302.33 586.4 8295.8 585C8289.73 583.133 8281.8 581.267 8272 579.4C8267.33 578 8265 573.8 8265 566.8C8265 564.467 8265 562.367 8265 560.5C8265 558.167 8265.47 555.833 8266.4 553.5C8286.47 554.9 8304.2 555.833 8319.6 556.3C8335 556.767 8348.3 557 8359.5 557H8503C8524 557 8541.97 556.3 8556.9 554.9C8572.3 553.5 8582.8 552.8 8588.4 552.8C8593.53 552.8 8597.27 554.9 8599.6 559.1C8601 562.833 8602.17 569.833 8603.1 580.1C8604.03 589.9 8605.67 600.167 8608 610.9C8609.4 618.833 8611.03 626.533 8612.9 634C8614.77 641.467 8617.57 650.567 8621.3 661.3C8618.97 662.233 8616.4 663.167 8613.6 664.1C8610.8 665.033 8608 665.5 8605.2 665.5C8600.07 665.5 8596.33 663.4 8594 659.2C8588.4 647.067 8582.8 636.8 8577.2 628.4C8572.07 619.533 8566 612.533 8559 607.4C8552.47 601.8 8544.53 597.833 8535.2 595.5C8526.33 593.167 8515.6 592 8503 592H8409.9ZM9008.7 969.3C9008.7 975.833 9011.5 980.967 9017.1 984.7C9022.7 987.967 9032.96 990.767 9047.9 993.1C9049.76 993.567 9051.4 994.5 9052.8 995.9C9054.66 996.833 9055.6 998.933 9055.6 1002.2C9055.6 1005 9055.36 1007.57 9054.9 1009.9C9054.9 1011.77 9054.66 1013.63 9054.2 1015.5C9042.06 1014.57 9029.93 1013.63 9017.8 1012.7C9005.66 1012.23 8990.5 1012 8972.3 1012C8957.36 1012 8943.36 1012.23 8930.3 1012.7C8917.23 1013.63 8904.63 1014.57 8892.5 1015.5C8891.56 1013.17 8891.1 1008.73 8891.1 1002.2C8891.1 997.067 8893.66 994.033 8898.8 993.1C8910.93 990.767 8919.1 987.967 8923.3 984.7C8927.5 981.433 8929.6 976.3 8929.6 969.3V832.1C8929.6 804.567 8926.1 785.667 8919.1 775.4C8912.56 764.667 8901.83 759.3 8886.9 759.3C8865.9 759.3 8847.93 766.533 8833 781C8818.06 795 8810.6 816 8810.6 844V969.3C8810.6 976.3 8812.7 981.433 8816.9 984.7C8821.1 987.967 8829.26 990.767 8841.4 993.1C8846.53 994.033 8849.1 997.067 8849.1 1002.2C8849.1 1008.73 8848.63 1013.17 8847.7 1015.5C8835.56 1014.57 8822.96 1013.63 8809.9 1012.7C8796.83 1012.23 8782.83 1012 8767.9 1012C8749.7 1012 8734.3 1012.23 8721.7 1012.7C8709.56 1013.63 8697.66 1014.57 8686 1015.5C8685.53 1013.63 8685.06 1011.77 8684.6 1009.9C8684.6 1007.57 8684.6 1005 8684.6 1002.2C8684.6 998.933 8685.3 996.833 8686.7 995.9C8688.56 994.5 8690.43 993.567 8692.3 993.1C8707.23 990.3 8717.5 987.267 8723.1 984C8728.7 980.733 8731.5 975.6 8731.5 968.6V783.8C8731.5 769.8 8728.93 759.067 8723.8 751.6C8718.66 744.133 8707.93 739.7 8691.6 738.3C8685.53 736.9 8682.5 733.167 8682.5 727.1C8682.5 725.7 8682.5 724.067 8682.5 722.2C8682.5 719.867 8682.96 717.767 8683.9 715.9C8686.7 715.9 8690.66 715.9 8695.8 715.9C8701.4 715.433 8707.23 715.2 8713.3 715.2C8719.36 714.733 8725.43 714.267 8731.5 713.8C8737.56 713.333 8743.16 712.867 8748.3 712.4C8759.96 711 8771.16 709.133 8781.9 706.8C8792.63 704.467 8799.86 703.3 8803.6 703.3C8811.06 703.3 8814.8 706.8 8814.8 713.8C8814.8 718.933 8814.1 725.7 8812.7 734.1C8811.3 742.5 8810.6 754.167 8810.6 769.1C8825.53 749.5 8842.1 733.633 8860.3 721.5C8878.5 709.367 8897.4 703.3 8917 703.3C8945.46 703.3 8967.86 711.233 8984.2 727.1C9000.53 742.967 9008.7 766.767 9008.7 798.5V969.3ZM9143.1 1000.1C9133.77 994.967 9126.53 987.967 9121.4 979.1C9116.73 970.233 9114.4 960.433 9114.4 949.7C9114.4 934.767 9117.9 922.867 9124.9 914C9131.9 905.133 9142.87 896.033 9157.8 886.7C9145.67 878.767 9134.93 868.733 9125.6 856.6C9116.27 844 9111.6 827.9 9111.6 808.3C9111.6 793.367 9114.87 779.6 9121.4 767C9128.4 753.933 9137.5 742.733 9148.7 733.4C9159.9 724.067 9172.97 716.833 9187.9 711.7C9202.83 706.1 9218.7 703.3 9235.5 703.3C9258.37 703.3 9277.73 706.8 9293.6 713.8C9309.93 720.333 9322.77 727.1 9332.1 734.1L9400.7 700.5C9406.3 704.233 9410.5 709.367 9413.3 715.9C9416.57 721.967 9418.2 727.8 9418.2 733.4C9418.2 738.067 9417.27 742.033 9415.4 745.3C9413.53 748.1 9410.03 749.5 9404.9 749.5C9403.03 749.5 9400.23 749.5 9396.5 749.5C9392.77 749.033 9389.73 748.8 9387.4 748.8C9382.27 748.8 9377.13 749.267 9372 750.2C9366.87 750.667 9360.33 752.067 9352.4 754.4C9363.6 768.867 9369.2 786.6 9369.2 807.6C9369.2 836.067 9357.77 859.633 9334.9 878.3C9312.5 896.967 9279.37 906.3 9235.5 906.3C9225.7 906.3 9216.37 905.833 9207.5 904.9C9198.63 903.5 9190.23 901.4 9182.3 898.6C9172.97 903.733 9166.43 908.867 9162.7 914C9158.97 918.667 9157.1 922.867 9157.1 926.6C9157.1 930.333 9158.03 933.6 9159.9 936.4C9161.77 939.2 9165.5 941.533 9171.1 943.4C9176.7 945.267 9184.63 946.9 9194.9 948.3C9205.63 949.233 9219.63 949.7 9236.9 949.7C9260.23 949.7 9281.7 951.8 9301.3 956C9320.9 959.733 9337.7 965.8 9351.7 974.2C9366.17 982.6 9377.37 993.567 9385.3 1007.1C9393.23 1020.17 9397.2 1036.03 9397.2 1054.7C9397.2 1071.5 9393.7 1087.37 9386.7 1102.3C9380.17 1117.7 9370.13 1131 9356.6 1142.2C9343.07 1153.87 9326.03 1162.97 9305.5 1169.5C9285.43 1176.5 9261.87 1180 9234.8 1180C9213.8 1180 9194.43 1178.13 9176.7 1174.4C9158.97 1171.13 9143.57 1165.53 9130.5 1157.6C9117.9 1149.67 9107.87 1139.4 9100.4 1126.8C9093.4 1114.2 9089.9 1098.57 9089.9 1079.9C9089.9 1061.7 9095.03 1045.83 9105.3 1032.3C9116.03 1019.23 9128.63 1008.5 9143.1 1000.1ZM9164.1 1013.4C9158.97 1019.93 9155.47 1027.17 9153.6 1035.1C9152.2 1043.03 9151.5 1051.67 9151.5 1061C9151.5 1071.73 9153.13 1082 9156.4 1091.8C9160.13 1102.07 9165.97 1110.93 9173.9 1118.4C9181.83 1126.33 9192.1 1132.63 9204.7 1137.3C9217.3 1142.43 9232.47 1145 9250.2 1145C9279.13 1145 9300.13 1138.23 9313.2 1124.7C9326.73 1111.17 9333.5 1094.83 9333.5 1075.7C9333.5 1061.7 9326.27 1049.8 9311.8 1040C9297.33 1030.67 9272.83 1026 9238.3 1026C9226.17 1026 9213.1 1024.83 9199.1 1022.5C9185.1 1020.17 9173.43 1017.13 9164.1 1013.4ZM9242.5 875.5C9256.03 875.5 9267.23 870.833 9276.1 861.5C9285.43 852.167 9290.1 837.233 9290.1 816.7C9290.1 806.433 9289.4 796.4 9288 786.6C9287.07 776.8 9284.5 768.167 9280.3 760.7C9276.1 752.767 9270.03 746.467 9262.1 741.8C9254.63 736.667 9244.6 734.1 9232 734.1C9219.4 734.1 9208.9 739.233 9200.5 749.5C9192.1 759.767 9187.9 773.767 9187.9 791.5C9187.9 802.233 9188.37 812.733 9189.3 823C9190.7 832.8 9193.27 841.667 9197 849.6C9201.2 857.067 9206.8 863.367 9213.8 868.5C9220.8 873.167 9230.37 875.5 9242.5 875.5ZM9533.59 1012C9515.39 1012 9499.75 1012.23 9486.69 1012.7C9473.62 1013.63 9461.02 1014.57 9448.89 1015.5C9447.95 1010.83 9447.49 1006.4 9447.49 1002.2C9447.49 998.933 9448.19 996.833 9449.59 995.9C9451.45 994.5 9453.32 993.567 9455.19 993.1C9470.12 990.3 9480.39 987.267 9485.99 984C9491.59 980.733 9494.39 975.6 9494.39 968.6V783.8C9494.39 769.8 9492.05 759.067 9487.39 751.6C9482.72 744.133 9471.75 739.7 9454.49 738.3C9448.42 737.367 9445.39 733.633 9445.39 727.1C9445.39 725.7 9445.39 724.067 9445.39 722.2C9445.39 719.867 9445.85 717.767 9446.79 715.9C9449.59 715.9 9453.55 715.9 9458.69 715.9C9464.29 715.433 9470.12 715.2 9476.19 715.2C9482.25 714.733 9488.32 714.267 9494.39 713.8C9500.45 713.333 9506.05 712.867 9511.19 712.4C9522.85 711 9534.05 709.133 9544.79 706.8C9555.52 704.467 9562.75 703.3 9566.49 703.3C9573.95 703.3 9577.69 706.8 9577.69 713.8C9577.69 718.933 9576.99 725.7 9575.59 734.1C9574.19 742.5 9573.49 754.167 9573.49 769.1V968.6C9573.49 975.6 9576.52 980.733 9582.59 984C9588.65 987.267 9598.69 990.3 9612.69 993.1C9617.82 994.033 9620.39 997.067 9620.39 1002.2C9620.39 1004.53 9620.39 1006.87 9620.39 1009.2C9620.39 1011.53 9619.92 1013.63 9618.99 1015.5C9607.32 1014.57 9594.72 1013.63 9581.19 1012.7C9567.65 1012.23 9551.79 1012 9533.59 1012ZM9482.49 601.1C9482.49 586.167 9487.15 574.033 9496.49 564.7C9506.29 554.9 9518.42 550 9532.89 550C9547.82 550 9559.95 554.9 9569.29 564.7C9578.62 574.033 9583.29 586.167 9583.29 601.1C9583.29 616.033 9578.62 628.4 9569.29 638.2C9559.95 647.533 9547.82 652.2 9532.89 652.2C9518.42 652.2 9506.29 647.533 9496.49 638.2C9487.15 628.4 9482.49 616.033 9482.49 601.1ZM9982.82 969.3C9982.82 975.833 9985.62 980.967 9991.22 984.7C9996.82 987.967 10007.1 990.767 10022 993.1C10023.9 993.567 10025.5 994.5 10026.9 995.9C10028.8 996.833 10029.7 998.933 10029.7 1002.2C10029.7 1005 10029.5 1007.57 10029 1009.9C10029 1011.77 10028.8 1013.63 10028.3 1015.5C10016.2 1014.57 10004 1013.63 9991.92 1012.7C9979.78 1012.23 9964.62 1012 9946.42 1012C9931.48 1012 9917.48 1012.23 9904.42 1012.7C9891.35 1013.63 9878.75 1014.57 9866.62 1015.5C9865.68 1013.17 9865.22 1008.73 9865.22 1002.2C9865.22 997.067 9867.78 994.033 9872.92 993.1C9885.05 990.767 9893.22 987.967 9897.42 984.7C9901.62 981.433 9903.72 976.3 9903.72 969.3V832.1C9903.72 804.567 9900.22 785.667 9893.22 775.4C9886.68 764.667 9875.95 759.3 9861.02 759.3C9840.02 759.3 9822.05 766.533 9807.12 781C9792.18 795 9784.72 816 9784.72 844V969.3C9784.72 976.3 9786.82 981.433 9791.02 984.7C9795.22 987.967 9803.38 990.767 9815.52 993.1C9820.65 994.033 9823.22 997.067 9823.22 1002.2C9823.22 1008.73 9822.75 1013.17 9821.82 1015.5C9809.68 1014.57 9797.08 1013.63 9784.02 1012.7C9770.95 1012.23 9756.95 1012 9742.02 1012C9723.82 1012 9708.42 1012.23 9695.82 1012.7C9683.68 1013.63 9671.78 1014.57 9660.12 1015.5C9659.65 1013.63 9659.18 1011.77 9658.72 1009.9C9658.72 1007.57 9658.72 1005 9658.72 1002.2C9658.72 998.933 9659.42 996.833 9660.82 995.9C9662.68 994.5 9664.55 993.567 9666.42 993.1C9681.35 990.3 9691.62 987.267 9697.22 984C9702.82 980.733 9705.62 975.6 9705.62 968.6V783.8C9705.62 769.8 9703.05 759.067 9697.92 751.6C9692.78 744.133 9682.05 739.7 9665.72 738.3C9659.65 736.9 9656.62 733.167 9656.62 727.1C9656.62 725.7 9656.62 724.067 9656.62 722.2C9656.62 719.867 9657.08 717.767 9658.02 715.9C9660.82 715.9 9664.78 715.9 9669.92 715.9C9675.52 715.433 9681.35 715.2 9687.42 715.2C9693.48 714.733 9699.55 714.267 9705.62 713.8C9711.68 713.333 9717.28 712.867 9722.42 712.4C9734.08 711 9745.28 709.133 9756.02 706.8C9766.75 704.467 9773.98 703.3 9777.72 703.3C9785.18 703.3 9788.92 706.8 9788.92 713.8C9788.92 718.933 9788.22 725.7 9786.82 734.1C9785.42 742.5 9784.72 754.167 9784.72 769.1C9799.65 749.5 9816.22 733.633 9834.42 721.5C9852.62 709.367 9871.52 703.3 9891.12 703.3C9919.58 703.3 9941.98 711.233 9958.32 727.1C9974.65 742.967 9982.82 766.767 9982.82 798.5V969.3ZM10333.5 947.6C10337.7 944.333 10341.5 942.7 10344.7 942.7C10347.1 942.7 10349.6 943.867 10352.4 946.2C10355.7 948.067 10359 952.033 10362.2 958.1C10344 979.567 10323 995.433 10299.2 1005.7C10275.9 1015.5 10248.1 1020.4 10215.9 1020.4C10197.7 1020.4 10179.8 1017.6 10162 1012C10144.8 1005.93 10129.1 996.833 10115.1 984.7C10101.1 972.1 10089.7 956.467 10080.8 937.8C10072.4 919.133 10068.2 896.733 10068.2 870.6C10068.2 844.933 10073.1 821.833 10082.9 801.3C10093.2 780.3 10106 762.567 10121.4 748.1C10136.8 733.633 10153.6 722.667 10171.8 715.2C10190 707.267 10207.5 703.3 10224.3 703.3C10269.6 703.3 10303.7 716.367 10326.5 742.5C10349.9 768.633 10361.5 804.333 10361.5 849.6C10361.5 852.867 10359.9 854.5 10356.6 854.5L10155.7 862.9C10155.7 899.3 10163.9 927.3 10180.2 946.9C10196.6 966.033 10221.1 975.6 10253.7 975.6C10268.2 975.6 10282.4 973.267 10296.4 968.6C10310.4 963.933 10322.8 956.933 10333.5 947.6ZM10213.8 734.1C10195.6 734.1 10180.9 742.033 10169.7 757.9C10159 773.3 10153.6 797.8 10153.6 831.4L10262.8 826.5C10269.8 826.033 10273.3 823 10273.3 817.4C10273.3 808.533 10272.2 799.2 10269.8 789.4C10267.5 779.6 10263.8 770.733 10258.6 762.8C10254 754.4 10247.9 747.633 10240.4 742.5C10233 736.9 10224.1 734.1 10213.8 734.1ZM10671.9 947.6C10676.1 944.333 10679.8 942.7 10683.1 942.7C10685.4 942.7 10688 943.867 10690.8 946.2C10694.1 948.067 10697.3 952.033 10700.6 958.1C10682.4 979.567 10661.4 995.433 10637.6 1005.7C10614.3 1015.5 10586.5 1020.4 10554.3 1020.4C10536.1 1020.4 10518.1 1017.6 10500.4 1012C10483.1 1005.93 10467.5 996.833 10453.5 984.7C10439.5 972.1 10428.1 956.467 10419.2 937.8C10410.8 919.133 10406.6 896.733 10406.6 870.6C10406.6 844.933 10411.5 821.833 10421.3 801.3C10431.6 780.3 10444.4 762.567 10459.8 748.1C10475.2 733.633 10492 722.667 10510.2 715.2C10528.4 707.267 10545.9 703.3 10562.7 703.3C10608 703.3 10642 716.367 10664.9 742.5C10688.2 768.633 10699.9 804.333 10699.9 849.6C10699.9 852.867 10698.3 854.5 10695 854.5L10494.1 862.9C10494.1 899.3 10502.3 927.3 10518.6 946.9C10534.9 966.033 10559.4 975.6 10592.1 975.6C10606.6 975.6 10620.8 973.267 10634.8 968.6C10648.8 963.933 10661.2 956.933 10671.9 947.6ZM10552.2 734.1C10534 734.1 10519.3 742.033 10508.1 757.9C10497.4 773.3 10492 797.8 10492 831.4L10601.2 826.5C10608.2 826.033 10611.7 823 10611.7 817.4C10611.7 808.533 10610.5 799.2 10608.2 789.4C10605.9 779.6 10602.1 770.733 10597 762.8C10592.3 754.4 10586.3 747.633 10578.8 742.5C10571.3 736.9 10562.5 734.1 10552.2 734.1ZM10966.2 704C10979.7 704 10989.7 707.5 10996.3 714.5C11003.3 721.5 11006.8 730.367 11006.8 741.1C11006.8 744.367 11006.1 747.167 11004.7 749.5C11003.7 751.833 11001.2 754.4 10997 757.2C10993.2 760 10987.9 763.267 10980.9 767C10973.9 770.267 10964.8 774.467 10953.6 779.6C10946.1 772.133 10939.1 767.233 10932.6 764.9C10926.5 762.1 10920.4 760.7 10914.4 760.7C10908.8 760.7 10903.2 761.633 10897.6 763.5C10892.4 765.367 10887.8 769.1 10883.6 774.7C10879.4 779.833 10875.9 786.833 10873.1 795.7C10870.7 804.567 10869.6 816 10869.6 830V960.2C10869.6 969.533 10873.3 976.533 10880.8 981.2C10888.2 985.4 10902.9 989.367 10924.9 993.1C10930 994.033 10932.6 997.067 10932.6 1002.2C10932.6 1008.73 10932.1 1013.17 10931.2 1015.5C10925.1 1015.03 10917.6 1014.57 10908.8 1014.1C10899.9 1014.1 10890.6 1013.87 10880.8 1013.4C10871 1012.93 10861.2 1012.47 10851.4 1012C10842 1012 10833.6 1012 10826.2 1012C10808.4 1012 10793.3 1012.23 10780.7 1012.7C10768.1 1013.63 10756.2 1014.57 10745 1015.5C10744 1013.17 10743.6 1008.73 10743.6 1002.2C10743.6 997.067 10746.1 994.033 10751.3 993.1C10766.2 990.3 10776.5 987.267 10782.1 984C10787.7 980.733 10790.5 975.6 10790.5 968.6V780.3C10790.5 769.567 10788.4 760.933 10784.2 754.4C10780.4 747.867 10769.5 743.433 10751.3 741.1C10744.7 740.167 10741.5 736.667 10741.5 730.6C10741.5 729.2 10741.5 727.333 10741.5 725C10741.5 722.667 10741.9 720.8 10742.9 719.4C10745.7 719.4 10749.6 719.4 10754.8 719.4C10759.9 718.933 10765.5 718.7 10771.6 718.7C10777.6 718.233 10783.7 717.767 10789.8 717.3C10795.8 716.833 10801.2 716.133 10805.9 715.2C10816.1 713.8 10826.6 712.167 10837.4 710.3C10848.6 707.967 10856 706.8 10859.8 706.8C10866.3 706.8 10869.6 710.3 10869.6 717.3V755.1C10885.9 737.367 10901.5 724.533 10916.5 716.6C10931.4 708.2 10948 704 10966.2 704ZM11115.4 1012C11097.2 1012 11081.6 1012.23 11068.5 1012.7C11055.5 1013.63 11042.9 1014.57 11030.7 1015.5C11029.8 1010.83 11029.3 1006.4 11029.3 1002.2C11029.3 998.933 11030 996.833 11031.4 995.9C11033.3 994.5 11035.2 993.567 11037 993.1C11052 990.3 11062.2 987.267 11067.8 984C11073.4 980.733 11076.2 975.6 11076.2 968.6V783.8C11076.2 769.8 11073.9 759.067 11069.2 751.6C11064.6 744.133 11053.6 739.7 11036.3 738.3C11030.3 737.367 11027.2 733.633 11027.2 727.1C11027.2 725.7 11027.2 724.067 11027.2 722.2C11027.2 719.867 11027.7 717.767 11028.6 715.9C11031.4 715.9 11035.4 715.9 11040.5 715.9C11046.1 715.433 11052 715.2 11058 715.2C11064.1 714.733 11070.2 714.267 11076.2 713.8C11082.3 713.333 11087.9 712.867 11093 712.4C11104.7 711 11115.9 709.133 11126.6 706.8C11137.4 704.467 11144.6 703.3 11148.3 703.3C11155.8 703.3 11159.5 706.8 11159.5 713.8C11159.5 718.933 11158.8 725.7 11157.4 734.1C11156 742.5 11155.3 754.167 11155.3 769.1V968.6C11155.3 975.6 11158.4 980.733 11164.4 984C11170.5 987.267 11180.5 990.3 11194.5 993.1C11199.7 994.033 11202.2 997.067 11202.2 1002.2C11202.2 1004.53 11202.2 1006.87 11202.2 1009.2C11202.2 1011.53 11201.8 1013.63 11200.8 1015.5C11189.2 1014.57 11176.6 1013.63 11163 1012.7C11149.5 1012.23 11133.6 1012 11115.4 1012ZM11064.3 601.1C11064.3 586.167 11069 574.033 11078.3 564.7C11088.1 554.9 11100.3 550 11114.7 550C11129.7 550 11141.8 554.9 11151.1 564.7C11160.5 574.033 11165.1 586.167 11165.1 601.1C11165.1 616.033 11160.5 628.4 11151.1 638.2C11141.8 647.533 11129.7 652.2 11114.7 652.2C11100.3 652.2 11088.1 647.533 11078.3 638.2C11069 628.4 11064.3 616.033 11064.3 601.1ZM11564.7 969.3C11564.7 975.833 11567.5 980.967 11573.1 984.7C11578.7 987.967 11588.9 990.767 11603.9 993.1C11605.7 993.567 11607.4 994.5 11608.8 995.9C11610.6 996.833 11611.6 998.933 11611.6 1002.2C11611.6 1005 11611.3 1007.57 11610.9 1009.9C11610.9 1011.77 11610.6 1013.63 11610.2 1015.5C11598 1014.57 11585.9 1013.63 11573.8 1012.7C11561.6 1012.23 11546.5 1012 11528.3 1012C11513.3 1012 11499.3 1012.23 11486.3 1012.7C11473.2 1013.63 11460.6 1014.57 11448.5 1015.5C11447.5 1013.17 11447.1 1008.73 11447.1 1002.2C11447.1 997.067 11449.6 994.033 11454.8 993.1C11466.9 990.767 11475.1 987.967 11479.3 984.7C11483.5 981.433 11485.6 976.3 11485.6 969.3V832.1C11485.6 804.567 11482.1 785.667 11475.1 775.4C11468.5 764.667 11457.8 759.3 11442.9 759.3C11421.9 759.3 11403.9 766.533 11389 781C11374 795 11366.6 816 11366.6 844V969.3C11366.6 976.3 11368.7 981.433 11372.9 984.7C11377.1 987.967 11385.2 990.767 11397.4 993.1C11402.5 994.033 11405.1 997.067 11405.1 1002.2C11405.1 1008.73 11404.6 1013.17 11403.7 1015.5C11391.5 1014.57 11378.9 1013.63 11365.9 1012.7C11352.8 1012.23 11338.8 1012 11323.9 1012C11305.7 1012 11290.3 1012.23 11277.7 1012.7C11265.5 1013.63 11253.6 1014.57 11242 1015.5C11241.5 1013.63 11241 1011.77 11240.6 1009.9C11240.6 1007.57 11240.6 1005 11240.6 1002.2C11240.6 998.933 11241.3 996.833 11242.7 995.9C11244.5 994.5 11246.4 993.567 11248.3 993.1C11263.2 990.3 11273.5 987.267 11279.1 984C11284.7 980.733 11287.5 975.6 11287.5 968.6V783.8C11287.5 769.8 11284.9 759.067 11279.8 751.6C11274.6 744.133 11263.9 739.7 11247.6 738.3C11241.5 736.9 11238.5 733.167 11238.5 727.1C11238.5 725.7 11238.5 724.067 11238.5 722.2C11238.5 719.867 11238.9 717.767 11239.9 715.9C11242.7 715.9 11246.6 715.9 11251.8 715.9C11257.4 715.433 11263.2 715.2 11269.3 715.2C11275.3 714.733 11281.4 714.267 11287.5 713.8C11293.5 713.333 11299.1 712.867 11304.3 712.4C11315.9 711 11327.1 709.133 11337.9 706.8C11348.6 704.467 11355.8 703.3 11359.6 703.3C11367 703.3 11370.8 706.8 11370.8 713.8C11370.8 718.933 11370.1 725.7 11368.7 734.1C11367.3 742.5 11366.6 754.167 11366.6 769.1C11381.5 749.5 11398.1 733.633 11416.3 721.5C11434.5 709.367 11453.4 703.3 11473 703.3C11501.4 703.3 11523.8 711.233 11540.2 727.1C11556.5 742.967 11564.7 766.767 11564.7 798.5V969.3ZM11699.1 1000.1C11689.7 994.967 11682.5 987.967 11677.4 979.1C11672.7 970.233 11670.4 960.433 11670.4 949.7C11670.4 934.767 11673.9 922.867 11680.9 914C11687.9 905.133 11698.8 896.033 11713.8 886.7C11701.6 878.767 11690.9 868.733 11681.6 856.6C11672.2 844 11667.6 827.9 11667.6 808.3C11667.6 793.367 11670.8 779.6 11677.4 767C11684.4 753.933 11693.5 742.733 11704.7 733.4C11715.9 724.067 11728.9 716.833 11743.9 711.7C11758.8 706.1 11774.7 703.3 11791.5 703.3C11814.3 703.3 11833.7 706.8 11849.6 713.8C11865.9 720.333 11878.7 727.1 11888.1 734.1L11956.7 700.5C11962.3 704.233 11966.5 709.367 11969.3 715.9C11972.5 721.967 11974.2 727.8 11974.2 733.4C11974.2 738.067 11973.2 742.033 11971.4 745.3C11969.5 748.1 11966 749.5 11960.9 749.5C11959 749.5 11956.2 749.5 11952.5 749.5C11948.7 749.033 11945.7 748.8 11943.4 748.8C11938.2 748.8 11933.1 749.267 11928 750.2C11922.8 750.667 11916.3 752.067 11908.4 754.4C11919.6 768.867 11925.2 786.6 11925.2 807.6C11925.2 836.067 11913.7 859.633 11890.9 878.3C11868.5 896.967 11835.3 906.3 11791.5 906.3C11781.7 906.3 11772.3 905.833 11763.5 904.9C11754.6 903.5 11746.2 901.4 11738.3 898.6C11728.9 903.733 11722.4 908.867 11718.7 914C11714.9 918.667 11713.1 922.867 11713.1 926.6C11713.1 930.333 11714 933.6 11715.9 936.4C11717.7 939.2 11721.5 941.533 11727.1 943.4C11732.7 945.267 11740.6 946.9 11750.9 948.3C11761.6 949.233 11775.6 949.7 11792.9 949.7C11816.2 949.7 11837.7 951.8 11857.3 956C11876.9 959.733 11893.7 965.8 11907.7 974.2C11922.1 982.6 11933.3 993.567 11941.3 1007.1C11949.2 1020.17 11953.2 1036.03 11953.2 1054.7C11953.2 1071.5 11949.7 1087.37 11942.7 1102.3C11936.1 1117.7 11926.1 1131 11912.6 1142.2C11899 1153.87 11882 1162.97 11861.5 1169.5C11841.4 1176.5 11817.8 1180 11790.8 1180C11769.8 1180 11750.4 1178.13 11732.7 1174.4C11714.9 1171.13 11699.5 1165.53 11686.5 1157.6C11673.9 1149.67 11663.8 1139.4 11656.4 1126.8C11649.4 1114.2 11645.9 1098.57 11645.9 1079.9C11645.9 1061.7 11651 1045.83 11661.3 1032.3C11672 1019.23 11684.6 1008.5 11699.1 1000.1ZM11720.1 1013.4C11714.9 1019.93 11711.4 1027.17 11709.6 1035.1C11708.2 1043.03 11707.5 1051.67 11707.5 1061C11707.5 1071.73 11709.1 1082 11712.4 1091.8C11716.1 1102.07 11721.9 1110.93 11729.9 1118.4C11737.8 1126.33 11748.1 1132.63 11760.7 1137.3C11773.3 1142.43 11788.4 1145 11806.2 1145C11835.1 1145 11856.1 1138.23 11869.2 1124.7C11882.7 1111.17 11889.5 1094.83 11889.5 1075.7C11889.5 1061.7 11882.2 1049.8 11867.8 1040C11853.3 1030.67 11828.8 1026 11794.3 1026C11782.1 1026 11769.1 1024.83 11755.1 1022.5C11741.1 1020.17 11729.4 1017.13 11720.1 1013.4ZM11798.5 875.5C11812 875.5 11823.2 870.833 11832.1 861.5C11841.4 852.167 11846.1 837.233 11846.1 816.7C11846.1 806.433 11845.4 796.4 11844 786.6C11843 776.8 11840.5 768.167 11836.3 760.7C11832.1 752.767 11826 746.467 11818.1 741.8C11810.6 736.667 11800.6 734.1 11788 734.1C11775.4 734.1 11764.9 739.233 11756.5 749.5C11748.1 759.767 11743.9 773.767 11743.9 791.5C11743.9 802.233 11744.3 812.733 11745.3 823C11746.7 832.8 11749.2 841.667 11753 849.6C11757.2 857.067 11762.8 863.367 11769.8 868.5C11776.8 873.167 11786.3 875.5 11798.5 875.5ZM12279.2 963C12279.2 972.333 12282.5 978.867 12289 982.6C12295.5 985.867 12307.7 989.367 12325.4 993.1C12330.1 994.033 12332.4 997.767 12332.4 1004.3C12332.4 1007.1 12331.9 1010.83 12331 1015.5C12316.5 1014.57 12302.1 1013.63 12287.6 1012.7C12273.1 1012.23 12259.4 1012 12246.3 1012C12233.7 1012 12219.7 1012.23 12204.3 1012.7C12189.4 1013.63 12175.1 1014.57 12161.6 1015.5C12160.7 1010.83 12160.2 1007.1 12160.2 1004.3C12160.2 997.767 12162.5 994.033 12167.2 993.1C12184.9 989.833 12197.1 986.333 12203.6 982.6C12210.1 978.867 12213.4 972.333 12213.4 963V606.7C12213.4 597.367 12210.1 590.833 12203.6 587.1C12197.1 582.9 12184.9 579.4 12167.2 576.6C12164.4 576.133 12162.5 574.733 12161.6 572.4C12160.7 570.067 12160.2 567.5 12160.2 564.7C12160.2 561.9 12160.7 558.167 12161.6 553.5C12175.6 554.433 12190.1 555.367 12205 556.3C12220.4 556.767 12234.2 557 12246.3 557C12258 557 12271.3 556.767 12286.2 556.3C12301.6 555.367 12316.5 554.433 12331 553.5C12331.9 558.167 12332.4 561.9 12332.4 564.7C12332.4 571.7 12330.1 575.667 12325.4 576.6C12307.7 579.4 12295.5 582.9 12289 587.1C12282.5 590.833 12279.2 597.367 12279.2 606.7V963ZM12697 972.1C12697 979.1 12701.2 984.467 12709.6 988.2C12718 991.467 12727.4 994.033 12737.6 995.9C12741.8 996.833 12743.9 999.633 12743.9 1004.3C12743.9 1007.1 12743.5 1010.83 12742.5 1015.5C12730.4 1014.57 12718.5 1013.63 12706.8 1012.7C12695.2 1012.23 12682.6 1012 12669 1012C12656.4 1012 12643.8 1012.23 12631.2 1012.7C12619.1 1013.63 12607 1014.57 12594.8 1015.5C12593.9 1010.83 12593.4 1007.1 12593.4 1004.3C12593.4 999.633 12595.5 996.833 12599.7 995.9C12609.5 994.033 12618.4 991.467 12626.3 988.2C12634.3 984.467 12638.2 979.1 12638.2 972.1V834.9C12638.2 823.233 12637.5 812.5 12636.1 802.7C12634.7 792.9 12631.9 784.5 12627.7 777.5C12624 770.033 12618.6 764.433 12611.6 760.7C12605.1 756.5 12596.5 754.4 12585.7 754.4C12574.1 754.4 12562.6 756.5 12551.4 760.7C12540.2 764.433 12530.2 770.267 12521.3 778.2C12512.9 785.667 12506.2 795 12501 806.2C12495.9 817.4 12493.3 830.233 12493.3 844.7V972.1C12493.3 979.1 12497.3 984.467 12505.2 988.2C12513.6 991.467 12522.5 994.033 12531.8 995.9C12536 996.833 12538.1 999.633 12538.1 1004.3C12538.1 1007.1 12537.7 1010.83 12536.7 1015.5C12524.6 1014.57 12512.7 1013.63 12501 1012.7C12489.4 1012.23 12477 1012 12463.9 1012C12450.4 1012 12437.6 1012.23 12425.4 1012.7C12413.3 1013.63 12401.4 1014.57 12389.7 1015.5C12388.8 1010.83 12388.3 1007.1 12388.3 1004.3C12388.3 999.633 12390.4 996.833 12394.6 995.9C12404.9 994.033 12414.2 991.467 12422.6 988.2C12431 984.467 12435.2 978.867 12435.2 971.4V781C12435.2 767 12432.7 756.967 12427.5 750.9C12422.9 744.833 12412.4 741.1 12396 739.7C12390 738.767 12386.9 735.5 12386.9 729.9C12386.9 727.567 12387.4 724.533 12388.3 720.8C12394.4 720.8 12402.8 720.567 12413.5 720.1C12424.7 719.167 12433.8 718.233 12440.8 717.3C12451.6 715.433 12461.1 713.567 12469.5 711.7C12477.9 709.367 12484 708.2 12487.7 708.2C12494.3 708.2 12497.5 711.7 12497.5 718.7C12497.5 725.233 12496.8 733.167 12495.4 742.5C12494 751.367 12493.3 763.267 12493.3 778.2C12513.4 755.8 12532.5 738.533 12550.7 726.4C12569.4 714.267 12589.7 708.2 12611.6 708.2C12640.1 708.2 12661.3 716.6 12675.3 733.4C12689.8 749.733 12697 772.6 12697 802V972.1ZM12943.2 970.7C12945.5 968.367 12947.4 966.967 12948.8 966.5C12950.7 966.033 12952.1 965.8 12953 965.8C12957.2 965.8 12960.9 968.833 12964.2 974.9C12952.1 988.433 12939 999.4 12925 1007.8C12911 1016.2 12896.1 1020.4 12880.2 1020.4C12870.9 1020.4 12862 1019.23 12853.6 1016.9C12845.2 1015.03 12838 1011.07 12831.9 1005C12825.8 998.933 12820.9 990.767 12817.2 980.5C12813.9 969.767 12812.3 956 12812.3 939.2V746H12770.3V738.3C12770.3 735.033 12770.8 732 12771.7 729.2C12773.1 726.4 12775.7 725 12779.4 725C12792 725 12802.3 721.733 12810.2 715.2C12818.1 708.667 12824.7 700.267 12829.8 690C12835.4 678.8 12840.3 668.3 12844.5 658.5C12848.7 648.7 12853.4 643.8 12858.5 643.8H12871.1V716.6H12953C12953 726.4 12951.8 733.867 12949.5 739C12947.6 743.667 12943.9 746 12938.3 746H12871.1V919.6C12871.1 934.533 12871.8 946.667 12873.2 956C12874.6 964.867 12876.7 971.867 12879.5 977C12882.3 981.667 12885.6 984.7 12889.3 986.1C12893 987.5 12897.2 988.2 12901.9 988.2C12909.8 988.2 12917.1 986.567 12923.6 983.3C12930.6 979.567 12937.1 975.367 12943.2 970.7ZM13239.9 946.9C13243.2 943.633 13246.7 942 13250.4 942C13255.1 942 13259.5 945.967 13263.7 953.9C13257.6 962.3 13250.6 970.467 13242.7 978.4C13234.8 986.333 13225.2 993.567 13214 1000.1C13203.3 1006.17 13190.9 1011.07 13176.9 1014.8C13162.9 1018.53 13146.8 1020.4 13128.6 1020.4C13109.9 1020.4 13092.2 1017.37 13075.4 1011.3C13058.6 1005.23 13043.7 995.9 13030.6 983.3C13018 970.7 13007.7 955.067 12999.8 936.4C12992.3 917.733 12988.6 895.8 12988.6 870.6C12988.6 846.8 12993 824.867 13001.9 804.8C13011.2 784.733 13023.1 767.7 13037.6 753.7C13052.1 739.233 13067.9 728.033 13085.2 720.1C13102.9 712.167 13120 708.2 13136.3 708.2C13179.7 708.2 13211.2 720.8 13230.8 746C13250.9 771.2 13260.9 804.1 13260.9 844.7C13260.9 847.5 13259.5 848.9 13256.7 848.9L13053.7 858C13053.7 876.2 13056.3 893 13061.4 908.4C13066.5 923.8 13073.8 937.1 13083.1 948.3C13092.4 959.5 13103.6 968.367 13116.7 974.9C13130.2 980.967 13145.4 984 13162.2 984C13177.1 984 13191.4 980.5 13204.9 973.5C13218.9 966.5 13230.6 957.633 13239.9 946.9ZM13126.5 733.4C13103.2 733.4 13085 742.5 13071.9 760.7C13058.8 778.9 13052.3 802.7 13052.3 832.1L13184.6 825.8C13191.6 825.8 13195.1 822.767 13195.1 816.7C13195.1 807.833 13193.7 798.5 13190.9 788.7C13188.1 778.9 13183.9 770.033 13178.3 762.1C13172.7 753.7 13165.5 746.933 13156.6 741.8C13148.2 736.2 13138.2 733.4 13126.5 733.4ZM13512.1 708.9C13525.6 708.9 13535.7 712.167 13542.2 718.7C13548.7 725.233 13552 732.467 13552 740.4C13552 743.2 13551.5 745.767 13550.6 748.1C13549.7 750.433 13547.3 753 13543.6 755.8C13540.3 758.133 13535.4 761.167 13528.9 764.9C13522.8 768.167 13514.2 772.367 13503 777.5C13498.8 772.367 13493.7 767.933 13487.6 764.2C13482 760.467 13475.7 758.6 13468.7 758.6C13460.8 758.6 13453.5 760.933 13447 765.6C13440.5 769.8 13434.9 775.867 13430.2 783.8C13425.5 791.267 13421.8 800.133 13419 810.4C13416.7 820.2 13415.5 830.467 13415.5 841.2V961.6C13415.5 971.867 13420.9 979.567 13431.6 984.7C13442.3 989.367 13457.7 993.1 13477.8 995.9C13482.5 996.833 13484.8 999.633 13484.8 1004.3C13484.8 1007.1 13484.3 1010.83 13483.4 1015.5C13478.3 1015.03 13471.7 1014.57 13463.8 1014.1C13456.3 1014.1 13448.4 1013.87 13440 1013.4C13431.6 1012.93 13423 1012.47 13414.1 1012C13405.2 1012 13397.1 1012 13389.6 1012C13377 1012 13363.9 1012.23 13350.4 1012.7C13336.9 1013.63 13324 1014.57 13311.9 1015.5C13311 1010.83 13310.5 1007.1 13310.5 1004.3C13310.5 999.633 13312.6 996.833 13316.8 995.9C13327.5 994.033 13336.9 991.233 13344.8 987.5C13353.2 983.767 13357.4 978.4 13357.4 971.4V793.6C13357.4 783.8 13356.7 775.633 13355.3 769.1C13354.4 762.567 13352.5 757.433 13349.7 753.7C13346.9 749.5 13342.7 746.467 13337.1 744.6C13332 742.733 13325.2 741.333 13316.8 740.4C13310.7 739.467 13307.7 736.433 13307.7 731.3C13307.7 728.5 13308.2 725.233 13309.1 721.5C13315.2 721.5 13323.6 721.267 13334.3 720.8C13345.5 719.867 13354.6 718.933 13361.6 718C13371.9 716.133 13380.7 714.267 13388.2 712.4C13396.1 710.067 13402 708.9 13405.7 708.9C13412.2 708.9 13415.5 712.4 13415.5 719.4V766.3C13430.4 749.967 13445.4 736.433 13460.3 725.7C13475.7 714.5 13493 708.9 13512.1 708.9ZM13884.4 972.1C13884.4 979.1 13888.6 984.467 13897 988.2C13905.4 991.467 13914.8 994.033 13925 995.9C13929.2 996.833 13931.3 999.633 13931.3 1004.3C13931.3 1007.1 13930.9 1010.83 13929.9 1015.5C13917.8 1014.57 13905.9 1013.63 13894.2 1012.7C13882.6 1012.23 13870 1012 13856.4 1012C13843.8 1012 13831.2 1012.23 13818.6 1012.7C13806.5 1013.63 13794.4 1014.57 13782.2 1015.5C13781.3 1010.83 13780.8 1007.1 13780.8 1004.3C13780.8 999.633 13782.9 996.833 13787.1 995.9C13796.9 994.033 13805.8 991.467 13813.7 988.2C13821.7 984.467 13825.6 979.1 13825.6 972.1V834.9C13825.6 823.233 13824.9 812.5 13823.5 802.7C13822.1 792.9 13819.3 784.5 13815.1 777.5C13811.4 770.033 13806 764.433 13799 760.7C13792.5 756.5 13783.9 754.4 13773.1 754.4C13761.5 754.4 13750 756.5 13738.8 760.7C13727.6 764.433 13717.6 770.267 13708.7 778.2C13700.3 785.667 13693.6 795 13688.4 806.2C13683.3 817.4 13680.7 830.233 13680.7 844.7V972.1C13680.7 979.1 13684.7 984.467 13692.6 988.2C13701 991.467 13709.9 994.033 13719.2 995.9C13723.4 996.833 13725.5 999.633 13725.5 1004.3C13725.5 1007.1 13725.1 1010.83 13724.1 1015.5C13712 1014.57 13700.1 1013.63 13688.4 1012.7C13676.8 1012.23 13664.4 1012 13651.3 1012C13637.8 1012 13625 1012.23 13612.8 1012.7C13600.7 1013.63 13588.8 1014.57 13577.1 1015.5C13576.2 1010.83 13575.7 1007.1 13575.7 1004.3C13575.7 999.633 13577.8 996.833 13582 995.9C13592.3 994.033 13601.6 991.467 13610 988.2C13618.4 984.467 13622.6 978.867 13622.6 971.4V781C13622.6 767 13620.1 756.967 13614.9 750.9C13610.3 744.833 13599.8 741.1 13583.4 739.7C13577.4 738.767 13574.3 735.5 13574.3 729.9C13574.3 727.567 13574.8 724.533 13575.7 720.8C13581.8 720.8 13590.2 720.567 13600.9 720.1C13612.1 719.167 13621.2 718.233 13628.2 717.3C13639 715.433 13648.5 713.567 13656.9 711.7C13665.3 709.367 13671.4 708.2 13675.1 708.2C13681.7 708.2 13684.9 711.7 13684.9 718.7C13684.9 725.233 13684.2 733.167 13682.8 742.5C13681.4 751.367 13680.7 763.267 13680.7 778.2C13700.8 755.8 13719.9 738.533 13738.1 726.4C13756.8 714.267 13777.1 708.2 13799 708.2C13827.5 708.2 13848.7 716.6 13862.7 733.4C13877.2 749.733 13884.4 772.6 13884.4 802V972.1ZM14264.8 993.1C14270 993.1 14272.8 998 14273.2 1007.8C14261.1 1016.2 14245.7 1020.4 14227 1020.4C14216.8 1020.4 14207.9 1018.77 14200.4 1015.5C14193 1012.7 14186.7 1008.73 14181.5 1003.6C14176.4 998.467 14172.4 992.633 14169.6 986.1C14166.8 979.567 14165 972.8 14164 965.8C14152.4 986.8 14138.4 1001.27 14122 1009.2C14106.2 1016.67 14087.7 1020.4 14066.7 1020.4C14057.4 1020.4 14047.4 1019.47 14036.6 1017.6C14026.4 1016.2 14016.6 1012.93 14007.2 1007.8C13997.9 1002.67 13990.2 995.433 13984.1 986.1C13978.1 976.767 13975 964.4 13975 949C13975 931.733 13979 917.267 13986.9 905.6C13995.3 893.467 14005.8 883.667 14018.4 876.2C14031.5 868.267 14045.5 861.967 14060.4 857.3C14075.8 852.633 14090.5 848.667 14104.5 845.4C14112.5 844 14119.7 842.6 14126.2 841.2C14133.2 839.333 14139.3 837.467 14144.4 835.6C14151 833.733 14154.9 831.167 14156.3 827.9C14158.2 824.633 14159.1 818.333 14159.1 809C14159.1 787.067 14154.9 769.1 14146.5 755.1C14138.1 740.633 14123.2 733.4 14101.7 733.4C14093.8 733.4 14087 734.333 14081.4 736.2C14075.8 738.067 14071.2 741.1 14067.4 745.3C14063.7 749.033 14060.4 754.167 14057.6 760.7C14054.8 767.233 14052 774.933 14049.2 783.8C14047.8 788.933 14044.6 792.667 14039.4 795C14034.8 797.333 14026.6 800.133 14014.9 803.4C14012.1 804.333 14008.6 805.267 14004.4 806.2C14000.2 807.133 13996.7 807.6 13993.9 807.6C13989.3 807.6 13986.9 802.7 13986.9 792.9C13986.9 782.633 13990.9 772.367 13998.8 762.1C14006.8 751.833 14016.8 742.733 14028.9 734.8C14041.5 726.867 14055.1 720.567 14069.5 715.9C14084 710.767 14097.8 708.2 14110.8 708.2C14127.2 708.2 14141.9 709.6 14154.9 712.4C14168 715.2 14179.2 720.333 14188.5 727.8C14197.9 735.267 14204.9 745.3 14209.5 757.9C14214.7 770.5 14217.2 786.833 14217.2 806.9V927.3C14217.2 943.633 14217.7 955.533 14218.6 963C14220 970 14221.9 975.6 14224.2 979.8C14227.5 986.333 14231 990.767 14234.7 993.1C14238.9 994.967 14243.1 995.9 14247.3 995.9C14252.5 995.9 14256 995.433 14257.8 994.5C14260.2 993.567 14262.5 993.1 14264.8 993.1ZM14159.1 856.6L14136.7 860.1C14124.6 862.433 14112.7 865.233 14101 868.5C14089.8 871.767 14079.8 876.433 14070.9 882.5C14062.1 888.1 14054.8 895.333 14049.2 904.2C14044.1 913.067 14041.5 924.033 14041.5 937.1C14041.5 954.833 14046 968.367 14054.8 977.7C14064.2 987.033 14075.6 991.7 14089.1 991.7C14098 991.7 14106.6 989.833 14115 986.1C14123.9 981.9 14131.4 976.3 14137.4 969.3C14144 961.833 14149.1 953.2 14152.8 943.4C14157 933.6 14159.1 922.867 14159.1 911.2V856.6ZM14464.9 970.7C14467.2 968.367 14469.1 966.967 14470.5 966.5C14472.3 966.033 14473.7 965.8 14474.7 965.8C14478.9 965.8 14482.6 968.833 14485.9 974.9C14473.7 988.433 14460.7 999.4 14446.7 1007.8C14432.7 1016.2 14417.7 1020.4 14401.9 1020.4C14392.5 1020.4 14383.7 1019.23 14375.3 1016.9C14366.9 1015.03 14359.6 1011.07 14353.6 1005C14347.5 998.933 14342.6 990.767 14338.9 980.5C14335.6 969.767 14334 956 14334 939.2V746H14292V738.3C14292 735.033 14292.4 732 14293.4 729.2C14294.8 726.4 14297.3 725 14301.1 725C14313.7 725 14323.9 721.733 14331.9 715.2C14339.8 708.667 14346.3 700.267 14351.5 690C14357.1 678.8 14362 668.3 14366.2 658.5C14370.4 648.7 14375 643.8 14380.2 643.8H14392.8V716.6H14474.7C14474.7 726.4 14473.5 733.867 14471.2 739C14469.3 743.667 14465.6 746 14460 746H14392.8V919.6C14392.8 934.533 14393.5 946.667 14394.9 956C14396.3 964.867 14398.4 971.867 14401.2 977C14404 981.667 14407.2 984.7 14411 986.1C14414.7 987.5 14418.9 988.2 14423.6 988.2C14431.5 988.2 14438.7 986.567 14445.3 983.3C14452.3 979.567 14458.8 975.367 14464.9 970.7ZM14589.9 1012C14582 1012 14573.8 1012 14565.4 1012C14557.5 1012.47 14550 1012.93 14543 1013.4C14536 1013.87 14529.9 1014.33 14524.8 1014.8C14519.7 1015.27 14516.4 1015.5 14515 1015.5C14515 1015.03 14514.8 1013.4 14514.3 1010.6C14513.8 1007.8 14513.6 1005.7 14513.6 1004.3C14513.6 999.633 14515.7 996.833 14519.9 995.9C14532 993.567 14541.8 990.767 14549.3 987.5C14556.8 984.233 14560.5 978.867 14560.5 971.4V781C14560.5 767 14557.9 756.967 14552.8 750.9C14548.1 744.833 14537.6 741.1 14521.3 739.7C14515.2 738.767 14512.2 735.5 14512.2 729.9C14512.2 727.567 14512.7 724.533 14513.6 720.8C14519.7 720.8 14528.1 720.567 14538.8 720.1C14550 719.167 14559.1 718.233 14566.1 717.3C14576.8 715.433 14586.4 713.567 14594.8 711.7C14603.2 709.367 14609.3 708.2 14613 708.2C14619.5 708.2 14622.8 711.7 14622.8 718.7C14622.8 725.233 14622.1 733.167 14620.7 742.5C14619.3 751.367 14618.6 763.267 14618.6 778.2V971.4C14618.6 978.867 14622.1 984.233 14629.1 987.5C14636.6 990.767 14646.8 993.567 14659.9 995.9C14663.6 996.833 14665.5 999.633 14665.5 1004.3C14665.5 1005.7 14665.3 1007.8 14664.8 1010.6C14664.8 1013.4 14664.6 1015.03 14664.1 1015.5C14662.7 1015.5 14659.4 1015.27 14654.3 1014.8C14649.6 1014.33 14643.8 1013.87 14636.8 1013.4C14629.8 1012.93 14622.1 1012.47 14613.7 1012C14605.8 1012 14597.8 1012 14589.9 1012ZM14549.3 591.3C14549.3 580.1 14553 570.533 14560.5 562.6C14568.4 554.2 14578.2 550 14589.9 550C14601.1 550 14610.4 554.2 14617.9 562.6C14625.4 570.533 14629.1 580.1 14629.1 591.3C14629.1 603.433 14625.4 613.233 14617.9 620.7C14610.4 628.167 14601.1 631.9 14589.9 631.9C14578.2 631.9 14568.4 628.167 14560.5 620.7C14553 613.233 14549.3 603.433 14549.3 591.3ZM14707.1 864.3C14707.1 842.833 14711.1 822.533 14719 803.4C14727.4 784.267 14738.6 767.7 14752.6 753.7C14766.6 739.7 14783 728.733 14801.6 720.8C14820.8 712.4 14841.3 708.2 14863.2 708.2C14886.1 708.2 14907.1 712.167 14926.2 720.1C14945.4 727.567 14961.7 738.067 14975.2 751.6C14989.2 765.133 15000 781.7 15007.4 801.3C15015.4 820.433 15019.3 841.433 15019.3 864.3C15019.3 886.233 15015.1 906.767 15006.7 925.9C14998.8 944.567 14987.8 960.9 14973.8 974.9C14959.8 988.9 14943.3 1000.1 14924.1 1008.5C14905.5 1016.43 14885.2 1020.4 14863.2 1020.4C14840.4 1020.4 14819.4 1016.67 14800.2 1009.2C14781.1 1001.27 14764.5 990.533 14750.5 977C14737 963.467 14726.3 947.133 14718.3 928C14710.9 908.867 14707.1 887.633 14707.1 864.3ZM14772.9 841.2C14772.9 858.467 14774.8 876.2 14778.5 894.4C14782.3 912.6 14787.9 929.167 14795.3 944.1C14803.3 958.567 14813.3 970.7 14825.4 980.5C14837.6 989.833 14852.3 994.5 14869.5 994.5C14896.1 994.5 14916.7 985.167 14931.1 966.5C14946.1 947.833 14953.5 923.8 14953.5 894.4C14953.5 877.133 14951.7 859.167 14947.9 840.5C14944.7 821.367 14939.1 804.1 14931.1 788.7C14923.7 772.833 14913.6 759.767 14901 749.5C14888.9 739.233 14873.7 734.1 14855.5 734.1C14830.8 734.1 14810.7 742.733 14795.3 760C14780.4 776.8 14772.9 803.867 14772.9 841.2ZM15375.3 972.1C15375.3 979.1 15379.5 984.467 15387.9 988.2C15396.3 991.467 15405.7 994.033 15415.9 995.9C15420.1 996.833 15422.2 999.633 15422.2 1004.3C15422.2 1007.1 15421.8 1010.83 15420.8 1015.5C15408.7 1014.57 15396.8 1013.63 15385.1 1012.7C15373.5 1012.23 15360.9 1012 15347.3 1012C15334.7 1012 15322.1 1012.23 15309.5 1012.7C15297.4 1013.63 15285.3 1014.57 15273.1 1015.5C15272.2 1010.83 15271.7 1007.1 15271.7 1004.3C15271.7 999.633 15273.8 996.833 15278 995.9C15287.8 994.033 15296.7 991.467 15304.6 988.2C15312.6 984.467 15316.5 979.1 15316.5 972.1V834.9C15316.5 823.233 15315.8 812.5 15314.4 802.7C15313 792.9 15310.2 784.5 15306 777.5C15302.3 770.033 15296.9 764.433 15289.9 760.7C15283.4 756.5 15274.8 754.4 15264 754.4C15252.4 754.4 15240.9 756.5 15229.7 760.7C15218.5 764.433 15208.5 770.267 15199.6 778.2C15191.2 785.667 15184.5 795 15179.3 806.2C15174.2 817.4 15171.6 830.233 15171.6 844.7V972.1C15171.6 979.1 15175.6 984.467 15183.5 988.2C15191.9 991.467 15200.8 994.033 15210.1 995.9C15214.3 996.833 15216.4 999.633 15216.4 1004.3C15216.4 1007.1 15216 1010.83 15215 1015.5C15202.9 1014.57 15191 1013.63 15179.3 1012.7C15167.7 1012.23 15155.3 1012 15142.2 1012C15128.7 1012 15115.9 1012.23 15103.7 1012.7C15091.6 1013.63 15079.7 1014.57 15068 1015.5C15067.1 1010.83 15066.6 1007.1 15066.6 1004.3C15066.6 999.633 15068.7 996.833 15072.9 995.9C15083.2 994.033 15092.5 991.467 15100.9 988.2C15109.3 984.467 15113.5 978.867 15113.5 971.4V781C15113.5 767 15111 756.967 15105.8 750.9C15101.2 744.833 15090.7 741.1 15074.3 739.7C15068.3 738.767 15065.2 735.5 15065.2 729.9C15065.2 727.567 15065.7 724.533 15066.6 720.8C15072.7 720.8 15081.1 720.567 15091.8 720.1C15103 719.167 15112.1 718.233 15119.1 717.3C15129.9 715.433 15139.4 713.567 15147.8 711.7C15156.2 709.367 15162.3 708.2 15166 708.2C15172.6 708.2 15175.8 711.7 15175.8 718.7C15175.8 725.233 15175.1 733.167 15173.7 742.5C15172.3 751.367 15171.6 763.267 15171.6 778.2C15191.7 755.8 15210.8 738.533 15229 726.4C15247.7 714.267 15268 708.2 15289.9 708.2C15318.4 708.2 15339.6 716.6 15353.6 733.4C15368.1 749.733 15375.3 772.6 15375.3 802V972.1ZM15755.7 993.1C15760.9 993.1 15763.7 998 15764.1 1007.8C15752 1016.2 15736.6 1020.4 15717.9 1020.4C15707.7 1020.4 15698.8 1018.77 15691.3 1015.5C15683.9 1012.7 15677.6 1008.73 15672.4 1003.6C15667.3 998.467 15663.3 992.633 15660.5 986.1C15657.7 979.567 15655.9 972.8 15654.9 965.8C15643.3 986.8 15629.3 1001.27 15612.9 1009.2C15597.1 1016.67 15578.6 1020.4 15557.6 1020.4C15548.3 1020.4 15538.3 1019.47 15527.5 1017.6C15517.3 1016.2 15507.5 1012.93 15498.1 1007.8C15488.8 1002.67 15481.1 995.433 15475 986.1C15469 976.767 15465.9 964.4 15465.9 949C15465.9 931.733 15469.9 917.267 15477.8 905.6C15486.2 893.467 15496.7 883.667 15509.3 876.2C15522.4 868.267 15536.4 861.967 15551.3 857.3C15566.7 852.633 15581.4 848.667 15595.4 845.4C15603.4 844 15610.6 842.6 15617.1 841.2C15624.1 839.333 15630.2 837.467 15635.3 835.6C15641.9 833.733 15645.8 831.167 15647.2 827.9C15649.1 824.633 15650 818.333 15650 809C15650 787.067 15645.8 769.1 15637.4 755.1C15629 740.633 15614.1 733.4 15592.6 733.4C15584.7 733.4 15577.9 734.333 15572.3 736.2C15566.7 738.067 15562.1 741.1 15558.3 745.3C15554.6 749.033 15551.3 754.167 15548.5 760.7C15545.7 767.233 15542.9 774.933 15540.1 783.8C15538.7 788.933 15535.5 792.667 15530.3 795C15525.7 797.333 15517.5 800.133 15505.8 803.4C15503 804.333 15499.5 805.267 15495.3 806.2C15491.1 807.133 15487.6 807.6 15484.8 807.6C15480.2 807.6 15477.8 802.7 15477.8 792.9C15477.8 782.633 15481.8 772.367 15489.7 762.1C15497.7 751.833 15507.7 742.733 15519.8 734.8C15532.4 726.867 15546 720.567 15560.4 715.9C15574.9 710.767 15588.7 708.2 15601.7 708.2C15618.1 708.2 15632.8 709.6 15645.8 712.4C15658.9 715.2 15670.1 720.333 15679.4 727.8C15688.8 735.267 15695.8 745.3 15700.4 757.9C15705.6 770.5 15708.1 786.833 15708.1 806.9V927.3C15708.1 943.633 15708.6 955.533 15709.5 963C15710.9 970 15712.8 975.6 15715.1 979.8C15718.4 986.333 15721.9 990.767 15725.6 993.1C15729.8 994.967 15734 995.9 15738.2 995.9C15743.4 995.9 15746.9 995.433 15748.7 994.5C15751.1 993.567 15753.4 993.1 15755.7 993.1ZM15650 856.6L15627.6 860.1C15615.5 862.433 15603.6 865.233 15591.9 868.5C15580.7 871.767 15570.7 876.433 15561.8 882.5C15553 888.1 15545.7 895.333 15540.1 904.2C15535 913.067 15532.4 924.033 15532.4 937.1C15532.4 954.833 15536.9 968.367 15545.7 977.7C15555.1 987.033 15566.5 991.7 15580 991.7C15588.9 991.7 15597.5 989.833 15605.9 986.1C15614.8 981.9 15622.3 976.3 15628.3 969.3C15634.9 961.833 15640 953.2 15643.7 943.4C15647.9 933.6 15650 922.867 15650 911.2V856.6ZM15947.3 1015.5C15935.2 1014.57 15922.8 1013.63 15910.2 1012.7C15897.6 1012.23 15885 1012 15872.4 1012C15859.8 1012 15846.7 1012.23 15833.2 1012.7C15820.1 1013.63 15807.8 1014.57 15796.1 1015.5C15795.2 1010.83 15794.7 1007.1 15794.7 1004.3C15794.7 999.633 15796.8 996.833 15801 995.9C15811.3 994.033 15820.8 991.467 15829.7 988.2C15838.6 984.467 15843 978.867 15843 971.4V594.8C15843 579.867 15840 569.833 15833.9 564.7C15828.3 559.1 15817.3 555.6 15801 554.2C15794.9 553.267 15791.9 550 15791.9 544.4C15791.9 541.6 15792.4 538.333 15793.3 534.6C15799.4 534.6 15807.8 534.367 15818.5 533.9C15829.2 532.967 15839 532.033 15847.9 531.1C15858.6 529.7 15868.2 527.833 15876.6 525.5C15885 523.167 15891.1 522 15894.8 522C15899 522 15901.8 522.933 15903.2 524.8C15904.6 526.667 15905.3 529.233 15905.3 532.5C15905.3 540.433 15904.6 549.767 15903.2 560.5C15901.8 570.767 15901.1 582.9 15901.1 596.9V971.4C15901.1 978.867 15905.3 984.467 15913.7 988.2C15922.6 991.467 15932.4 994.033 15943.1 995.9C15946.8 996.833 15948.7 999.633 15948.7 1004.3C15948.7 1007.1 15948.2 1010.83 15947.3 1015.5ZM8391.7 1598.6V1742.1C8391.7 1752.83 8396.83 1760.53 8407.1 1765.2C8417.37 1769.4 8432.77 1772.9 8453.3 1775.7C8458.9 1776.63 8461.7 1780.6 8461.7 1787.6C8461.7 1790.87 8461.23 1794.83 8460.3 1799.5C8446.77 1798.57 8431.37 1797.63 8414.1 1796.7C8396.83 1796.23 8378.17 1796 8358.1 1796C8345.97 1796 8332.2 1796.23 8316.8 1796.7C8301.4 1797.63 8286.93 1798.57 8273.4 1799.5C8272.47 1794.83 8272 1791.1 8272 1788.3C8272 1781.77 8274.33 1778.03 8279 1777.1C8297.67 1773.37 8310.03 1769.87 8316.1 1766.6C8322.63 1762.87 8325.9 1756.33 8325.9 1747V1390.7C8325.9 1381.37 8322.17 1374.6 8314.7 1370.4C8307.7 1366.2 8294.87 1362.93 8276.2 1360.6C8271.53 1359.67 8269.2 1355.47 8269.2 1348C8269.2 1344.73 8269.67 1341.23 8270.6 1337.5C8283.67 1338.43 8297.43 1339.37 8311.9 1340.3C8326.83 1340.77 8340.83 1341 8353.9 1341H8452.6C8503 1341 8540.8 1352.9 8566 1376.7C8591.2 1400.5 8603.8 1431.3 8603.8 1469.1C8603.8 1484.03 8600.3 1499.2 8593.3 1514.6C8586.77 1530 8576.97 1544 8563.9 1556.6C8551.3 1568.73 8535.43 1578.77 8516.3 1586.7C8497.63 1594.63 8476.4 1598.6 8452.6 1598.6H8391.7ZM8428.8 1569.9C8461.47 1569.9 8486.67 1562.67 8504.4 1548.2C8522.13 1533.73 8531 1509.23 8531 1474.7C8531 1460.23 8529.37 1446.7 8526.1 1434.1C8522.83 1421.5 8517.23 1410.53 8509.3 1401.2C8501.37 1391.4 8490.87 1383.7 8477.8 1378.1C8464.73 1372.5 8448.4 1369.7 8428.8 1369.7H8391.7V1569.9H8428.8ZM8825.37 1492.9C8838.91 1492.9 8848.94 1496.17 8855.47 1502.7C8862.01 1509.23 8865.27 1516.47 8865.27 1524.4C8865.27 1527.2 8864.81 1529.77 8863.87 1532.1C8862.94 1534.43 8860.61 1537 8856.87 1539.8C8853.61 1542.13 8848.71 1545.17 8842.17 1548.9C8836.11 1552.17 8827.47 1556.37 8816.27 1561.5C8812.07 1556.37 8806.94 1551.93 8800.87 1548.2C8795.27 1544.47 8788.97 1542.6 8781.97 1542.6C8774.04 1542.6 8766.81 1544.93 8760.27 1549.6C8753.74 1553.8 8748.14 1559.87 8743.47 1567.8C8738.81 1575.27 8735.07 1584.13 8732.27 1594.4C8729.94 1604.2 8728.77 1614.47 8728.77 1625.2V1745.6C8728.77 1755.87 8734.14 1763.57 8744.87 1768.7C8755.61 1773.37 8771.01 1777.1 8791.07 1779.9C8795.74 1780.83 8798.07 1783.63 8798.07 1788.3C8798.07 1791.1 8797.61 1794.83 8796.67 1799.5C8791.54 1799.03 8785.01 1798.57 8777.07 1798.1C8769.61 1798.1 8761.67 1797.87 8753.27 1797.4C8744.87 1796.93 8736.24 1796.47 8727.37 1796C8718.51 1796 8710.34 1796 8702.87 1796C8690.27 1796 8677.21 1796.23 8663.67 1796.7C8650.14 1797.63 8637.31 1798.57 8625.17 1799.5C8624.24 1794.83 8623.77 1791.1 8623.77 1788.3C8623.77 1783.63 8625.87 1780.83 8630.07 1779.9C8640.81 1778.03 8650.14 1775.23 8658.07 1771.5C8666.47 1767.77 8670.67 1762.4 8670.67 1755.4V1577.6C8670.67 1567.8 8669.97 1559.63 8668.57 1553.1C8667.64 1546.57 8665.77 1541.43 8662.97 1537.7C8660.17 1533.5 8655.97 1530.47 8650.37 1528.6C8645.24 1526.73 8638.47 1525.33 8630.07 1524.4C8624.01 1523.47 8620.97 1520.43 8620.97 1515.3C8620.97 1512.5 8621.44 1509.23 8622.37 1505.5C8628.44 1505.5 8636.84 1505.27 8647.57 1504.8C8658.77 1503.87 8667.87 1502.93 8674.87 1502C8685.14 1500.13 8694.01 1498.27 8701.47 1496.4C8709.41 1494.07 8715.24 1492.9 8718.97 1492.9C8725.51 1492.9 8728.77 1496.4 8728.77 1503.4V1550.3C8743.71 1533.97 8758.64 1520.43 8773.57 1509.7C8788.97 1498.5 8806.24 1492.9 8825.37 1492.9ZM8873.33 1648.3C8873.33 1626.83 8877.3 1606.53 8885.23 1587.4C8893.63 1568.27 8904.83 1551.7 8918.83 1537.7C8932.83 1523.7 8949.17 1512.73 8967.83 1504.8C8986.97 1496.4 9007.5 1492.2 9029.43 1492.2C9052.3 1492.2 9073.3 1496.17 9092.43 1504.1C9111.57 1511.57 9127.9 1522.07 9141.43 1535.6C9155.43 1549.13 9166.17 1565.7 9173.63 1585.3C9181.57 1604.43 9185.53 1625.43 9185.53 1648.3C9185.53 1670.23 9181.33 1690.77 9172.93 1709.9C9165 1728.57 9154.03 1744.9 9140.03 1758.9C9126.03 1772.9 9109.47 1784.1 9090.33 1792.5C9071.67 1800.43 9051.37 1804.4 9029.43 1804.4C9006.57 1804.4 8985.57 1800.67 8966.43 1793.2C8947.3 1785.27 8930.73 1774.53 8916.73 1761C8903.2 1747.47 8892.47 1731.13 8884.53 1712C8877.07 1692.87 8873.33 1671.63 8873.33 1648.3ZM8939.13 1625.2C8939.13 1642.47 8941 1660.2 8944.73 1678.4C8948.47 1696.6 8954.07 1713.17 8961.53 1728.1C8969.47 1742.57 8979.5 1754.7 8991.63 1764.5C9003.77 1773.83 9018.47 1778.5 9035.73 1778.5C9062.33 1778.5 9082.87 1769.17 9097.33 1750.5C9112.27 1731.83 9119.73 1707.8 9119.73 1678.4C9119.73 1661.13 9117.87 1643.17 9114.13 1624.5C9110.87 1605.37 9105.27 1588.1 9097.33 1572.7C9089.87 1556.83 9079.83 1543.77 9067.23 1533.5C9055.1 1523.23 9039.93 1518.1 9021.73 1518.1C8997 1518.1 8976.93 1526.73 8961.53 1544C8946.6 1560.8 8939.13 1587.87 8939.13 1625.2ZM9275.55 1781.3C9255.49 1769.63 9245.45 1752.83 9245.45 1730.9C9245.45 1707.57 9260.85 1688.43 9291.65 1673.5C9278.59 1665.57 9268.09 1655.07 9260.15 1642C9252.69 1628.47 9248.95 1611.9 9248.95 1592.3C9248.95 1579.23 9251.99 1566.63 9258.05 1554.5C9264.59 1542.37 9273.22 1531.63 9283.95 1522.3C9294.69 1512.97 9306.82 1505.73 9320.35 1500.6C9334.35 1495 9349.05 1492.2 9364.45 1492.2C9387.79 1492.2 9406.45 1495 9420.45 1500.6C9434.45 1506.2 9446.59 1513.2 9456.85 1521.6L9526.15 1491.5C9531.29 1494.77 9535.02 1499.2 9537.35 1504.8C9539.69 1509.93 9540.85 1514.83 9540.85 1519.5C9540.85 1529.77 9537.35 1534.9 9530.35 1534.9L9505.15 1534.2C9496.29 1534.2 9485.55 1535.6 9472.95 1538.4C9484.15 1552.87 9489.75 1570.6 9489.75 1591.6C9489.75 1606.07 9486.49 1619.37 9479.95 1631.5C9473.42 1643.63 9464.55 1654.13 9453.35 1663C9442.15 1671.4 9428.85 1678.17 9413.45 1683.3C9398.05 1687.97 9381.72 1690.3 9364.45 1690.3C9354.65 1690.3 9345.32 1689.83 9336.45 1688.9C9327.59 1687.5 9319.19 1685.4 9311.25 1682.6C9299.12 1688.2 9290.72 1693.8 9286.05 1699.4C9281.39 1705 9279.05 1710.37 9279.05 1715.5C9279.05 1719.23 9280.22 1722.97 9282.55 1726.7C9284.89 1729.97 9289.09 1733 9295.15 1735.8C9301.69 1738.13 9310.55 1740.23 9321.75 1742.1C9333.42 1743.5 9348.12 1744.2 9365.85 1744.2C9386.85 1744.2 9406.69 1745.83 9425.35 1749.1C9444.02 1752.37 9460.35 1757.73 9474.35 1765.2C9488.82 1772.67 9500.02 1782.47 9507.95 1794.6C9516.35 1806.73 9520.55 1821.43 9520.55 1838.7C9520.55 1857.83 9516.59 1875.1 9508.65 1890.5C9501.19 1905.9 9490.45 1918.97 9476.45 1929.7C9462.92 1940.9 9446.35 1949.3 9426.75 1954.9C9407.62 1960.97 9386.62 1964 9363.75 1964C9319.89 1964 9285.59 1956.07 9260.85 1940.2C9236.12 1924.33 9223.75 1898.9 9223.75 1863.9C9223.75 1853.63 9225.39 1844.07 9228.65 1835.2C9231.92 1826.8 9235.89 1819.1 9240.55 1812.1C9245.69 1805.1 9251.29 1799.03 9257.35 1793.9C9263.89 1788.77 9269.95 1784.57 9275.55 1781.3ZM9292.35 1789.7C9281.15 1800.43 9274.85 1813.97 9273.45 1830.3C9272.99 1834.03 9272.75 1837.77 9272.75 1841.5C9272.75 1845.23 9272.75 1849.2 9272.75 1853.4C9273.22 1863.2 9275.79 1873 9280.45 1882.8C9285.12 1892.6 9291.89 1901.23 9300.75 1908.7C9309.62 1916.17 9320.59 1922.23 9333.65 1926.9C9346.72 1931.57 9361.89 1933.9 9379.15 1933.9C9411.35 1933.9 9434.69 1926.67 9449.15 1912.2C9464.09 1898.2 9471.55 1880.7 9471.55 1859.7C9471.55 1850.83 9469.69 1842.67 9465.95 1835.2C9462.22 1827.73 9455.92 1821.2 9447.05 1815.6C9438.19 1810.47 9426.52 1806.27 9412.05 1803C9397.59 1800.2 9379.62 1798.8 9358.15 1798.8C9346.02 1798.8 9334.12 1798.1 9322.45 1796.7C9311.25 1795.3 9301.22 1792.97 9292.35 1789.7ZM9371.45 1665.8C9388.72 1665.8 9402.49 1660.2 9412.75 1649C9423.02 1637.8 9428.15 1622.4 9428.15 1602.8C9428.15 1592.53 9426.99 1582.5 9424.65 1572.7C9422.79 1562.43 9419.29 1553.33 9414.15 1545.4C9409.02 1537 9402.02 1530.23 9393.15 1525.1C9384.75 1519.97 9374.02 1517.4 9360.95 1517.4C9344.62 1517.4 9331.55 1522.77 9321.75 1533.5C9312.42 1544.23 9307.75 1558.93 9307.75 1577.6C9307.75 1588.33 9308.69 1599.07 9310.55 1609.8C9312.89 1620.07 9316.39 1629.4 9321.05 1637.8C9326.19 1646.2 9332.72 1652.97 9340.65 1658.1C9349.05 1663.23 9359.32 1665.8 9371.45 1665.8ZM9773.52 1492.9C9787.05 1492.9 9797.08 1496.17 9803.62 1502.7C9810.15 1509.23 9813.42 1516.47 9813.42 1524.4C9813.42 1527.2 9812.95 1529.77 9812.02 1532.1C9811.08 1534.43 9808.75 1537 9805.02 1539.8C9801.75 1542.13 9796.85 1545.17 9790.32 1548.9C9784.25 1552.17 9775.62 1556.37 9764.42 1561.5C9760.22 1556.37 9755.08 1551.93 9749.02 1548.2C9743.42 1544.47 9737.12 1542.6 9730.12 1542.6C9722.18 1542.6 9714.95 1544.93 9708.42 1549.6C9701.88 1553.8 9696.28 1559.87 9691.62 1567.8C9686.95 1575.27 9683.22 1584.13 9680.42 1594.4C9678.08 1604.2 9676.92 1614.47 9676.92 1625.2V1745.6C9676.92 1755.87 9682.28 1763.57 9693.02 1768.7C9703.75 1773.37 9719.15 1777.1 9739.22 1779.9C9743.88 1780.83 9746.22 1783.63 9746.22 1788.3C9746.22 1791.1 9745.75 1794.83 9744.82 1799.5C9739.68 1799.03 9733.15 1798.57 9725.22 1798.1C9717.75 1798.1 9709.82 1797.87 9701.42 1797.4C9693.02 1796.93 9684.38 1796.47 9675.52 1796C9666.65 1796 9658.48 1796 9651.02 1796C9638.42 1796 9625.35 1796.23 9611.82 1796.7C9598.28 1797.63 9585.45 1798.57 9573.32 1799.5C9572.38 1794.83 9571.92 1791.1 9571.92 1788.3C9571.92 1783.63 9574.02 1780.83 9578.22 1779.9C9588.95 1778.03 9598.28 1775.23 9606.22 1771.5C9614.62 1767.77 9618.82 1762.4 9618.82 1755.4V1577.6C9618.82 1567.8 9618.12 1559.63 9616.72 1553.1C9615.78 1546.57 9613.92 1541.43 9611.12 1537.7C9608.32 1533.5 9604.12 1530.47 9598.52 1528.6C9593.38 1526.73 9586.62 1525.33 9578.22 1524.4C9572.15 1523.47 9569.12 1520.43 9569.12 1515.3C9569.12 1512.5 9569.58 1509.23 9570.52 1505.5C9576.58 1505.5 9584.98 1505.27 9595.72 1504.8C9606.92 1503.87 9616.02 1502.93 9623.02 1502C9633.28 1500.13 9642.15 1498.27 9649.62 1496.4C9657.55 1494.07 9663.38 1492.9 9667.12 1492.9C9673.65 1492.9 9676.92 1496.4 9676.92 1503.4V1550.3C9691.85 1533.97 9706.78 1520.43 9721.72 1509.7C9737.12 1498.5 9754.38 1492.9 9773.52 1492.9ZM10116.8 1777.1C10121.9 1777.1 10124.7 1782 10125.2 1791.8C10113 1800.2 10097.6 1804.4 10079 1804.4C10068.7 1804.4 10059.8 1802.77 10052.4 1799.5C10044.9 1796.7 10038.6 1792.73 10033.5 1787.6C10028.3 1782.47 10024.4 1776.63 10021.6 1770.1C10018.8 1763.57 10016.9 1756.8 10016 1749.8C10004.3 1770.8 9990.31 1785.27 9973.98 1793.2C9958.11 1800.67 9939.68 1804.4 9918.68 1804.4C9909.35 1804.4 9899.31 1803.47 9888.58 1801.6C9878.31 1800.2 9868.51 1796.93 9859.18 1791.8C9849.85 1786.67 9842.15 1779.43 9836.08 1770.1C9830.01 1760.77 9826.98 1748.4 9826.98 1733C9826.98 1715.73 9830.95 1701.27 9838.88 1689.6C9847.28 1677.47 9857.78 1667.67 9870.38 1660.2C9883.45 1652.27 9897.45 1645.97 9912.38 1641.3C9927.78 1636.63 9942.48 1632.67 9956.48 1629.4C9964.41 1628 9971.65 1626.6 9978.18 1625.2C9985.18 1623.33 9991.25 1621.47 9996.38 1619.6C10002.9 1617.73 10006.9 1615.17 10008.3 1611.9C10010.1 1608.63 10011.1 1602.33 10011.1 1593C10011.1 1571.07 10006.9 1553.1 9998.48 1539.1C9990.08 1524.63 9975.15 1517.4 9953.68 1517.4C9945.75 1517.4 9938.98 1518.33 9933.38 1520.2C9927.78 1522.07 9923.11 1525.1 9919.38 1529.3C9915.65 1533.03 9912.38 1538.17 9909.58 1544.7C9906.78 1551.23 9903.98 1558.93 9901.18 1567.8C9899.78 1572.93 9896.51 1576.67 9891.38 1579C9886.71 1581.33 9878.55 1584.13 9866.88 1587.4C9864.08 1588.33 9860.58 1589.27 9856.38 1590.2C9852.18 1591.13 9848.68 1591.6 9845.88 1591.6C9841.21 1591.6 9838.88 1586.7 9838.88 1576.9C9838.88 1566.63 9842.85 1556.37 9850.78 1546.1C9858.71 1535.83 9868.75 1526.73 9880.88 1518.8C9893.48 1510.87 9907.01 1504.57 9921.48 1499.9C9935.95 1494.77 9949.71 1492.2 9962.78 1492.2C9979.11 1492.2 9993.81 1493.6 10006.9 1496.4C10019.9 1499.2 10031.1 1504.33 10040.5 1511.8C10049.8 1519.27 10056.8 1529.3 10061.5 1541.9C10066.6 1554.5 10069.2 1570.83 10069.2 1590.9V1711.3C10069.2 1727.63 10069.6 1739.53 10070.6 1747C10072 1754 10073.8 1759.6 10076.2 1763.8C10079.4 1770.33 10082.9 1774.77 10086.7 1777.1C10090.9 1778.97 10095.1 1779.9 10099.3 1779.9C10104.4 1779.9 10107.9 1779.43 10109.8 1778.5C10112.1 1777.57 10114.4 1777.1 10116.8 1777.1ZM10011.1 1640.6L9988.68 1644.1C9976.55 1646.43 9964.65 1649.23 9952.98 1652.5C9941.78 1655.77 9931.75 1660.43 9922.88 1666.5C9914.01 1672.1 9906.78 1679.33 9901.18 1688.2C9896.05 1697.07 9893.48 1708.03 9893.48 1721.1C9893.48 1738.83 9897.91 1752.37 9906.78 1761.7C9916.11 1771.03 9927.55 1775.7 9941.08 1775.7C9949.95 1775.7 9958.58 1773.83 9966.98 1770.1C9975.85 1765.9 9983.31 1760.3 9989.38 1753.3C9995.91 1745.83 10001 1737.2 10004.8 1727.4C10009 1717.6 10011.1 1706.87 10011.1 1695.2V1640.6ZM10453.2 1562.9C10455.1 1561.5 10459.3 1557.07 10465.8 1549.6C10472.4 1542.13 10480.8 1534.2 10491 1525.8C10501.8 1517.4 10513.9 1509.7 10527.4 1502.7C10541.4 1495.7 10556.4 1492.2 10572.2 1492.2C10600.2 1492.2 10620.1 1500.6 10631.7 1517.4C10643.4 1533.73 10649.2 1556.6 10649.2 1586V1756.1C10649.2 1763.1 10653.4 1768.47 10661.8 1772.2C10670.2 1775.47 10679.6 1778.03 10689.8 1779.9C10694 1780.83 10696.1 1783.63 10696.1 1788.3C10696.1 1791.1 10695.7 1794.83 10694.7 1799.5C10682.6 1798.57 10670.7 1797.63 10659 1796.7C10647.4 1796.23 10634.8 1796 10621.2 1796C10609.1 1796 10596.7 1796.23 10584.1 1796.7C10571.5 1797.63 10559.4 1798.57 10547.7 1799.5C10546.8 1794.83 10546.3 1791.1 10546.3 1788.3C10546.3 1783.63 10548.4 1780.83 10552.6 1779.9C10556.8 1779.43 10561 1778.5 10565.2 1777.1C10569.9 1775.7 10574.1 1774.07 10577.8 1772.2C10581.6 1770.33 10584.6 1768.23 10586.9 1765.9C10589.7 1763.1 10591.1 1759.83 10591.1 1756.1V1611.9C10591.1 1582.97 10587.6 1563.6 10580.6 1553.8C10573.6 1543.53 10562.2 1538.4 10546.3 1538.4C10534.2 1538.4 10522.5 1540.5 10511.3 1544.7C10500.6 1548.43 10491 1554.27 10482.6 1562.2C10474.2 1569.67 10467.5 1579 10462.3 1590.2C10457.2 1601.4 10454.6 1614.23 10454.6 1628.7V1756.1C10454.6 1763.1 10458.6 1768.47 10466.5 1772.2C10474.5 1775.47 10483.3 1778.03 10493.1 1779.9C10497.3 1780.83 10499.4 1783.63 10499.4 1788.3C10499.4 1791.1 10499 1794.83 10498 1799.5C10485.9 1798.57 10474 1797.63 10462.3 1796.7C10451.1 1796.23 10439.2 1796 10426.6 1796C10414 1796 10401.4 1796.23 10388.8 1796.7C10376.7 1797.63 10364.6 1798.57 10352.4 1799.5C10351.5 1794.83 10351 1791.1 10351 1788.3C10351 1783.63 10353.1 1780.83 10357.3 1779.9C10365.7 1778.5 10374.1 1776.17 10382.5 1772.9C10391.4 1769.17 10395.8 1763.57 10395.8 1756.1V1611.9C10395.8 1582.97 10392.3 1563.6 10385.3 1553.8C10378.8 1543.53 10367.6 1538.4 10351.7 1538.4C10339.6 1538.4 10327.9 1540.5 10316.7 1544.7C10306 1548.43 10296.2 1554.27 10287.3 1562.2C10278.9 1569.67 10272.2 1579 10267 1590.2C10261.9 1601.4 10259.3 1614.23 10259.3 1628.7V1756.1C10259.3 1763.1 10263.3 1768.47 10271.2 1772.2C10279.6 1775.47 10288.5 1778.03 10297.8 1779.9C10302 1780.83 10304.1 1783.63 10304.1 1788.3C10304.1 1791.1 10303.7 1794.83 10302.7 1799.5C10290.6 1798.57 10278.7 1797.63 10267 1796.7C10255.4 1796.23 10243 1796 10229.9 1796C10216.4 1796 10203.6 1796.23 10191.4 1796.7C10179.3 1797.63 10167.4 1798.57 10155.7 1799.5C10154.8 1794.83 10154.3 1791.1 10154.3 1788.3C10154.3 1783.63 10156.4 1780.83 10160.6 1779.9C10170.9 1778.03 10180.2 1775.47 10188.6 1772.2C10197 1768.47 10201.2 1762.87 10201.2 1755.4V1565C10201.2 1551 10198.7 1540.97 10193.5 1534.9C10188.9 1528.83 10178.4 1525.1 10162 1523.7C10156 1522.77 10152.9 1519.5 10152.9 1513.9C10152.9 1511.57 10153.4 1508.53 10154.3 1504.8C10160.4 1504.8 10168.8 1504.57 10179.5 1504.1C10190.7 1503.17 10199.8 1502.23 10206.8 1501.3C10217.6 1499.43 10227.1 1497.57 10235.5 1495.7C10243.9 1493.37 10250 1492.2 10253.7 1492.2C10260.3 1492.2 10263.5 1495.7 10263.5 1502.7C10263.5 1509.23 10262.8 1517.17 10261.4 1526.5C10260 1535.37 10259.3 1547.27 10259.3 1562.2C10260.7 1560.8 10264.7 1556.37 10271.2 1548.9C10277.8 1541.43 10286.2 1533.5 10296.4 1525.1C10307.2 1516.7 10319.3 1509.23 10332.8 1502.7C10346.4 1495.7 10361.3 1492.2 10377.6 1492.2C10401.9 1492.2 10419.9 1498.5 10431.5 1511.1C10443.7 1523.23 10450.9 1540.5 10453.2 1562.9ZM10927.9 1578.3C10924.1 1578.3 10921.3 1577.6 10919.5 1576.2C10918.1 1574.33 10917.1 1572.47 10916.7 1570.6C10913.4 1551.47 10905.7 1537.93 10893.6 1530C10881.9 1521.6 10867.2 1517.4 10849.5 1517.4C10835.9 1517.4 10823.8 1521.37 10813.1 1529.3C10802.8 1536.77 10797.7 1547.27 10797.7 1560.8C10797.7 1572.93 10802.3 1583.2 10811.7 1591.6C10821.5 1599.53 10839 1607.47 10864.2 1615.4C10877.7 1619.6 10890.1 1624.27 10901.3 1629.4C10912.9 1634.53 10922.7 1640.83 10930.7 1648.3C10939.1 1655.3 10945.6 1664.17 10950.3 1674.9C10954.9 1685.17 10957.3 1697.53 10957.3 1712C10957.3 1724.13 10954.9 1735.8 10950.3 1747C10946.1 1758.2 10939.3 1768 10930 1776.4C10921.1 1784.8 10909.7 1791.57 10895.7 1796.7C10882.1 1801.83 10865.8 1804.4 10846.7 1804.4C10831.7 1804.4 10814.9 1802.53 10796.3 1798.8C10778.1 1795.53 10761.5 1789.7 10746.6 1781.3C10745.6 1769.17 10744.7 1756.57 10743.8 1743.5C10743.3 1729.97 10743.1 1716.43 10743.1 1702.9H10750.1C10754.7 1702.9 10758.7 1703.83 10762 1705.7C10765.2 1707.1 10767.1 1709.67 10767.6 1713.4C10769.4 1733 10776.9 1748.87 10790 1761C10803.5 1772.67 10822.2 1778.5 10846 1778.5C10865.1 1778.5 10879.8 1774.3 10890.1 1765.9C10900.3 1757.03 10905.5 1745.13 10905.5 1730.2C10905.5 1714.8 10899.9 1703.13 10888.7 1695.2C10877.5 1686.8 10860.9 1679.33 10839 1672.8C10811.4 1664.4 10789.7 1653.43 10773.9 1639.9C10758.5 1626.37 10750.8 1606.53 10750.8 1580.4C10750.8 1568.27 10753.1 1556.83 10757.8 1546.1C10762.4 1535.37 10769 1526.03 10777.4 1518.1C10785.8 1510.17 10796 1503.87 10808.2 1499.2C10820.3 1494.53 10833.8 1492.2 10848.8 1492.2C10867.4 1492.2 10884.9 1494.77 10901.3 1499.9C10918.1 1504.57 10931.1 1509.7 10940.5 1515.3C10940.9 1519.03 10941.4 1523.7 10941.9 1529.3C10942.3 1534.43 10942.6 1540.03 10942.6 1546.1C10943 1551.7 10943.3 1557.53 10943.3 1563.6C10943.7 1569.2 10944 1574.33 10944 1579L10927.9 1578.3Z" fill="#1E317C"/>
<path d="M7526 0.5V2343" stroke="#1E317C" stroke-width="30"/>
</svg>
