<svg width="1875" height="1909" viewBox="0 0 1875 1909" fill="none" xmlns="http://www.w3.org/2000/svg">
<path d="M937.136 0C585.499 0 279.099 195.401 118.829 484.573H1755.52C1595.12 195.401 1288.67 0 937.072 0H937.136ZM0.177072 538.943V825.672H385.187L851.198 538.943H0.177072ZM1045.07 538.943L1486.89 825.672H1874.17V538.943H1045.07ZM949.878 541.813L488.662 825.672H1387.29L949.878 541.813ZM0.264961 880.029V950.169H19.3384L28.284 926.704L34.6134 907.037L48.6228 950.169H93.859L57.2257 976.875L71.2338 1019.92L34.6082 993.296L0.260051 1018.27L0.00683594 1185.6L0.260025 1649.57H246.274L260.284 1606.77L223.573 1580.1H268.809L282.819 1536.97L296.828 1580.1H342.146L305.435 1606.77L319.36 1649.57H368.9V880.023L0.264961 880.029ZM422.732 880.029V1649.48H579.202V880.029H422.732ZM633.047 880.029V1649.48H799.896V880.029H633.047ZM853.819 880.029V1649.48H1020.58V880.029H853.819ZM1295.03 880.029V1649.48H1456.64V880.029H1295.03ZM1510.49 880.029V1649.57H1874.06V1187.56L1840.04 1212.2L1854.14 1255.33L1817.51 1228.66L1780.8 1255.33L1794.81 1212.2L1758.18 1185.62H1803.42L1817.51 1142.48L1831.44 1185.62H1874.06V1016.47L1842.24 993.341L1805.53 1019.93L1819.54 976.883L1782.91 950.211H1828.15L1842.24 907.08L1856.17 950.211H1874.06V880.072H1510.49L1510.49 880.029ZM1074.33 880.116V1649.57H1241.18V880.116H1074.33ZM0.277887 968.236V1012.97L3.23164 1000.06L10.9959 976.088L0.277887 968.236ZM1874.02 970.093L1864.73 976.846L1874.02 1005.38V970.093ZM282.818 1623.21L246.613 1649.54H319.024L282.818 1623.21ZM0.264961 1703.9V1908.17H368.899V1703.9H0.264961ZM422.732 1703.9V1908.17H905.816L916.028 1876.77L879.401 1850.09H924.637L938.647 1806.96L952.656 1850.09H997.974L961.347 1876.77L971.559 1908.17H1456.76V1703.9H1394.48L1404.86 1735.89H1450.18L1413.38 1762.47L1427.48 1805.61L1390.85 1778.93L1354.22 1805.61L1368.23 1762.47L1331.61 1735.89H1376.92L1387.31 1703.9H489.626L500.006 1735.89H545.323L508.612 1762.47L522.622 1805.61L485.995 1778.93L449.368 1805.61L463.378 1762.47L426.751 1735.89H472.068L482.364 1703.9H422.783H422.732ZM1510.49 1703.9V1908.17H1874.05V1703.9H1510.49ZM938.646 1893.22L917.97 1908.16H959.491L938.646 1893.22Z" fill="#E57200"/>
<path d="M59.327 1142.44L45.3176 1185.57H0L36.7109 1212.16L22.6175 1255.29L59.3283 1228.62L95.9552 1255.29L82.0298 1212.16L118.573 1185.57H73.3364L59.327 1142.44ZM148.87 1360.54L134.777 1403.59H89.4591L126.254 1430.18L112.161 1473.22L148.871 1446.64L185.498 1473.22L171.489 1430.18L208.2 1403.59H162.882L148.87 1360.54ZM1727.92 1360.54L1713.99 1403.59H1668.67L1705.3 1430.18L1691.29 1473.22L1727.92 1446.64L1764.63 1473.22L1750.54 1430.18L1787.33 1403.59H1742.01L1727.92 1360.54ZM1593.99 1536.96L1579.98 1580.09H1534.74L1571.37 1606.76L1557.44 1649.55L1593.99 1623.22L1630.28 1649.55H1630.53L1616.52 1606.76L1653.32 1580.09H1608L1593.99 1536.96ZM702.965 1778.44L688.956 1821.49H643.638L680.349 1848.16L666.255 1891.2L702.966 1864.62L739.593 1891.2L725.669 1848.16L762.296 1821.49H716.978L702.965 1778.44ZM1167.3 1778.44L1153.37 1821.49H1108.05L1144.68 1848.16L1130.67 1891.2L1167.3 1864.62L1203.92 1891.2L1189.91 1848.16L1226.63 1821.49H1181.31L1167.3 1778.44Z" fill="white"/>
</svg>
